<svg height="277.2" width="420" xmlns="http://www.w3.org/2000/svg">
<rect fill="rgb(139, 46, 186)" height="100%" width="100%" x="0" y="0"/>
<g fill="#ddd" fill-opacity="0.124" stroke="#000" stroke-opacity="0.02" stroke-width="1" transform="translate(0, -35)">
<polyline points="0,0,35,23.799999999999997,35,70,0,46.2,0,0"/>
<polyline points="35,23.799999999999997,70,0,70,46.2,35,70,35,23.799999999999997"/>
</g>
<g fill="#ddd" fill-opacity="0.124" stroke="#000" stroke-opacity="0.02" stroke-width="1" transform="translate(0, 242.2)">
<polyline points="0,0,35,23.799999999999997,35,70,0,46.2,0,0"/>
<polyline points="35,23.799999999999997,70,0,70,46.2,35,70,35,23.799999999999997"/>
</g>
<g fill="#ddd" fill-opacity="0.124" stroke="#000" stroke-opacity="0.02" stroke-width="1" transform="translate(70, -35)">
<polyline points="0,0,35,23.799999999999997,35,70,0,46.2,0,0"/>
<polyline points="35,23.799999999999997,70,0,70,46.2,35,70,35,23.799999999999997"/>
</g>
<g fill="#ddd" fill-opacity="0.124" stroke="#000" stroke-opacity="0.02" stroke-width="1" transform="translate(70, 242.2)">
<polyline points="0,0,35,23.799999999999997,35,70,0,46.2,0,0"/>
<polyline points="35,23.799999999999997,70,0,70,46.2,35,70,35,23.799999999999997"/>
</g>
<g fill="#222" fill-opacity="0.028666666666666674" stroke="#000" stroke-opacity="0.02" stroke-width="1" transform="translate(140, -35)">
<polyline points="0,0,35,23.799999999999997,35,70,0,46.2,0,0"/>
<polyline points="35,23.799999999999997,70,0,70,46.2,35,70,35,23.799999999999997"/>
</g>
<g fill="#222" fill-opacity="0.028666666666666674" stroke="#000" stroke-opacity="0.02" stroke-width="1" transform="translate(140, 242.2)">
<polyline points="0,0,35,23.799999999999997,35,70,0,46.2,0,0"/>
<polyline points="35,23.799999999999997,70,0,70,46.2,35,70,35,23.799999999999997"/>
</g>
<g fill="#222" fill-opacity="0.028666666666666674" stroke="#000" stroke-opacity="0.02" stroke-width="1" transform="translate(210, -35)">
<polyline points="0,0,35,23.799999999999997,35,70,0,46.2,0,0"/>
<polyline points="35,23.799999999999997,70,0,70,46.2,35,70,35,23.799999999999997"/>
</g>
<g fill="#222" fill-opacity="0.028666666666666674" stroke="#000" stroke-opacity="0.02" stroke-width="1" transform="translate(210, 242.2)">
<polyline points="0,0,35,23.799999999999997,35,70,0,46.2,0,0"/>
<polyline points="35,23.799999999999997,70,0,70,46.2,35,70,35,23.799999999999997"/>
</g>
<g fill="#222" fill-opacity="0.046" stroke="#000" stroke-opacity="0.02" stroke-width="1" transform="translate(280, -35)">
<polyline points="0,0,35,23.799999999999997,35,70,0,46.2,0,0"/>
<polyline points="35,23.799999999999997,70,0,70,46.2,35,70,35,23.799999999999997"/>
</g>
<g fill="#222" fill-opacity="0.046" stroke="#000" stroke-opacity="0.02" stroke-width="1" transform="translate(280, 242.2)">
<polyline points="0,0,35,23.799999999999997,35,70,0,46.2,0,0"/>
<polyline points="35,23.799999999999997,70,0,70,46.2,35,70,35,23.799999999999997"/>
</g>
<g fill="#222" fill-opacity="0.028666666666666674" stroke="#000" stroke-opacity="0.02" stroke-width="1" transform="translate(350, -35)">
<polyline points="0,0,35,23.799999999999997,35,70,0,46.2,0,0"/>
<polyline points="35,23.799999999999997,70,0,70,46.2,35,70,35,23.799999999999997"/>
</g>
<g fill="#222" fill-opacity="0.028666666666666674" stroke="#000" stroke-opacity="0.02" stroke-width="1" transform="translate(350, 242.2)">
<polyline points="0,0,35,23.799999999999997,35,70,0,46.2,0,0"/>
<polyline points="35,23.799999999999997,70,0,70,46.2,35,70,35,23.799999999999997"/>
</g>
<g fill="#222" fill-opacity="0.11533333333333333" stroke="#000" stroke-opacity="0.02" stroke-width="1" transform="translate(0, 11.200000000000003)">
<polyline points="0,0,35,23.799999999999997,35,70,0,46.2,0,0"/>
<polyline points="35,23.799999999999997,70,0,70,46.2,35,70,35,23.799999999999997"/>
</g>
<g fill="#ddd" fill-opacity="0.03733333333333333" stroke="#000" stroke-opacity="0.02" stroke-width="1" transform="translate(70, 11.200000000000003)">
<polyline points="0,0,35,23.799999999999997,35,70,0,46.2,0,0"/>
<polyline points="35,23.799999999999997,70,0,70,46.2,35,70,35,23.799999999999997"/>
</g>
<g fill="#ddd" fill-opacity="0.072" stroke="#000" stroke-opacity="0.02" stroke-width="1" transform="translate(140, 11.200000000000003)">
<polyline points="0,0,35,23.799999999999997,35,70,0,46.2,0,0"/>
<polyline points="35,23.799999999999997,70,0,70,46.2,35,70,35,23.799999999999997"/>
</g>
<g fill="#ddd" fill-opacity="0.05466666666666667" stroke="#000" stroke-opacity="0.02" stroke-width="1" transform="translate(210, 11.200000000000003)">
<polyline points="0,0,35,23.799999999999997,35,70,0,46.2,0,0"/>
<polyline points="35,23.799999999999997,70,0,70,46.2,35,70,35,23.799999999999997"/>
</g>
<g fill="#ddd" fill-opacity="0.01999999999999999" stroke="#000" stroke-opacity="0.02" stroke-width="1" transform="translate(280, 11.200000000000003)">
<polyline points="0,0,35,23.799999999999997,35,70,0,46.2,0,0"/>
<polyline points="35,23.799999999999997,70,0,70,46.2,35,70,35,23.799999999999997"/>
</g>
<g fill="#ddd" fill-opacity="0.08933333333333333" stroke="#000" stroke-opacity="0.02" stroke-width="1" transform="translate(350, 11.200000000000003)">
<polyline points="0,0,35,23.799999999999997,35,70,0,46.2,0,0"/>
<polyline points="35,23.799999999999997,70,0,70,46.2,35,70,35,23.799999999999997"/>
</g>
<g fill="#222" fill-opacity="0.098" stroke="#000" stroke-opacity="0.02" stroke-width="1" transform="translate(0, 57.400000000000006)">
<polyline points="0,0,35,23.799999999999997,35,70,0,46.2,0,0"/>
<polyline points="35,23.799999999999997,70,0,70,46.2,35,70,35,23.799999999999997"/>
</g>
<g fill="#ddd" fill-opacity="0.124" stroke="#000" stroke-opacity="0.02" stroke-width="1" transform="translate(70, 57.400000000000006)">
<polyline points="0,0,35,23.799999999999997,35,70,0,46.2,0,0"/>
<polyline points="35,23.799999999999997,70,0,70,46.2,35,70,35,23.799999999999997"/>
</g>
<g fill="#222" fill-opacity="0.13266666666666665" stroke="#000" stroke-opacity="0.02" stroke-width="1" transform="translate(140, 57.400000000000006)">
<polyline points="0,0,35,23.799999999999997,35,70,0,46.2,0,0"/>
<polyline points="35,23.799999999999997,70,0,70,46.2,35,70,35,23.799999999999997"/>
</g>
<g fill="#222" fill-opacity="0.028666666666666674" stroke="#000" stroke-opacity="0.02" stroke-width="1" transform="translate(210, 57.400000000000006)">
<polyline points="0,0,35,23.799999999999997,35,70,0,46.2,0,0"/>
<polyline points="35,23.799999999999997,70,0,70,46.2,35,70,35,23.799999999999997"/>
</g>
<g fill="#ddd" fill-opacity="0.01999999999999999" stroke="#000" stroke-opacity="0.02" stroke-width="1" transform="translate(280, 57.400000000000006)">
<polyline points="0,0,35,23.799999999999997,35,70,0,46.2,0,0"/>
<polyline points="35,23.799999999999997,70,0,70,46.2,35,70,35,23.799999999999997"/>
</g>
<g fill="#ddd" fill-opacity="0.14133333333333334" stroke="#000" stroke-opacity="0.02" stroke-width="1" transform="translate(350, 57.400000000000006)">
<polyline points="0,0,35,23.799999999999997,35,70,0,46.2,0,0"/>
<polyline points="35,23.799999999999997,70,0,70,46.2,35,70,35,23.799999999999997"/>
</g>
<g fill="#ddd" fill-opacity="0.05466666666666667" stroke="#000" stroke-opacity="0.02" stroke-width="1" transform="translate(0, 103.6)">
<polyline points="0,0,35,23.799999999999997,35,70,0,46.2,0,0"/>
<polyline points="35,23.799999999999997,70,0,70,46.2,35,70,35,23.799999999999997"/>
</g>
<g fill="#222" fill-opacity="0.08066666666666666" stroke="#000" stroke-opacity="0.02" stroke-width="1" transform="translate(70, 103.6)">
<polyline points="0,0,35,23.799999999999997,35,70,0,46.2,0,0"/>
<polyline points="35,23.799999999999997,70,0,70,46.2,35,70,35,23.799999999999997"/>
</g>
<g fill="#ddd" fill-opacity="0.05466666666666667" stroke="#000" stroke-opacity="0.02" stroke-width="1" transform="translate(140, 103.6)">
<polyline points="0,0,35,23.799999999999997,35,70,0,46.2,0,0"/>
<polyline points="35,23.799999999999997,70,0,70,46.2,35,70,35,23.799999999999997"/>
</g>
<g fill="#ddd" fill-opacity="0.124" stroke="#000" stroke-opacity="0.02" stroke-width="1" transform="translate(210, 103.6)">
<polyline points="0,0,35,23.799999999999997,35,70,0,46.2,0,0"/>
<polyline points="35,23.799999999999997,70,0,70,46.2,35,70,35,23.799999999999997"/>
</g>
<g fill="#222" fill-opacity="0.046" stroke="#000" stroke-opacity="0.02" stroke-width="1" transform="translate(280, 103.6)">
<polyline points="0,0,35,23.799999999999997,35,70,0,46.2,0,0"/>
<polyline points="35,23.799999999999997,70,0,70,46.2,35,70,35,23.799999999999997"/>
</g>
<g fill="#ddd" fill-opacity="0.124" stroke="#000" stroke-opacity="0.02" stroke-width="1" transform="translate(350, 103.6)">
<polyline points="0,0,35,23.799999999999997,35,70,0,46.2,0,0"/>
<polyline points="35,23.799999999999997,70,0,70,46.2,35,70,35,23.799999999999997"/>
</g>
<g fill="#ddd" fill-opacity="0.14133333333333334" stroke="#000" stroke-opacity="0.02" stroke-width="1" transform="translate(0, 149.8)">
<polyline points="0,0,35,23.799999999999997,35,70,0,46.2,0,0"/>
<polyline points="35,23.799999999999997,70,0,70,46.2,35,70,35,23.799999999999997"/>
</g>
<g fill="#222" fill-opacity="0.08066666666666666" stroke="#000" stroke-opacity="0.02" stroke-width="1" transform="translate(70, 149.8)">
<polyline points="0,0,35,23.799999999999997,35,70,0,46.2,0,0"/>
<polyline points="35,23.799999999999997,70,0,70,46.2,35,70,35,23.799999999999997"/>
</g>
<g fill="#222" fill-opacity="0.15" stroke="#000" stroke-opacity="0.02" stroke-width="1" transform="translate(140, 149.8)">
<polyline points="0,0,35,23.799999999999997,35,70,0,46.2,0,0"/>
<polyline points="35,23.799999999999997,70,0,70,46.2,35,70,35,23.799999999999997"/>
</g>
<g fill="#ddd" fill-opacity="0.124" stroke="#000" stroke-opacity="0.02" stroke-width="1" transform="translate(210, 149.8)">
<polyline points="0,0,35,23.799999999999997,35,70,0,46.2,0,0"/>
<polyline points="35,23.799999999999997,70,0,70,46.2,35,70,35,23.799999999999997"/>
</g>
<g fill="#222" fill-opacity="0.13266666666666665" stroke="#000" stroke-opacity="0.02" stroke-width="1" transform="translate(280, 149.8)">
<polyline points="0,0,35,23.799999999999997,35,70,0,46.2,0,0"/>
<polyline points="35,23.799999999999997,70,0,70,46.2,35,70,35,23.799999999999997"/>
</g>
<g fill="#222" fill-opacity="0.098" stroke="#000" stroke-opacity="0.02" stroke-width="1" transform="translate(350, 149.8)">
<polyline points="0,0,35,23.799999999999997,35,70,0,46.2,0,0"/>
<polyline points="35,23.799999999999997,70,0,70,46.2,35,70,35,23.799999999999997"/>
</g>
<g fill="#ddd" fill-opacity="0.03733333333333333" stroke="#000" stroke-opacity="0.02" stroke-width="1" transform="translate(0, 196)">
<polyline points="0,0,35,23.799999999999997,35,70,0,46.2,0,0"/>
<polyline points="35,23.799999999999997,70,0,70,46.2,35,70,35,23.799999999999997"/>
</g>
<g fill="#222" fill-opacity="0.046" stroke="#000" stroke-opacity="0.02" stroke-width="1" transform="translate(70, 196)">
<polyline points="0,0,35,23.799999999999997,35,70,0,46.2,0,0"/>
<polyline points="35,23.799999999999997,70,0,70,46.2,35,70,35,23.799999999999997"/>
</g>
<g fill="#ddd" fill-opacity="0.072" stroke="#000" stroke-opacity="0.02" stroke-width="1" transform="translate(140, 196)">
<polyline points="0,0,35,23.799999999999997,35,70,0,46.2,0,0"/>
<polyline points="35,23.799999999999997,70,0,70,46.2,35,70,35,23.799999999999997"/>
</g>
<g fill="#222" fill-opacity="0.046" stroke="#000" stroke-opacity="0.02" stroke-width="1" transform="translate(210, 196)">
<polyline points="0,0,35,23.799999999999997,35,70,0,46.2,0,0"/>
<polyline points="35,23.799999999999997,70,0,70,46.2,35,70,35,23.799999999999997"/>
</g>
<g fill="#ddd" fill-opacity="0.072" stroke="#000" stroke-opacity="0.02" stroke-width="1" transform="translate(280, 196)">
<polyline points="0,0,35,23.799999999999997,35,70,0,46.2,0,0"/>
<polyline points="35,23.799999999999997,70,0,70,46.2,35,70,35,23.799999999999997"/>
</g>
<g fill="#222" fill-opacity="0.046" stroke="#000" stroke-opacity="0.02" stroke-width="1" transform="translate(350, 196)">
<polyline points="0,0,35,23.799999999999997,35,70,0,46.2,0,0"/>
<polyline points="35,23.799999999999997,70,0,70,46.2,35,70,35,23.799999999999997"/>
</g>
</svg>