<svg height="72" width="72" xmlns="http://www.w3.org/2000/svg">
<rect fill="rgb(83, 44, 29)" height="100%" width="100%" x="0" y="0"/>
<circle cx="6" cy="6" r="5" stroke="#ddd" style="opacity:0.01999999999999999; stroke-width:0x2;"/>
<circle cx="6" cy="6" fill="#222" fill-opacity="0.15" r="2.5"/>
<circle cx="18" cy="6" r="5" stroke="#ddd" style="opacity:0.10666666666666666; stroke-width:0x2;"/>
<circle cx="18" cy="6" fill="#ddd" fill-opacity="0.03733333333333333" r="2.5"/>
<circle cx="30" cy="6" r="5" stroke="#222" style="opacity:0.11533333333333333; stroke-width:0x2;"/>
<circle cx="30" cy="6" fill="#ddd" fill-opacity="0.03733333333333333" r="2.5"/>
<circle cx="42" cy="6" r="5" stroke="#222" style="opacity:0.028666666666666674; stroke-width:0x2;"/>
<circle cx="42" cy="6" fill="#222" fill-opacity="0.046" r="2.5"/>
<circle cx="54" cy="6" r="5" stroke="#222" style="opacity:0.13266666666666665; stroke-width:0x2;"/>
<circle cx="54" cy="6" fill="#222" fill-opacity="0.06333333333333332" r="2.5"/>
<circle cx="66" cy="6" r="5" stroke="#ddd" style="opacity:0.08933333333333333; stroke-width:0x2;"/>
<circle cx="66" cy="6" fill="#ddd" fill-opacity="0.10666666666666666" r="2.5"/>
<circle cx="6" cy="18" r="5" stroke="#222" style="opacity:0.08066666666666666; stroke-width:0x2;"/>
<circle cx="6" cy="18" fill="#ddd" fill-opacity="0.08933333333333333" r="2.5"/>
<circle cx="18" cy="18" r="5" stroke="#222" style="opacity:0.028666666666666674; stroke-width:0x2;"/>
<circle cx="18" cy="18" fill="#ddd" fill-opacity="0.124" r="2.5"/>
<circle cx="30" cy="18" r="5" stroke="#ddd" style="opacity:0.10666666666666666; stroke-width:0x2;"/>
<circle cx="30" cy="18" fill="#222" fill-opacity="0.028666666666666674" r="2.5"/>
<circle cx="42" cy="18" r="5" stroke="#222" style="opacity:0.06333333333333332; stroke-width:0x2;"/>
<circle cx="42" cy="18" fill="#ddd" fill-opacity="0.08933333333333333" r="2.5"/>
<circle cx="54" cy="18" r="5" stroke="#ddd" style="opacity:0.08933333333333333; stroke-width:0x2;"/>
<circle cx="54" cy="18" fill="#ddd" fill-opacity="0.08933333333333333" r="2.5"/>
<circle cx="66" cy="18" r="5" stroke="#ddd" style="opacity:0.072; stroke-width:0x2;"/>
<circle cx="66" cy="18" fill="#222" fill-opacity="0.046" r="2.5"/>
<circle cx="6" cy="30" r="5" stroke="#ddd" style="opacity:0.03733333333333333; stroke-width:0x2;"/>
<circle cx="6" cy="30" fill="#ddd" fill-opacity="0.072" r="2.5"/>
<circle cx="18" cy="30" r="5" stroke="#222" style="opacity:0.11533333333333333; stroke-width:0x2;"/>
<circle cx="18" cy="30" fill="#222" fill-opacity="0.098" r="2.5"/>
<circle cx="30" cy="30" r="5" stroke="#ddd" style="opacity:0.08933333333333333; stroke-width:0x2;"/>
<circle cx="30" cy="30" fill="#222" fill-opacity="0.098" r="2.5"/>
<circle cx="42" cy="30" r="5" stroke="#ddd" style="opacity:0.072; stroke-width:0x2;"/>
<circle cx="42" cy="30" fill="#222" fill-opacity="0.028666666666666674" r="2.5"/>
<circle cx="54" cy="30" r="5" stroke="#222" style="opacity:0.06333333333333332; stroke-width:0x2;"/>
<circle cx="54" cy="30" fill="#ddd" fill-opacity="0.14133333333333334" r="2.5"/>
<circle cx="66" cy="30" r="5" stroke="#ddd" style="opacity:0.05466666666666667; stroke-width:0x2;"/>
<circle cx="66" cy="30" fill="#222" fill-opacity="0.046" r="2.5"/>
<circle cx="6" cy="42" r="5" stroke="#222" style="opacity:0.098; stroke-width:0x2;"/>
<circle cx="6" cy="42" fill="#ddd" fill-opacity="0.124" r="2.5"/>
<circle cx="18" cy="42" r="5" stroke="#ddd" style="opacity:0.08933333333333333; stroke-width:0x2;"/>
<circle cx="18" cy="42" fill="#ddd" fill-opacity="0.124" r="2.5"/>
<circle cx="30" cy="42" r="5" stroke="#ddd" style="opacity:0.124; stroke-width:0x2;"/>
<circle cx="30" cy="42" fill="#ddd" fill-opacity="0.08933333333333333" r="2.5"/>
<circle cx="42" cy="42" r="5" stroke="#ddd" style="opacity:0.124; stroke-width:0x2;"/>
<circle cx="42" cy="42" fill="#222" fill-opacity="0.098" r="2.5"/>
<circle cx="54" cy="42" r="5" stroke="#222" style="opacity:0.046; stroke-width:0x2;"/>
<circle cx="54" cy="42" fill="#ddd" fill-opacity="0.05466666666666667" r="2.5"/>
<circle cx="66" cy="42" r="5" stroke="#ddd" style="opacity:0.14133333333333334; stroke-width:0x2;"/>
<circle cx="66" cy="42" fill="#222" fill-opacity="0.06333333333333332" r="2.5"/>
<circle cx="6" cy="54" r="5" stroke="#222" style="opacity:0.028666666666666674; stroke-width:0x2;"/>
<circle cx="6" cy="54" fill="#ddd" fill-opacity="0.072" r="2.5"/>
<circle cx="18" cy="54" r="5" stroke="#222" style="opacity:0.098; stroke-width:0x2;"/>
<circle cx="18" cy="54" fill="#ddd" fill-opacity="0.08933333333333333" r="2.5"/>
<circle cx="30" cy="54" r="5" stroke="#222" style="opacity:0.098; stroke-width:0x2;"/>
<circle cx="30" cy="54" fill="#222" fill-opacity="0.11533333333333333" r="2.5"/>
<circle cx="42" cy="54" r="5" stroke="#ddd" style="opacity:0.072; stroke-width:0x2;"/>
<circle cx="42" cy="54" fill="#ddd" fill-opacity="0.03733333333333333" r="2.5"/>
<circle cx="54" cy="54" r="5" stroke="#222" style="opacity:0.046; stroke-width:0x2;"/>
<circle cx="54" cy="54" fill="#ddd" fill-opacity="0.072" r="2.5"/>
<circle cx="66" cy="54" r="5" stroke="#ddd" style="opacity:0.08933333333333333; stroke-width:0x2;"/>
<circle cx="66" cy="54" fill="#ddd" fill-opacity="0.08933333333333333" r="2.5"/>
<circle cx="6" cy="66" r="5" stroke="#ddd" style="opacity:0.08933333333333333; stroke-width:0x2;"/>
<circle cx="6" cy="66" fill="#222" fill-opacity="0.06333333333333332" r="2.5"/>
<circle cx="18" cy="66" r="5" stroke="#222" style="opacity:0.028666666666666674; stroke-width:0x2;"/>
<circle cx="18" cy="66" fill="#ddd" fill-opacity="0.10666666666666666" r="2.5"/>
<circle cx="30" cy="66" r="5" stroke="#ddd" style="opacity:0.124; stroke-width:0x2;"/>
<circle cx="30" cy="66" fill="#222" fill-opacity="0.028666666666666674" r="2.5"/>
<circle cx="42" cy="66" r="5" stroke="#ddd" style="opacity:0.08933333333333333; stroke-width:0x2;"/>
<circle cx="42" cy="66" fill="#222" fill-opacity="0.08066666666666666" r="2.5"/>
<circle cx="54" cy="66" r="5" stroke="#ddd" style="opacity:0.10666666666666666; stroke-width:0x2;"/>
<circle cx="54" cy="66" fill="#ddd" fill-opacity="0.08933333333333333" r="2.5"/>
<circle cx="66" cy="66" r="5" stroke="#222" style="opacity:0.06333333333333332; stroke-width:0x2;"/>
<circle cx="66" cy="66" fill="#222" fill-opacity="0.13266666666666665" r="2.5"/>
</svg>