<svg height="78" width="156" xmlns="http://www.w3.org/2000/svg">
<rect fill="rgb(29, 39, 15)" height="100%" width="100%" x="0" y="0"/>
<polyline fill="#ddd" fill-opacity="0.072" points="13,0,26,13,13,26,0,13" stroke="#000" stroke-opacity="0.02" transform="translate(-13, -13)"/>
<polyline fill="#ddd" fill-opacity="0.072" points="13,0,26,13,13,26,0,13" stroke="#000" stroke-opacity="0.02" transform="translate(143, -13)"/>
<polyline fill="#ddd" fill-opacity="0.072" points="13,0,26,13,13,26,0,13" stroke="#000" stroke-opacity="0.02" transform="translate(-13, 65)"/>
<polyline fill="#ddd" fill-opacity="0.072" points="13,0,26,13,13,26,0,13" stroke="#000" stroke-opacity="0.02" transform="translate(143, 65)"/>
<polyline fill="#ddd" fill-opacity="0.072" points="13,0,26,13,13,26,0,13" stroke="#000" stroke-opacity="0.02" transform="translate(13, -13)"/>
<polyline fill="#ddd" fill-opacity="0.072" points="13,0,26,13,13,26,0,13" stroke="#000" stroke-opacity="0.02" transform="translate(13, 65)"/>
<polyline fill="#ddd" fill-opacity="0.10666666666666666" points="13,0,26,13,13,26,0,13" stroke="#000" stroke-opacity="0.02" transform="translate(39, -13)"/>
<polyline fill="#ddd" fill-opacity="0.10666666666666666" points="13,0,26,13,13,26,0,13" stroke="#000" stroke-opacity="0.02" transform="translate(39, 65)"/>
<polyline fill="#ddd" fill-opacity="0.10666666666666666" points="13,0,26,13,13,26,0,13" stroke="#000" stroke-opacity="0.02" transform="translate(65, -13)"/>
<polyline fill="#ddd" fill-opacity="0.10666666666666666" points="13,0,26,13,13,26,0,13" stroke="#000" stroke-opacity="0.02" transform="translate(65, 65)"/>
<polyline fill="#ddd" fill-opacity="0.03733333333333333" points="13,0,26,13,13,26,0,13" stroke="#000" stroke-opacity="0.02" transform="translate(91, -13)"/>
<polyline fill="#ddd" fill-opacity="0.03733333333333333" points="13,0,26,13,13,26,0,13" stroke="#000" stroke-opacity="0.02" transform="translate(91, 65)"/>
<polyline fill="#ddd" fill-opacity="0.124" points="13,0,26,13,13,26,0,13" stroke="#000" stroke-opacity="0.02" transform="translate(117, -13)"/>
<polyline fill="#ddd" fill-opacity="0.124" points="13,0,26,13,13,26,0,13" stroke="#000" stroke-opacity="0.02" transform="translate(117, 65)"/>
<polyline fill="#ddd" fill-opacity="0.03733333333333333" points="13,0,26,13,13,26,0,13" stroke="#000" stroke-opacity="0.02" transform="translate(0, 0)"/>
<polyline fill="#ddd" fill-opacity="0.03733333333333333" points="13,0,26,13,13,26,0,13" stroke="#000" stroke-opacity="0.02" transform="translate(156, 0)"/>
<polyline fill="#222" fill-opacity="0.08066666666666666" points="13,0,26,13,13,26,0,13" stroke="#000" stroke-opacity="0.02" transform="translate(26, 0)"/>
<polyline fill="#ddd" fill-opacity="0.08933333333333333" points="13,0,26,13,13,26,0,13" stroke="#000" stroke-opacity="0.02" transform="translate(52, 0)"/>
<polyline fill="#ddd" fill-opacity="0.124" points="13,0,26,13,13,26,0,13" stroke="#000" stroke-opacity="0.02" transform="translate(78, 0)"/>
<polyline fill="#ddd" fill-opacity="0.124" points="13,0,26,13,13,26,0,13" stroke="#000" stroke-opacity="0.02" transform="translate(104, 0)"/>
<polyline fill="#222" fill-opacity="0.098" points="13,0,26,13,13,26,0,13" stroke="#000" stroke-opacity="0.02" transform="translate(130, 0)"/>
<polyline fill="#222" fill-opacity="0.098" points="13,0,26,13,13,26,0,13" stroke="#000" stroke-opacity="0.02" transform="translate(-13, 13)"/>
<polyline fill="#222" fill-opacity="0.098" points="13,0,26,13,13,26,0,13" stroke="#000" stroke-opacity="0.02" transform="translate(143, 13)"/>
<polyline fill="#222" fill-opacity="0.11533333333333333" points="13,0,26,13,13,26,0,13" stroke="#000" stroke-opacity="0.02" transform="translate(13, 13)"/>
<polyline fill="#ddd" fill-opacity="0.072" points="13,0,26,13,13,26,0,13" stroke="#000" stroke-opacity="0.02" transform="translate(39, 13)"/>
<polyline fill="#222" fill-opacity="0.098" points="13,0,26,13,13,26,0,13" stroke="#000" stroke-opacity="0.02" transform="translate(65, 13)"/>
<polyline fill="#ddd" fill-opacity="0.08933333333333333" points="13,0,26,13,13,26,0,13" stroke="#000" stroke-opacity="0.02" transform="translate(91, 13)"/>
<polyline fill="#ddd" fill-opacity="0.01999999999999999" points="13,0,26,13,13,26,0,13" stroke="#000" stroke-opacity="0.02" transform="translate(117, 13)"/>
<polyline fill="#ddd" fill-opacity="0.03733333333333333" points="13,0,26,13,13,26,0,13" stroke="#000" stroke-opacity="0.02" transform="translate(0, 26)"/>
<polyline fill="#ddd" fill-opacity="0.03733333333333333" points="13,0,26,13,13,26,0,13" stroke="#000" stroke-opacity="0.02" transform="translate(156, 26)"/>
<polyline fill="#ddd" fill-opacity="0.10666666666666666" points="13,0,26,13,13,26,0,13" stroke="#000" stroke-opacity="0.02" transform="translate(26, 26)"/>
<polyline fill="#222" fill-opacity="0.06333333333333332" points="13,0,26,13,13,26,0,13" stroke="#000" stroke-opacity="0.02" transform="translate(52, 26)"/>
<polyline fill="#ddd" fill-opacity="0.08933333333333333" points="13,0,26,13,13,26,0,13" stroke="#000" stroke-opacity="0.02" transform="translate(78, 26)"/>
<polyline fill="#ddd" fill-opacity="0.01999999999999999" points="13,0,26,13,13,26,0,13" stroke="#000" stroke-opacity="0.02" transform="translate(104, 26)"/>
<polyline fill="#222" fill-opacity="0.15" points="13,0,26,13,13,26,0,13" stroke="#000" stroke-opacity="0.02" transform="translate(130, 26)"/>
<polyline fill="#ddd" fill-opacity="0.10666666666666666" points="13,0,26,13,13,26,0,13" stroke="#000" stroke-opacity="0.02" transform="translate(-13, 39)"/>
<polyline fill="#ddd" fill-opacity="0.10666666666666666" points="13,0,26,13,13,26,0,13" stroke="#000" stroke-opacity="0.02" transform="translate(143, 39)"/>
<polyline fill="#ddd" fill-opacity="0.124" points="13,0,26,13,13,26,0,13" stroke="#000" stroke-opacity="0.02" transform="translate(13, 39)"/>
<polyline fill="#ddd" fill-opacity="0.08933333333333333" points="13,0,26,13,13,26,0,13" stroke="#000" stroke-opacity="0.02" transform="translate(39, 39)"/>
<polyline fill="#ddd" fill-opacity="0.01999999999999999" points="13,0,26,13,13,26,0,13" stroke="#000" stroke-opacity="0.02" transform="translate(65, 39)"/>
<polyline fill="#222" fill-opacity="0.11533333333333333" points="13,0,26,13,13,26,0,13" stroke="#000" stroke-opacity="0.02" transform="translate(91, 39)"/>
<polyline fill="#ddd" fill-opacity="0.03733333333333333" points="13,0,26,13,13,26,0,13" stroke="#000" stroke-opacity="0.02" transform="translate(117, 39)"/>
<polyline fill="#ddd" fill-opacity="0.14133333333333334" points="13,0,26,13,13,26,0,13" stroke="#000" stroke-opacity="0.02" transform="translate(0, 52)"/>
<polyline fill="#ddd" fill-opacity="0.14133333333333334" points="13,0,26,13,13,26,0,13" stroke="#000" stroke-opacity="0.02" transform="translate(156, 52)"/>
<polyline fill="#222" fill-opacity="0.028666666666666674" points="13,0,26,13,13,26,0,13" stroke="#000" stroke-opacity="0.02" transform="translate(26, 52)"/>
<polyline fill="#222" fill-opacity="0.13266666666666665" points="13,0,26,13,13,26,0,13" stroke="#000" stroke-opacity="0.02" transform="translate(52, 52)"/>
<polyline fill="#ddd" fill-opacity="0.08933333333333333" points="13,0,26,13,13,26,0,13" stroke="#000" stroke-opacity="0.02" transform="translate(78, 52)"/>
<polyline fill="#222" fill-opacity="0.046" points="13,0,26,13,13,26,0,13" stroke="#000" stroke-opacity="0.02" transform="translate(104, 52)"/>
<polyline fill="#ddd" fill-opacity="0.14133333333333334" points="13,0,26,13,13,26,0,13" stroke="#000" stroke-opacity="0.02" transform="translate(130, 52)"/>
</svg>