<svg height="239.7158317675326" width="415.20000000000005" xmlns="http://www.w3.org/2000/svg">
<rect fill="rgb(131, 51, 168)" height="100%" width="100%" x="0" y="0"/>
<polyline fill="#222" fill-opacity="0.11533333333333333" points="0,39.9526386279221,23.066666666666666,0,69.2,0,92.26666666666667,39.9526386279221,69.2,79.9052772558442,23.066666666666666,79.9052772558442,0,39.9526386279221" stroke="#000" stroke-opacity="0.02" transform="translate(-46.13333333333333, -39.9526386279221)"/>
<polyline fill="#222" fill-opacity="0.11533333333333333" points="0,39.9526386279221,23.066666666666666,0,69.2,0,92.26666666666667,39.9526386279221,69.2,79.9052772558442,23.066666666666666,79.9052772558442,0,39.9526386279221" stroke="#000" stroke-opacity="0.02" transform="translate(369.0666666666667, -39.9526386279221)"/>
<polyline fill="#222" fill-opacity="0.11533333333333333" points="0,39.9526386279221,23.066666666666666,0,69.2,0,92.26666666666667,39.9526386279221,69.2,79.9052772558442,23.066666666666666,79.9052772558442,0,39.9526386279221" stroke="#000" stroke-opacity="0.02" transform="translate(-46.13333333333333, 439.47902490714307)"/>
<polyline fill="#222" fill-opacity="0.11533333333333333" points="0,39.9526386279221,23.066666666666666,0,69.2,0,92.26666666666667,39.9526386279221,69.2,79.9052772558442,23.066666666666666,79.9052772558442,0,39.9526386279221" stroke="#000" stroke-opacity="0.02" transform="translate(369.0666666666667, 439.4790249071431)"/>
<polyline fill="#222" fill-opacity="0.13266666666666665" points="0,39.9526386279221,23.066666666666666,0,69.2,0,92.26666666666667,39.9526386279221,69.2,79.9052772558442,23.066666666666666,79.9052772558442,0,39.9526386279221" stroke="#000" stroke-opacity="0.02" transform="translate(23.06666666666667, 0)"/>
<polyline fill="#222" fill-opacity="0.13266666666666665" points="0,39.9526386279221,23.066666666666666,0,69.2,0,92.26666666666667,39.9526386279221,69.2,79.9052772558442,23.066666666666666,79.9052772558442,0,39.9526386279221" stroke="#000" stroke-opacity="0.02" transform="translate(23.06666666666667, 479.4316635350652)"/>
<polyline fill="#ddd" fill-opacity="0.072" points="0,39.9526386279221,23.066666666666666,0,69.2,0,92.26666666666667,39.9526386279221,69.2,79.9052772558442,23.066666666666666,79.9052772558442,0,39.9526386279221" stroke="#000" stroke-opacity="0.02" transform="translate(92.26666666666668, -39.9526386279221)"/>
<polyline fill="#ddd" fill-opacity="0.072" points="0,39.9526386279221,23.066666666666666,0,69.2,0,92.26666666666667,39.9526386279221,69.2,79.9052772558442,23.066666666666666,79.9052772558442,0,39.9526386279221" stroke="#000" stroke-opacity="0.02" transform="translate(92.26666666666668, 439.47902490714307)"/>
<polyline fill="#ddd" fill-opacity="0.05466666666666667" points="0,39.9526386279221,23.066666666666666,0,69.2,0,92.26666666666667,39.9526386279221,69.2,79.9052772558442,23.066666666666666,79.9052772558442,0,39.9526386279221" stroke="#000" stroke-opacity="0.02" transform="translate(161.4666666666667, 0)"/>
<polyline fill="#ddd" fill-opacity="0.05466666666666667" points="0,39.9526386279221,23.066666666666666,0,69.2,0,92.26666666666667,39.9526386279221,69.2,79.9052772558442,23.066666666666666,79.9052772558442,0,39.9526386279221" stroke="#000" stroke-opacity="0.02" transform="translate(161.4666666666667, 479.4316635350652)"/>
<polyline fill="#ddd" fill-opacity="0.124" points="0,39.9526386279221,23.066666666666666,0,69.2,0,92.26666666666667,39.9526386279221,69.2,79.9052772558442,23.066666666666666,79.9052772558442,0,39.9526386279221" stroke="#000" stroke-opacity="0.02" transform="translate(230.66666666666669, -39.9526386279221)"/>
<polyline fill="#ddd" fill-opacity="0.124" points="0,39.9526386279221,23.066666666666666,0,69.2,0,92.26666666666667,39.9526386279221,69.2,79.9052772558442,23.066666666666666,79.9052772558442,0,39.9526386279221" stroke="#000" stroke-opacity="0.02" transform="translate(230.66666666666669, 439.47902490714307)"/>
<polyline fill="#222" fill-opacity="0.046" points="0,39.9526386279221,23.066666666666666,0,69.2,0,92.26666666666667,39.9526386279221,69.2,79.9052772558442,23.066666666666666,79.9052772558442,0,39.9526386279221" stroke="#000" stroke-opacity="0.02" transform="translate(299.8666666666667, 0)"/>
<polyline fill="#222" fill-opacity="0.046" points="0,39.9526386279221,23.066666666666666,0,69.2,0,92.26666666666667,39.9526386279221,69.2,79.9052772558442,23.066666666666666,79.9052772558442,0,39.9526386279221" stroke="#000" stroke-opacity="0.02" transform="translate(299.8666666666667, 479.4316635350652)"/>
<polyline fill="#ddd" fill-opacity="0.14133333333333334" points="0,39.9526386279221,23.066666666666666,0,69.2,0,92.26666666666667,39.9526386279221,69.2,79.9052772558442,23.066666666666666,79.9052772558442,0,39.9526386279221" stroke="#000" stroke-opacity="0.02" transform="translate(-46.13333333333333, 39.9526386279221)"/>
<polyline fill="#ddd" fill-opacity="0.14133333333333334" points="0,39.9526386279221,23.066666666666666,0,69.2,0,92.26666666666667,39.9526386279221,69.2,79.9052772558442,23.066666666666666,79.9052772558442,0,39.9526386279221" stroke="#000" stroke-opacity="0.02" transform="translate(369.0666666666667, 39.9526386279221)"/>
<polyline fill="#222" fill-opacity="0.15" points="0,39.9526386279221,23.066666666666666,0,69.2,0,92.26666666666667,39.9526386279221,69.2,79.9052772558442,23.066666666666666,79.9052772558442,0,39.9526386279221" stroke="#000" stroke-opacity="0.02" transform="translate(23.06666666666667, 79.9052772558442)"/>
<polyline fill="#ddd" fill-opacity="0.05466666666666667" points="0,39.9526386279221,23.066666666666666,0,69.2,0,92.26666666666667,39.9526386279221,69.2,79.9052772558442,23.066666666666666,79.9052772558442,0,39.9526386279221" stroke="#000" stroke-opacity="0.02" transform="translate(92.26666666666668, 39.9526386279221)"/>
<polyline fill="#ddd" fill-opacity="0.072" points="0,39.9526386279221,23.066666666666666,0,69.2,0,92.26666666666667,39.9526386279221,69.2,79.9052772558442,23.066666666666666,79.9052772558442,0,39.9526386279221" stroke="#000" stroke-opacity="0.02" transform="translate(161.4666666666667, 79.9052772558442)"/>
<polyline fill="#222" fill-opacity="0.11533333333333333" points="0,39.9526386279221,23.066666666666666,0,69.2,0,92.26666666666667,39.9526386279221,69.2,79.9052772558442,23.066666666666666,79.9052772558442,0,39.9526386279221" stroke="#000" stroke-opacity="0.02" transform="translate(230.66666666666669, 39.9526386279221)"/>
<polyline fill="#222" fill-opacity="0.028666666666666674" points="0,39.9526386279221,23.066666666666666,0,69.2,0,92.26666666666667,39.9526386279221,69.2,79.9052772558442,23.066666666666666,79.9052772558442,0,39.9526386279221" stroke="#000" stroke-opacity="0.02" transform="translate(299.8666666666667, 79.9052772558442)"/>
<polyline fill="#ddd" fill-opacity="0.08933333333333333" points="0,39.9526386279221,23.066666666666666,0,69.2,0,92.26666666666667,39.9526386279221,69.2,79.9052772558442,23.066666666666666,79.9052772558442,0,39.9526386279221" stroke="#000" stroke-opacity="0.02" transform="translate(-46.13333333333333, 119.8579158837663)"/>
<polyline fill="#ddd" fill-opacity="0.08933333333333333" points="0,39.9526386279221,23.066666666666666,0,69.2,0,92.26666666666667,39.9526386279221,69.2,79.9052772558442,23.066666666666666,79.9052772558442,0,39.9526386279221" stroke="#000" stroke-opacity="0.02" transform="translate(369.0666666666667, 119.8579158837663)"/>
<polyline fill="#ddd" fill-opacity="0.124" points="0,39.9526386279221,23.066666666666666,0,69.2,0,92.26666666666667,39.9526386279221,69.2,79.9052772558442,23.066666666666666,79.9052772558442,0,39.9526386279221" stroke="#000" stroke-opacity="0.02" transform="translate(23.06666666666667, 159.8105545116884)"/>
<polyline fill="#222" fill-opacity="0.11533333333333333" points="0,39.9526386279221,23.066666666666666,0,69.2,0,92.26666666666667,39.9526386279221,69.2,79.9052772558442,23.066666666666666,79.9052772558442,0,39.9526386279221" stroke="#000" stroke-opacity="0.02" transform="translate(92.26666666666668, 119.8579158837663)"/>
<polyline fill="#ddd" fill-opacity="0.14133333333333334" points="0,39.9526386279221,23.066666666666666,0,69.2,0,92.26666666666667,39.9526386279221,69.2,79.9052772558442,23.066666666666666,79.9052772558442,0,39.9526386279221" stroke="#000" stroke-opacity="0.02" transform="translate(161.4666666666667, 159.8105545116884)"/>
<polyline fill="#ddd" fill-opacity="0.124" points="0,39.9526386279221,23.066666666666666,0,69.2,0,92.26666666666667,39.9526386279221,69.2,79.9052772558442,23.066666666666666,79.9052772558442,0,39.9526386279221" stroke="#000" stroke-opacity="0.02" transform="translate(230.66666666666669, 119.8579158837663)"/>
<polyline fill="#ddd" fill-opacity="0.14133333333333334" points="0,39.9526386279221,23.066666666666666,0,69.2,0,92.26666666666667,39.9526386279221,69.2,79.9052772558442,23.066666666666666,79.9052772558442,0,39.9526386279221" stroke="#000" stroke-opacity="0.02" transform="translate(299.8666666666667, 159.8105545116884)"/>
<polyline fill="#222" fill-opacity="0.15" points="0,39.9526386279221,23.066666666666666,0,69.2,0,92.26666666666667,39.9526386279221,69.2,79.9052772558442,23.066666666666666,79.9052772558442,0,39.9526386279221" stroke="#000" stroke-opacity="0.02" transform="translate(-46.13333333333333, 199.7631931396105)"/>
<polyline fill="#222" fill-opacity="0.15" points="0,39.9526386279221,23.066666666666666,0,69.2,0,92.26666666666667,39.9526386279221,69.2,79.9052772558442,23.066666666666666,79.9052772558442,0,39.9526386279221" stroke="#000" stroke-opacity="0.02" transform="translate(369.0666666666667, 199.7631931396105)"/>
<polyline fill="#ddd" fill-opacity="0.08933333333333333" points="0,39.9526386279221,23.066666666666666,0,69.2,0,92.26666666666667,39.9526386279221,69.2,79.9052772558442,23.066666666666666,79.9052772558442,0,39.9526386279221" stroke="#000" stroke-opacity="0.02" transform="translate(23.06666666666667, 239.71583176753256)"/>
<polyline fill="#ddd" fill-opacity="0.05466666666666667" points="0,39.9526386279221,23.066666666666666,0,69.2,0,92.26666666666667,39.9526386279221,69.2,79.9052772558442,23.066666666666666,79.9052772558442,0,39.9526386279221" stroke="#000" stroke-opacity="0.02" transform="translate(92.26666666666668, 199.7631931396105)"/>
<polyline fill="#222" fill-opacity="0.028666666666666674" points="0,39.9526386279221,23.066666666666666,0,69.2,0,92.26666666666667,39.9526386279221,69.2,79.9052772558442,23.066666666666666,79.9052772558442,0,39.9526386279221" stroke="#000" stroke-opacity="0.02" transform="translate(161.4666666666667, 239.71583176753256)"/>
<polyline fill="#222" fill-opacity="0.11533333333333333" points="0,39.9526386279221,23.066666666666666,0,69.2,0,92.26666666666667,39.9526386279221,69.2,79.9052772558442,23.066666666666666,79.9052772558442,0,39.9526386279221" stroke="#000" stroke-opacity="0.02" transform="translate(230.66666666666669, 199.7631931396105)"/>
<polyline fill="#222" fill-opacity="0.028666666666666674" points="0,39.9526386279221,23.066666666666666,0,69.2,0,92.26666666666667,39.9526386279221,69.2,79.9052772558442,23.066666666666666,79.9052772558442,0,39.9526386279221" stroke="#000" stroke-opacity="0.02" transform="translate(299.8666666666667, 239.71583176753256)"/>
<polyline fill="#222" fill-opacity="0.046" points="0,39.9526386279221,23.066666666666666,0,69.2,0,92.26666666666667,39.9526386279221,69.2,79.9052772558442,23.066666666666666,79.9052772558442,0,39.9526386279221" stroke="#000" stroke-opacity="0.02" transform="translate(-46.13333333333333, 279.6684703954547)"/>
<polyline fill="#222" fill-opacity="0.046" points="0,39.9526386279221,23.066666666666666,0,69.2,0,92.26666666666667,39.9526386279221,69.2,79.9052772558442,23.066666666666666,79.9052772558442,0,39.9526386279221" stroke="#000" stroke-opacity="0.02" transform="translate(369.0666666666667, 279.6684703954547)"/>
<polyline fill="#222" fill-opacity="0.13266666666666665" points="0,39.9526386279221,23.066666666666666,0,69.2,0,92.26666666666667,39.9526386279221,69.2,79.9052772558442,23.066666666666666,79.9052772558442,0,39.9526386279221" stroke="#000" stroke-opacity="0.02" transform="translate(23.06666666666667, 319.6211090233768)"/>
<polyline fill="#222" fill-opacity="0.08066666666666666" points="0,39.9526386279221,23.066666666666666,0,69.2,0,92.26666666666667,39.9526386279221,69.2,79.9052772558442,23.066666666666666,79.9052772558442,0,39.9526386279221" stroke="#000" stroke-opacity="0.02" transform="translate(92.26666666666668, 279.6684703954547)"/>
<polyline fill="#ddd" fill-opacity="0.072" points="0,39.9526386279221,23.066666666666666,0,69.2,0,92.26666666666667,39.9526386279221,69.2,79.9052772558442,23.066666666666666,79.9052772558442,0,39.9526386279221" stroke="#000" stroke-opacity="0.02" transform="translate(161.4666666666667, 319.6211090233768)"/>
<polyline fill="#222" fill-opacity="0.08066666666666666" points="0,39.9526386279221,23.066666666666666,0,69.2,0,92.26666666666667,39.9526386279221,69.2,79.9052772558442,23.066666666666666,79.9052772558442,0,39.9526386279221" stroke="#000" stroke-opacity="0.02" transform="translate(230.66666666666669, 279.6684703954547)"/>
<polyline fill="#ddd" fill-opacity="0.01999999999999999" points="0,39.9526386279221,23.066666666666666,0,69.2,0,92.26666666666667,39.9526386279221,69.2,79.9052772558442,23.066666666666666,79.9052772558442,0,39.9526386279221" stroke="#000" stroke-opacity="0.02" transform="translate(299.8666666666667, 319.6211090233768)"/>
<polyline fill="#ddd" fill-opacity="0.14133333333333334" points="0,39.9526386279221,23.066666666666666,0,69.2,0,92.26666666666667,39.9526386279221,69.2,79.9052772558442,23.066666666666666,79.9052772558442,0,39.9526386279221" stroke="#000" stroke-opacity="0.02" transform="translate(-46.13333333333333, 359.5737476512989)"/>
<polyline fill="#ddd" fill-opacity="0.14133333333333334" points="0,39.9526386279221,23.066666666666666,0,69.2,0,92.26666666666667,39.9526386279221,69.2,79.9052772558442,23.066666666666666,79.9052772558442,0,39.9526386279221" stroke="#000" stroke-opacity="0.02" transform="translate(369.0666666666667, 359.5737476512989)"/>
<polyline fill="#222" fill-opacity="0.06333333333333332" points="0,39.9526386279221,23.066666666666666,0,69.2,0,92.26666666666667,39.9526386279221,69.2,79.9052772558442,23.066666666666666,79.9052772558442,0,39.9526386279221" stroke="#000" stroke-opacity="0.02" transform="translate(23.06666666666667, 399.526386279221)"/>
<polyline fill="#ddd" fill-opacity="0.05466666666666667" points="0,39.9526386279221,23.066666666666666,0,69.2,0,92.26666666666667,39.9526386279221,69.2,79.9052772558442,23.066666666666666,79.9052772558442,0,39.9526386279221" stroke="#000" stroke-opacity="0.02" transform="translate(92.26666666666668, 359.5737476512989)"/>
<polyline fill="#222" fill-opacity="0.098" points="0,39.9526386279221,23.066666666666666,0,69.2,0,92.26666666666667,39.9526386279221,69.2,79.9052772558442,23.066666666666666,79.9052772558442,0,39.9526386279221" stroke="#000" stroke-opacity="0.02" transform="translate(161.4666666666667, 399.526386279221)"/>
<polyline fill="#222" fill-opacity="0.08066666666666666" points="0,39.9526386279221,23.066666666666666,0,69.2,0,92.26666666666667,39.9526386279221,69.2,79.9052772558442,23.066666666666666,79.9052772558442,0,39.9526386279221" stroke="#000" stroke-opacity="0.02" transform="translate(230.66666666666669, 359.5737476512989)"/>
<polyline fill="#222" fill-opacity="0.08066666666666666" points="0,39.9526386279221,23.066666666666666,0,69.2,0,92.26666666666667,39.9526386279221,69.2,79.9052772558442,23.066666666666666,79.9052772558442,0,39.9526386279221" stroke="#000" stroke-opacity="0.02" transform="translate(299.8666666666667, 399.526386279221)"/>
</svg>