<svg height="362.6666666666667" width="362.6666666666667" xmlns="http://www.w3.org/2000/svg">
<rect fill="rgb(215, 45, 82)" height="100%" width="100%" x="0" y="0"/>
<polyline fill="#222" fill-opacity="0.13266666666666665" points="0,0,45.333333333333336,45.333333333333336,0,45.333333333333336,0,0" stroke="#000" stroke-opacity="0.02" transform="translate(0, 45.333333333333336) scale(1, -1)"/>
<polyline fill="#222" fill-opacity="0.13266666666666665" points="0,0,45.333333333333336,45.333333333333336,0,45.333333333333336,0,0" stroke="#000" stroke-opacity="0.02" transform="translate(90.66666666666667, 45.333333333333336) scale(-1, -1)"/>
<polyline fill="#222" fill-opacity="0.13266666666666665" points="0,0,45.333333333333336,45.333333333333336,0,45.333333333333336,0,0" stroke="#000" stroke-opacity="0.02" transform="translate(0, 45.333333333333336) scale(1, 1)"/>
<polyline fill="#222" fill-opacity="0.13266666666666665" points="0,0,45.333333333333336,45.333333333333336,0,45.333333333333336,0,0" stroke="#000" stroke-opacity="0.02" transform="translate(90.66666666666667, 45.333333333333336) scale(-1, 1)"/>
<polyline fill="#ddd" fill-opacity="0.14133333333333334" points="0,0,45.333333333333336,45.333333333333336,0,45.333333333333336,0,0" stroke="#000" stroke-opacity="0.02" transform="translate(136, 0) scale(-1, 1)"/>
<polyline fill="#ddd" fill-opacity="0.14133333333333334" points="0,0,45.333333333333336,45.333333333333336,0,45.333333333333336,0,0" stroke="#000" stroke-opacity="0.02" transform="translate(136, 90.66666666666667) scale(1, -1)"/>
<polyline fill="#222" fill-opacity="0.08066666666666666" points="0,0,45.333333333333336,45.333333333333336,0,45.333333333333336,0,0" stroke="#000" stroke-opacity="0.02" transform="translate(136, 90.66666666666667) scale(-1, -1)"/>
<polyline fill="#222" fill-opacity="0.08066666666666666" points="0,0,45.333333333333336,45.333333333333336,0,45.333333333333336,0,0" stroke="#000" stroke-opacity="0.02" transform="translate(136, 0) scale(1, 1)"/>
<polyline fill="#222" fill-opacity="0.08066666666666666" points="0,0,45.333333333333336,45.333333333333336,0,45.333333333333336,0,0" stroke="#000" stroke-opacity="0.02" transform="translate(181.33333333333334, 45.333333333333336) scale(1, -1)"/>
<polyline fill="#222" fill-opacity="0.08066666666666666" points="0,0,45.333333333333336,45.333333333333336,0,45.333333333333336,0,0" stroke="#000" stroke-opacity="0.02" transform="translate(272, 45.333333333333336) scale(-1, -1)"/>
<polyline fill="#222" fill-opacity="0.08066666666666666" points="0,0,45.333333333333336,45.333333333333336,0,45.333333333333336,0,0" stroke="#000" stroke-opacity="0.02" transform="translate(181.33333333333334, 45.333333333333336) scale(1, 1)"/>
<polyline fill="#222" fill-opacity="0.08066666666666666" points="0,0,45.333333333333336,45.333333333333336,0,45.333333333333336,0,0" stroke="#000" stroke-opacity="0.02" transform="translate(272, 45.333333333333336) scale(-1, 1)"/>
<polyline fill="#ddd" fill-opacity="0.01999999999999999" points="0,0,45.333333333333336,45.333333333333336,0,45.333333333333336,0,0" stroke="#000" stroke-opacity="0.02" transform="translate(317.3333333333333, 0) scale(-1, 1)"/>
<polyline fill="#ddd" fill-opacity="0.01999999999999999" points="0,0,45.333333333333336,45.333333333333336,0,45.333333333333336,0,0" stroke="#000" stroke-opacity="0.02" transform="translate(317.3333333333333, 90.66666666666667) scale(1, -1)"/>
<polyline fill="#222" fill-opacity="0.046" points="0,0,45.333333333333336,45.333333333333336,0,45.333333333333336,0,0" stroke="#000" stroke-opacity="0.02" transform="translate(317.3333333333333, 90.66666666666667) scale(-1, -1)"/>
<polyline fill="#222" fill-opacity="0.046" points="0,0,45.333333333333336,45.333333333333336,0,45.333333333333336,0,0" stroke="#000" stroke-opacity="0.02" transform="translate(317.3333333333333, 0) scale(1, 1)"/>
<polyline fill="#222" fill-opacity="0.046" points="0,0,45.333333333333336,45.333333333333336,0,45.333333333333336,0,0" stroke="#000" stroke-opacity="0.02" transform="translate(45.333333333333336, 90.66666666666667) scale(-1, 1)"/>
<polyline fill="#222" fill-opacity="0.046" points="0,0,45.333333333333336,45.333333333333336,0,45.333333333333336,0,0" stroke="#000" stroke-opacity="0.02" transform="translate(45.333333333333336, 181.33333333333334) scale(1, -1)"/>
<polyline fill="#222" fill-opacity="0.06333333333333332" points="0,0,45.333333333333336,45.333333333333336,0,45.333333333333336,0,0" stroke="#000" stroke-opacity="0.02" transform="translate(45.333333333333336, 181.33333333333334) scale(-1, -1)"/>
<polyline fill="#222" fill-opacity="0.06333333333333332" points="0,0,45.333333333333336,45.333333333333336,0,45.333333333333336,0,0" stroke="#000" stroke-opacity="0.02" transform="translate(45.333333333333336, 90.66666666666667) scale(1, 1)"/>
<polyline fill="#222" fill-opacity="0.06333333333333332" points="0,0,45.333333333333336,45.333333333333336,0,45.333333333333336,0,0" stroke="#000" stroke-opacity="0.02" transform="translate(90.66666666666667, 136) scale(1, -1)"/>
<polyline fill="#222" fill-opacity="0.06333333333333332" points="0,0,45.333333333333336,45.333333333333336,0,45.333333333333336,0,0" stroke="#000" stroke-opacity="0.02" transform="translate(181.33333333333334, 136) scale(-1, -1)"/>
<polyline fill="#222" fill-opacity="0.06333333333333332" points="0,0,45.333333333333336,45.333333333333336,0,45.333333333333336,0,0" stroke="#000" stroke-opacity="0.02" transform="translate(90.66666666666667, 136) scale(1, 1)"/>
<polyline fill="#222" fill-opacity="0.06333333333333332" points="0,0,45.333333333333336,45.333333333333336,0,45.333333333333336,0,0" stroke="#000" stroke-opacity="0.02" transform="translate(181.33333333333334, 136) scale(-1, 1)"/>
<polyline fill="#ddd" fill-opacity="0.072" points="0,0,45.333333333333336,45.333333333333336,0,45.333333333333336,0,0" stroke="#000" stroke-opacity="0.02" transform="translate(226.66666666666669, 90.66666666666667) scale(-1, 1)"/>
<polyline fill="#ddd" fill-opacity="0.072" points="0,0,45.333333333333336,45.333333333333336,0,45.333333333333336,0,0" stroke="#000" stroke-opacity="0.02" transform="translate(226.66666666666669, 181.33333333333334) scale(1, -1)"/>
<polyline fill="#222" fill-opacity="0.046" points="0,0,45.333333333333336,45.333333333333336,0,45.333333333333336,0,0" stroke="#000" stroke-opacity="0.02" transform="translate(226.66666666666669, 181.33333333333334) scale(-1, -1)"/>
<polyline fill="#222" fill-opacity="0.046" points="0,0,45.333333333333336,45.333333333333336,0,45.333333333333336,0,0" stroke="#000" stroke-opacity="0.02" transform="translate(226.66666666666669, 90.66666666666667) scale(1, 1)"/>
<polyline fill="#222" fill-opacity="0.046" points="0,0,45.333333333333336,45.333333333333336,0,45.333333333333336,0,0" stroke="#000" stroke-opacity="0.02" transform="translate(272, 136) scale(1, -1)"/>
<polyline fill="#222" fill-opacity="0.046" points="0,0,45.333333333333336,45.333333333333336,0,45.333333333333336,0,0" stroke="#000" stroke-opacity="0.02" transform="translate(362.6666666666667, 136) scale(-1, -1)"/>
<polyline fill="#222" fill-opacity="0.046" points="0,0,45.333333333333336,45.333333333333336,0,45.333333333333336,0,0" stroke="#000" stroke-opacity="0.02" transform="translate(272, 136) scale(1, 1)"/>
<polyline fill="#222" fill-opacity="0.046" points="0,0,45.333333333333336,45.333333333333336,0,45.333333333333336,0,0" stroke="#000" stroke-opacity="0.02" transform="translate(362.6666666666667, 136) scale(-1, 1)"/>
<polyline fill="#ddd" fill-opacity="0.05466666666666667" points="0,0,45.333333333333336,45.333333333333336,0,45.333333333333336,0,0" stroke="#000" stroke-opacity="0.02" transform="translate(0, 226.66666666666669) scale(1, -1)"/>
<polyline fill="#ddd" fill-opacity="0.05466666666666667" points="0,0,45.333333333333336,45.333333333333336,0,45.333333333333336,0,0" stroke="#000" stroke-opacity="0.02" transform="translate(90.66666666666667, 226.66666666666669) scale(-1, -1)"/>
<polyline fill="#ddd" fill-opacity="0.05466666666666667" points="0,0,45.333333333333336,45.333333333333336,0,45.333333333333336,0,0" stroke="#000" stroke-opacity="0.02" transform="translate(0, 226.66666666666669) scale(1, 1)"/>
<polyline fill="#ddd" fill-opacity="0.05466666666666667" points="0,0,45.333333333333336,45.333333333333336,0,45.333333333333336,0,0" stroke="#000" stroke-opacity="0.02" transform="translate(90.66666666666667, 226.66666666666669) scale(-1, 1)"/>
<polyline fill="#ddd" fill-opacity="0.124" points="0,0,45.333333333333336,45.333333333333336,0,45.333333333333336,0,0" stroke="#000" stroke-opacity="0.02" transform="translate(136, 181.33333333333334) scale(-1, 1)"/>
<polyline fill="#ddd" fill-opacity="0.124" points="0,0,45.333333333333336,45.333333333333336,0,45.333333333333336,0,0" stroke="#000" stroke-opacity="0.02" transform="translate(136, 272) scale(1, -1)"/>
<polyline fill="#ddd" fill-opacity="0.10666666666666666" points="0,0,45.333333333333336,45.333333333333336,0,45.333333333333336,0,0" stroke="#000" stroke-opacity="0.02" transform="translate(136, 272) scale(-1, -1)"/>
<polyline fill="#ddd" fill-opacity="0.10666666666666666" points="0,0,45.333333333333336,45.333333333333336,0,45.333333333333336,0,0" stroke="#000" stroke-opacity="0.02" transform="translate(136, 181.33333333333334) scale(1, 1)"/>
<polyline fill="#ddd" fill-opacity="0.10666666666666666" points="0,0,45.333333333333336,45.333333333333336,0,45.333333333333336,0,0" stroke="#000" stroke-opacity="0.02" transform="translate(181.33333333333334, 226.66666666666669) scale(1, -1)"/>
<polyline fill="#ddd" fill-opacity="0.10666666666666666" points="0,0,45.333333333333336,45.333333333333336,0,45.333333333333336,0,0" stroke="#000" stroke-opacity="0.02" transform="translate(272, 226.66666666666669) scale(-1, -1)"/>
<polyline fill="#ddd" fill-opacity="0.10666666666666666" points="0,0,45.333333333333336,45.333333333333336,0,45.333333333333336,0,0" stroke="#000" stroke-opacity="0.02" transform="translate(181.33333333333334, 226.66666666666669) scale(1, 1)"/>
<polyline fill="#ddd" fill-opacity="0.10666666666666666" points="0,0,45.333333333333336,45.333333333333336,0,45.333333333333336,0,0" stroke="#000" stroke-opacity="0.02" transform="translate(272, 226.66666666666669) scale(-1, 1)"/>
<polyline fill="#222" fill-opacity="0.098" points="0,0,45.333333333333336,45.333333333333336,0,45.333333333333336,0,0" stroke="#000" stroke-opacity="0.02" transform="translate(317.3333333333333, 181.33333333333334) scale(-1, 1)"/>
<polyline fill="#222" fill-opacity="0.098" points="0,0,45.333333333333336,45.333333333333336,0,45.333333333333336,0,0" stroke="#000" stroke-opacity="0.02" transform="translate(317.3333333333333, 272) scale(1, -1)"/>
<polyline fill="#222" fill-opacity="0.15" points="0,0,45.333333333333336,45.333333333333336,0,45.333333333333336,0,0" stroke="#000" stroke-opacity="0.02" transform="translate(317.3333333333333, 272) scale(-1, -1)"/>
<polyline fill="#222" fill-opacity="0.15" points="0,0,45.333333333333336,45.333333333333336,0,45.333333333333336,0,0" stroke="#000" stroke-opacity="0.02" transform="translate(317.3333333333333, 181.33333333333334) scale(1, 1)"/>
<polyline fill="#222" fill-opacity="0.15" points="0,0,45.333333333333336,45.333333333333336,0,45.333333333333336,0,0" stroke="#000" stroke-opacity="0.02" transform="translate(45.333333333333336, 272) scale(-1, 1)"/>
<polyline fill="#222" fill-opacity="0.15" points="0,0,45.333333333333336,45.333333333333336,0,45.333333333333336,0,0" stroke="#000" stroke-opacity="0.02" transform="translate(45.333333333333336, 362.6666666666667) scale(1, -1)"/>
<polyline fill="#ddd" fill-opacity="0.01999999999999999" points="0,0,45.333333333333336,45.333333333333336,0,45.333333333333336,0,0" stroke="#000" stroke-opacity="0.02" transform="translate(45.333333333333336, 362.6666666666667) scale(-1, -1)"/>
<polyline fill="#ddd" fill-opacity="0.01999999999999999" points="0,0,45.333333333333336,45.333333333333336,0,45.333333333333336,0,0" stroke="#000" stroke-opacity="0.02" transform="translate(45.333333333333336, 272) scale(1, 1)"/>
<polyline fill="#ddd" fill-opacity="0.01999999999999999" points="0,0,45.333333333333336,45.333333333333336,0,45.333333333333336,0,0" stroke="#000" stroke-opacity="0.02" transform="translate(90.66666666666667, 317.3333333333333) scale(1, -1)"/>
<polyline fill="#ddd" fill-opacity="0.01999999999999999" points="0,0,45.333333333333336,45.333333333333336,0,45.333333333333336,0,0" stroke="#000" stroke-opacity="0.02" transform="translate(181.33333333333334, 317.3333333333333) scale(-1, -1)"/>
<polyline fill="#ddd" fill-opacity="0.01999999999999999" points="0,0,45.333333333333336,45.333333333333336,0,45.333333333333336,0,0" stroke="#000" stroke-opacity="0.02" transform="translate(90.66666666666667, 317.3333333333333) scale(1, 1)"/>
<polyline fill="#ddd" fill-opacity="0.01999999999999999" points="0,0,45.333333333333336,45.333333333333336,0,45.333333333333336,0,0" stroke="#000" stroke-opacity="0.02" transform="translate(181.33333333333334, 317.3333333333333) scale(-1, 1)"/>
<polyline fill="#ddd" fill-opacity="0.10666666666666666" points="0,0,45.333333333333336,45.333333333333336,0,45.333333333333336,0,0" stroke="#000" stroke-opacity="0.02" transform="translate(226.66666666666669, 272) scale(-1, 1)"/>
<polyline fill="#ddd" fill-opacity="0.10666666666666666" points="0,0,45.333333333333336,45.333333333333336,0,45.333333333333336,0,0" stroke="#000" stroke-opacity="0.02" transform="translate(226.66666666666669, 362.6666666666667) scale(1, -1)"/>
<polyline fill="#222" fill-opacity="0.08066666666666666" points="0,0,45.333333333333336,45.333333333333336,0,45.333333333333336,0,0" stroke="#000" stroke-opacity="0.02" transform="translate(226.66666666666669, 362.6666666666667) scale(-1, -1)"/>
<polyline fill="#222" fill-opacity="0.08066666666666666" points="0,0,45.333333333333336,45.333333333333336,0,45.333333333333336,0,0" stroke="#000" stroke-opacity="0.02" transform="translate(226.66666666666669, 272) scale(1, 1)"/>
<polyline fill="#222" fill-opacity="0.08066666666666666" points="0,0,45.333333333333336,45.333333333333336,0,45.333333333333336,0,0" stroke="#000" stroke-opacity="0.02" transform="translate(272, 317.3333333333333) scale(1, -1)"/>
<polyline fill="#222" fill-opacity="0.08066666666666666" points="0,0,45.333333333333336,45.333333333333336,0,45.333333333333336,0,0" stroke="#000" stroke-opacity="0.02" transform="translate(362.6666666666667, 317.3333333333333) scale(-1, -1)"/>
<polyline fill="#222" fill-opacity="0.08066666666666666" points="0,0,45.333333333333336,45.333333333333336,0,45.333333333333336,0,0" stroke="#000" stroke-opacity="0.02" transform="translate(272, 317.3333333333333) scale(1, 1)"/>
<polyline fill="#222" fill-opacity="0.08066666666666666" points="0,0,45.333333333333336,45.333333333333336,0,45.333333333333336,0,0" stroke="#000" stroke-opacity="0.02" transform="translate(362.6666666666667, 317.3333333333333) scale(-1, 1)"/>
</svg>