<svg height="388.8" width="388.8" xmlns="http://www.w3.org/2000/svg">
<rect fill="rgb(130, 46, 17)" height="100%" width="100%" x="0" y="0"/>
<rect fill="none" height="50.4" stroke="#ddd" style="opacity:0.072;stroke-width:0x7;" width="50.4" x="3.6" y="3.6"/>
<rect fill="none" height="21.6" stroke="#222" style="opacity:0.098;stroke-width:0x7;" width="21.6" x="18" y="18"/>
<rect fill="none" height="50.4" stroke="#ddd" style="opacity:0.05466666666666667;stroke-width:0x7;" width="50.4" x="68.39999999999999" y="3.6"/>
<rect fill="none" height="21.6" stroke="#ddd" style="opacity:0.08933333333333333;stroke-width:0x7;" width="21.6" x="82.8" y="18"/>
<rect fill="none" height="50.4" stroke="#222" style="opacity:0.028666666666666674;stroke-width:0x7;" width="50.4" x="133.2" y="3.6"/>
<rect fill="none" height="21.6" stroke="#ddd" style="opacity:0.10666666666666666;stroke-width:0x7;" width="21.6" x="147.6" y="18"/>
<rect fill="none" height="50.4" stroke="#ddd" style="opacity:0.08933333333333333;stroke-width:0x7;" width="50.4" x="197.99999999999997" y="3.6"/>
<rect fill="none" height="21.6" stroke="#ddd" style="opacity:0.08933333333333333;stroke-width:0x7;" width="21.6" x="212.39999999999998" y="18"/>
<rect fill="none" height="50.4" stroke="#222" style="opacity:0.11533333333333333;stroke-width:0x7;" width="50.4" x="262.8" y="3.6"/>
<rect fill="none" height="21.6" stroke="#222" style="opacity:0.028666666666666674;stroke-width:0x7;" width="21.6" x="277.2" y="18"/>
<rect fill="none" height="50.4" stroke="#ddd" style="opacity:0.05466666666666667;stroke-width:0x7;" width="50.4" x="327.6" y="3.6"/>
<rect fill="none" height="21.6" stroke="#222" style="opacity:0.11533333333333333;stroke-width:0x7;" width="21.6" x="342" y="18"/>
<rect fill="none" height="50.4" stroke="#222" style="opacity:0.06333333333333332;stroke-width:0x7;" width="50.4" x="3.6" y="68.39999999999999"/>
<rect fill="none" height="21.6" stroke="#222" style="opacity:0.06333333333333332;stroke-width:0x7;" width="21.6" x="18" y="82.8"/>
<rect fill="none" height="50.4" stroke="#222" style="opacity:0.06333333333333332;stroke-width:0x7;" width="50.4" x="68.39999999999999" y="68.39999999999999"/>
<rect fill="none" height="21.6" stroke="#ddd" style="opacity:0.124;stroke-width:0x7;" width="21.6" x="82.8" y="82.8"/>
<rect fill="none" height="50.4" stroke="#ddd" style="opacity:0.05466666666666667;stroke-width:0x7;" width="50.4" x="133.2" y="68.39999999999999"/>
<rect fill="none" height="21.6" stroke="#222" style="opacity:0.11533333333333333;stroke-width:0x7;" width="21.6" x="147.6" y="82.8"/>
<rect fill="none" height="50.4" stroke="#222" style="opacity:0.11533333333333333;stroke-width:0x7;" width="50.4" x="197.99999999999997" y="68.39999999999999"/>
<rect fill="none" height="21.6" stroke="#ddd" style="opacity:0.14133333333333334;stroke-width:0x7;" width="21.6" x="212.39999999999998" y="82.8"/>
<rect fill="none" height="50.4" stroke="#222" style="opacity:0.11533333333333333;stroke-width:0x7;" width="50.4" x="262.8" y="68.39999999999999"/>
<rect fill="none" height="21.6" stroke="#ddd" style="opacity:0.08933333333333333;stroke-width:0x7;" width="21.6" x="277.2" y="82.8"/>
<rect fill="none" height="50.4" stroke="#ddd" style="opacity:0.10666666666666666;stroke-width:0x7;" width="50.4" x="327.6" y="68.39999999999999"/>
<rect fill="none" height="21.6" stroke="#ddd" style="opacity:0.08933333333333333;stroke-width:0x7;" width="21.6" x="342" y="82.8"/>
<rect fill="none" height="50.4" stroke="#222" style="opacity:0.15;stroke-width:0x7;" width="50.4" x="3.6" y="133.2"/>
<rect fill="none" height="21.6" stroke="#222" style="opacity:0.13266666666666665;stroke-width:0x7;" width="21.6" x="18" y="147.6"/>
<rect fill="none" height="50.4" stroke="#222" style="opacity:0.13266666666666665;stroke-width:0x7;" width="50.4" x="68.39999999999999" y="133.2"/>
<rect fill="none" height="21.6" stroke="#ddd" style="opacity:0.072;stroke-width:0x7;" width="21.6" x="82.8" y="147.6"/>
<rect fill="none" height="50.4" stroke="#ddd" style="opacity:0.08933333333333333;stroke-width:0x7;" width="50.4" x="133.2" y="133.2"/>
<rect fill="none" height="21.6" stroke="#ddd" style="opacity:0.124;stroke-width:0x7;" width="21.6" x="147.6" y="147.6"/>
<rect fill="none" height="50.4" stroke="#222" style="opacity:0.06333333333333332;stroke-width:0x7;" width="50.4" x="197.99999999999997" y="133.2"/>
<rect fill="none" height="21.6" stroke="#ddd" style="opacity:0.01999999999999999;stroke-width:0x7;" width="21.6" x="212.39999999999998" y="147.6"/>
<rect fill="none" height="50.4" stroke="#ddd" style="opacity:0.10666666666666666;stroke-width:0x7;" width="50.4" x="262.8" y="133.2"/>
<rect fill="none" height="21.6" stroke="#222" style="opacity:0.098;stroke-width:0x7;" width="21.6" x="277.2" y="147.6"/>
<rect fill="none" height="50.4" stroke="#ddd" style="opacity:0.08933333333333333;stroke-width:0x7;" width="50.4" x="327.6" y="133.2"/>
<rect fill="none" height="21.6" stroke="#ddd" style="opacity:0.08933333333333333;stroke-width:0x7;" width="21.6" x="342" y="147.6"/>
<rect fill="none" height="50.4" stroke="#222" style="opacity:0.028666666666666674;stroke-width:0x7;" width="50.4" x="3.6" y="197.99999999999997"/>
<rect fill="none" height="21.6" stroke="#222" style="opacity:0.15;stroke-width:0x7;" width="21.6" x="18" y="212.39999999999998"/>
<rect fill="none" height="50.4" stroke="#222" style="opacity:0.098;stroke-width:0x7;" width="50.4" x="68.39999999999999" y="197.99999999999997"/>
<rect fill="none" height="21.6" stroke="#ddd" style="opacity:0.072;stroke-width:0x7;" width="21.6" x="82.8" y="212.39999999999998"/>
<rect fill="none" height="50.4" stroke="#ddd" style="opacity:0.072;stroke-width:0x7;" width="50.4" x="133.2" y="197.99999999999997"/>
<rect fill="none" height="21.6" stroke="#222" style="opacity:0.098;stroke-width:0x7;" width="21.6" x="147.6" y="212.39999999999998"/>
<rect fill="none" height="50.4" stroke="#222" style="opacity:0.15;stroke-width:0x7;" width="50.4" x="197.99999999999997" y="197.99999999999997"/>
<rect fill="none" height="21.6" stroke="#222" style="opacity:0.028666666666666674;stroke-width:0x7;" width="21.6" x="212.39999999999998" y="212.39999999999998"/>
<rect fill="none" height="50.4" stroke="#ddd" style="opacity:0.08933333333333333;stroke-width:0x7;" width="50.4" x="262.8" y="197.99999999999997"/>
<rect fill="none" height="21.6" stroke="#ddd" style="opacity:0.08933333333333333;stroke-width:0x7;" width="21.6" x="277.2" y="212.39999999999998"/>
<rect fill="none" height="50.4" stroke="#222" style="opacity:0.098;stroke-width:0x7;" width="50.4" x="327.6" y="197.99999999999997"/>
<rect fill="none" height="21.6" stroke="#ddd" style="opacity:0.10666666666666666;stroke-width:0x7;" width="21.6" x="342" y="212.39999999999998"/>
<rect fill="none" height="50.4" stroke="#ddd" style="opacity:0.01999999999999999;stroke-width:0x7;" width="50.4" x="3.6" y="262.8"/>
<rect fill="none" height="21.6" stroke="#222" style="opacity:0.06333333333333332;stroke-width:0x7;" width="21.6" x="18" y="277.2"/>
<rect fill="none" height="50.4" stroke="#ddd" style="opacity:0.124;stroke-width:0x7;" width="50.4" x="68.39999999999999" y="262.8"/>
<rect fill="none" height="21.6" stroke="#ddd" style="opacity:0.08933333333333333;stroke-width:0x7;" width="21.6" x="82.8" y="277.2"/>
<rect fill="none" height="50.4" stroke="#ddd" style="opacity:0.072;stroke-width:0x7;" width="50.4" x="133.2" y="262.8"/>
<rect fill="none" height="21.6" stroke="#222" style="opacity:0.13266666666666665;stroke-width:0x7;" width="21.6" x="147.6" y="277.2"/>
<rect fill="none" height="50.4" stroke="#222" style="opacity:0.13266666666666665;stroke-width:0x7;" width="50.4" x="197.99999999999997" y="262.8"/>
<rect fill="none" height="21.6" stroke="#222" style="opacity:0.15;stroke-width:0x7;" width="21.6" x="212.39999999999998" y="277.2"/>
<rect fill="none" height="50.4" stroke="#ddd" style="opacity:0.08933333333333333;stroke-width:0x7;" width="50.4" x="262.8" y="262.8"/>
<rect fill="none" height="21.6" stroke="#ddd" style="opacity:0.10666666666666666;stroke-width:0x7;" width="21.6" x="277.2" y="277.2"/>
<rect fill="none" height="50.4" stroke="#ddd" style="opacity:0.08933333333333333;stroke-width:0x7;" width="50.4" x="327.6" y="262.8"/>
<rect fill="none" height="21.6" stroke="#222" style="opacity:0.11533333333333333;stroke-width:0x7;" width="21.6" x="342" y="277.2"/>
<rect fill="none" height="50.4" stroke="#ddd" style="opacity:0.14133333333333334;stroke-width:0x7;" width="50.4" x="3.6" y="327.6"/>
<rect fill="none" height="21.6" stroke="#222" style="opacity:0.11533333333333333;stroke-width:0x7;" width="21.6" x="18" y="342"/>
<rect fill="none" height="50.4" stroke="#222" style="opacity:0.11533333333333333;stroke-width:0x7;" width="50.4" x="68.39999999999999" y="327.6"/>
<rect fill="none" height="21.6" stroke="#ddd" style="opacity:0.05466666666666667;stroke-width:0x7;" width="21.6" x="82.8" y="342"/>
<rect fill="none" height="50.4" stroke="#ddd" style="opacity:0.124;stroke-width:0x7;" width="50.4" x="133.2" y="327.6"/>
<rect fill="none" height="21.6" stroke="#222" style="opacity:0.06333333333333332;stroke-width:0x7;" width="21.6" x="147.6" y="342"/>
<rect fill="none" height="50.4" stroke="#222" style="opacity:0.06333333333333332;stroke-width:0x7;" width="50.4" x="197.99999999999997" y="327.6"/>
<rect fill="none" height="21.6" stroke="#222" style="opacity:0.06333333333333332;stroke-width:0x7;" width="21.6" x="212.39999999999998" y="342"/>
<rect fill="none" height="50.4" stroke="#222" style="opacity:0.11533333333333333;stroke-width:0x7;" width="50.4" x="262.8" y="327.6"/>
<rect fill="none" height="21.6" stroke="#ddd" style="opacity:0.05466666666666667;stroke-width:0x7;" width="21.6" x="277.2" y="342"/>
<rect fill="none" height="50.4" stroke="#222" style="opacity:0.028666666666666674;stroke-width:0x7;" width="50.4" x="327.6" y="327.6"/>
<rect fill="none" height="21.6" stroke="#222" style="opacity:0.11533333333333333;stroke-width:0x7;" width="21.6" x="342" y="342"/>
</svg>