<svg height="99.99999999999999" width="99.99999999999999" xmlns="http://www.w3.org/2000/svg">
<rect fill="rgb(37, 36, 46)" height="100%" width="100%" x="0" y="0"/>
<polyline fill="#ddd" fill-opacity="0.03733333333333333" points="5.499999999999999,0,11.166666666666664,0,16.666666666666664,5.499999999999999,16.666666666666664,11.166666666666664,11.166666666666664,16.666666666666664,5.499999999999999,16.666666666666664,0,11.166666666666664,0,5.499999999999999,5.499999999999999,0" stroke="#000" stroke-opacity="0.02" transform="translate(0, 0)"/>
<polyline fill="#222" fill-opacity="0.06333333333333332" points="5.499999999999999,0,11.166666666666664,0,16.666666666666664,5.499999999999999,16.666666666666664,11.166666666666664,11.166666666666664,16.666666666666664,5.499999999999999,16.666666666666664,0,11.166666666666664,0,5.499999999999999,5.499999999999999,0" stroke="#000" stroke-opacity="0.02" transform="translate(16.666666666666664, 0)"/>
<polyline fill="#222" fill-opacity="0.098" points="5.499999999999999,0,11.166666666666664,0,16.666666666666664,5.499999999999999,16.666666666666664,11.166666666666664,11.166666666666664,16.666666666666664,5.499999999999999,16.666666666666664,0,11.166666666666664,0,5.499999999999999,5.499999999999999,0" stroke="#000" stroke-opacity="0.02" transform="translate(33.33333333333333, 0)"/>
<polyline fill="#222" fill-opacity="0.028666666666666674" points="5.499999999999999,0,11.166666666666664,0,16.666666666666664,5.499999999999999,16.666666666666664,11.166666666666664,11.166666666666664,16.666666666666664,5.499999999999999,16.666666666666664,0,11.166666666666664,0,5.499999999999999,5.499999999999999,0" stroke="#000" stroke-opacity="0.02" transform="translate(49.99999999999999, 0)"/>
<polyline fill="#222" fill-opacity="0.15" points="5.499999999999999,0,11.166666666666664,0,16.666666666666664,5.499999999999999,16.666666666666664,11.166666666666664,11.166666666666664,16.666666666666664,5.499999999999999,16.666666666666664,0,11.166666666666664,0,5.499999999999999,5.499999999999999,0" stroke="#000" stroke-opacity="0.02" transform="translate(66.66666666666666, 0)"/>
<polyline fill="#222" fill-opacity="0.046" points="5.499999999999999,0,11.166666666666664,0,16.666666666666664,5.499999999999999,16.666666666666664,11.166666666666664,11.166666666666664,16.666666666666664,5.499999999999999,16.666666666666664,0,11.166666666666664,0,5.499999999999999,5.499999999999999,0" stroke="#000" stroke-opacity="0.02" transform="translate(83.33333333333331, 0)"/>
<polyline fill="#ddd" fill-opacity="0.072" points="5.499999999999999,0,11.166666666666664,0,16.666666666666664,5.499999999999999,16.666666666666664,11.166666666666664,11.166666666666664,16.666666666666664,5.499999999999999,16.666666666666664,0,11.166666666666664,0,5.499999999999999,5.499999999999999,0" stroke="#000" stroke-opacity="0.02" transform="translate(0, 16.666666666666664)"/>
<polyline fill="#ddd" fill-opacity="0.072" points="5.499999999999999,0,11.166666666666664,0,16.666666666666664,5.499999999999999,16.666666666666664,11.166666666666664,11.166666666666664,16.666666666666664,5.499999999999999,16.666666666666664,0,11.166666666666664,0,5.499999999999999,5.499999999999999,0" stroke="#000" stroke-opacity="0.02" transform="translate(16.666666666666664, 16.666666666666664)"/>
<polyline fill="#ddd" fill-opacity="0.05466666666666667" points="5.499999999999999,0,11.166666666666664,0,16.666666666666664,5.499999999999999,16.666666666666664,11.166666666666664,11.166666666666664,16.666666666666664,5.499999999999999,16.666666666666664,0,11.166666666666664,0,5.499999999999999,5.499999999999999,0" stroke="#000" stroke-opacity="0.02" transform="translate(33.33333333333333, 16.666666666666664)"/>
<polyline fill="#ddd" fill-opacity="0.072" points="5.499999999999999,0,11.166666666666664,0,16.666666666666664,5.499999999999999,16.666666666666664,11.166666666666664,11.166666666666664,16.666666666666664,5.499999999999999,16.666666666666664,0,11.166666666666664,0,5.499999999999999,5.499999999999999,0" stroke="#000" stroke-opacity="0.02" transform="translate(49.99999999999999, 16.666666666666664)"/>
<polyline fill="#222" fill-opacity="0.028666666666666674" points="5.499999999999999,0,11.166666666666664,0,16.666666666666664,5.499999999999999,16.666666666666664,11.166666666666664,11.166666666666664,16.666666666666664,5.499999999999999,16.666666666666664,0,11.166666666666664,0,5.499999999999999,5.499999999999999,0" stroke="#000" stroke-opacity="0.02" transform="translate(66.66666666666666, 16.666666666666664)"/>
<polyline fill="#222" fill-opacity="0.028666666666666674" points="5.499999999999999,0,11.166666666666664,0,16.666666666666664,5.499999999999999,16.666666666666664,11.166666666666664,11.166666666666664,16.666666666666664,5.499999999999999,16.666666666666664,0,11.166666666666664,0,5.499999999999999,5.499999999999999,0" stroke="#000" stroke-opacity="0.02" transform="translate(83.33333333333331, 16.666666666666664)"/>
<polyline fill="#222" fill-opacity="0.06333333333333332" points="5.499999999999999,0,11.166666666666664,0,16.666666666666664,5.499999999999999,16.666666666666664,11.166666666666664,11.166666666666664,16.666666666666664,5.499999999999999,16.666666666666664,0,11.166666666666664,0,5.499999999999999,5.499999999999999,0" stroke="#000" stroke-opacity="0.02" transform="translate(0, 33.33333333333333)"/>
<polyline fill="#222" fill-opacity="0.15" points="5.499999999999999,0,11.166666666666664,0,16.666666666666664,5.499999999999999,16.666666666666664,11.166666666666664,11.166666666666664,16.666666666666664,5.499999999999999,16.666666666666664,0,11.166666666666664,0,5.499999999999999,5.499999999999999,0" stroke="#000" stroke-opacity="0.02" transform="translate(16.666666666666664, 33.33333333333333)"/>
<polyline fill="#222" fill-opacity="0.13266666666666665" points="5.499999999999999,0,11.166666666666664,0,16.666666666666664,5.499999999999999,16.666666666666664,11.166666666666664,11.166666666666664,16.666666666666664,5.499999999999999,16.666666666666664,0,11.166666666666664,0,5.499999999999999,5.499999999999999,0" stroke="#000" stroke-opacity="0.02" transform="translate(33.33333333333333, 33.33333333333333)"/>
<polyline fill="#222" fill-opacity="0.046" points="5.499999999999999,0,11.166666666666664,0,16.666666666666664,5.499999999999999,16.666666666666664,11.166666666666664,11.166666666666664,16.666666666666664,5.499999999999999,16.666666666666664,0,11.166666666666664,0,5.499999999999999,5.499999999999999,0" stroke="#000" stroke-opacity="0.02" transform="translate(49.99999999999999, 33.33333333333333)"/>
<polyline fill="#222" fill-opacity="0.098" points="5.499999999999999,0,11.166666666666664,0,16.666666666666664,5.499999999999999,16.666666666666664,11.166666666666664,11.166666666666664,16.666666666666664,5.499999999999999,16.666666666666664,0,11.166666666666664,0,5.499999999999999,5.499999999999999,0" stroke="#000" stroke-opacity="0.02" transform="translate(66.66666666666666, 33.33333333333333)"/>
<polyline fill="#222" fill-opacity="0.08066666666666666" points="5.499999999999999,0,11.166666666666664,0,16.666666666666664,5.499999999999999,16.666666666666664,11.166666666666664,11.166666666666664,16.666666666666664,5.499999999999999,16.666666666666664,0,11.166666666666664,0,5.499999999999999,5.499999999999999,0" stroke="#000" stroke-opacity="0.02" transform="translate(83.33333333333331, 33.33333333333333)"/>
<polyline fill="#ddd" fill-opacity="0.08933333333333333" points="5.499999999999999,0,11.166666666666664,0,16.666666666666664,5.499999999999999,16.666666666666664,11.166666666666664,11.166666666666664,16.666666666666664,5.499999999999999,16.666666666666664,0,11.166666666666664,0,5.499999999999999,5.499999999999999,0" stroke="#000" stroke-opacity="0.02" transform="translate(0, 49.99999999999999)"/>
<polyline fill="#222" fill-opacity="0.08066666666666666" points="5.499999999999999,0,11.166666666666664,0,16.666666666666664,5.499999999999999,16.666666666666664,11.166666666666664,11.166666666666664,16.666666666666664,5.499999999999999,16.666666666666664,0,11.166666666666664,0,5.499999999999999,5.499999999999999,0" stroke="#000" stroke-opacity="0.02" transform="translate(16.666666666666664, 49.99999999999999)"/>
<polyline fill="#222" fill-opacity="0.06333333333333332" points="5.499999999999999,0,11.166666666666664,0,16.666666666666664,5.499999999999999,16.666666666666664,11.166666666666664,11.166666666666664,16.666666666666664,5.499999999999999,16.666666666666664,0,11.166666666666664,0,5.499999999999999,5.499999999999999,0" stroke="#000" stroke-opacity="0.02" transform="translate(33.33333333333333, 49.99999999999999)"/>
<polyline fill="#222" fill-opacity="0.098" points="5.499999999999999,0,11.166666666666664,0,16.666666666666664,5.499999999999999,16.666666666666664,11.166666666666664,11.166666666666664,16.666666666666664,5.499999999999999,16.666666666666664,0,11.166666666666664,0,5.499999999999999,5.499999999999999,0" stroke="#000" stroke-opacity="0.02" transform="translate(49.99999999999999, 49.99999999999999)"/>
<polyline fill="#222" fill-opacity="0.11533333333333333" points="5.499999999999999,0,11.166666666666664,0,16.666666666666664,5.499999999999999,16.666666666666664,11.166666666666664,11.166666666666664,16.666666666666664,5.499999999999999,16.666666666666664,0,11.166666666666664,0,5.499999999999999,5.499999999999999,0" stroke="#000" stroke-opacity="0.02" transform="translate(66.66666666666666, 49.99999999999999)"/>
<polyline fill="#222" fill-opacity="0.06333333333333332" points="5.499999999999999,0,11.166666666666664,0,16.666666666666664,5.499999999999999,16.666666666666664,11.166666666666664,11.166666666666664,16.666666666666664,5.499999999999999,16.666666666666664,0,11.166666666666664,0,5.499999999999999,5.499999999999999,0" stroke="#000" stroke-opacity="0.02" transform="translate(83.33333333333331, 49.99999999999999)"/>
<polyline fill="#ddd" fill-opacity="0.14133333333333334" points="5.499999999999999,0,11.166666666666664,0,16.666666666666664,5.499999999999999,16.666666666666664,11.166666666666664,11.166666666666664,16.666666666666664,5.499999999999999,16.666666666666664,0,11.166666666666664,0,5.499999999999999,5.499999999999999,0" stroke="#000" stroke-opacity="0.02" transform="translate(0, 66.66666666666666)"/>
<polyline fill="#222" fill-opacity="0.028666666666666674" points="5.499999999999999,0,11.166666666666664,0,16.666666666666664,5.499999999999999,16.666666666666664,11.166666666666664,11.166666666666664,16.666666666666664,5.499999999999999,16.666666666666664,0,11.166666666666664,0,5.499999999999999,5.499999999999999,0" stroke="#000" stroke-opacity="0.02" transform="translate(16.666666666666664, 66.66666666666666)"/>
<polyline fill="#222" fill-opacity="0.098" points="5.499999999999999,0,11.166666666666664,0,16.666666666666664,5.499999999999999,16.666666666666664,11.166666666666664,11.166666666666664,16.666666666666664,5.499999999999999,16.666666666666664,0,11.166666666666664,0,5.499999999999999,5.499999999999999,0" stroke="#000" stroke-opacity="0.02" transform="translate(33.33333333333333, 66.66666666666666)"/>
<polyline fill="#ddd" fill-opacity="0.08933333333333333" points="5.499999999999999,0,11.166666666666664,0,16.666666666666664,5.499999999999999,16.666666666666664,11.166666666666664,11.166666666666664,16.666666666666664,5.499999999999999,16.666666666666664,0,11.166666666666664,0,5.499999999999999,5.499999999999999,0" stroke="#000" stroke-opacity="0.02" transform="translate(49.99999999999999, 66.66666666666666)"/>
<polyline fill="#222" fill-opacity="0.11533333333333333" points="5.499999999999999,0,11.166666666666664,0,16.666666666666664,5.499999999999999,16.666666666666664,11.166666666666664,11.166666666666664,16.666666666666664,5.499999999999999,16.666666666666664,0,11.166666666666664,0,5.499999999999999,5.499999999999999,0" stroke="#000" stroke-opacity="0.02" transform="translate(66.66666666666666, 66.66666666666666)"/>
<polyline fill="#ddd" fill-opacity="0.072" points="5.499999999999999,0,11.166666666666664,0,16.666666666666664,5.499999999999999,16.666666666666664,11.166666666666664,11.166666666666664,16.666666666666664,5.499999999999999,16.666666666666664,0,11.166666666666664,0,5.499999999999999,5.499999999999999,0" stroke="#000" stroke-opacity="0.02" transform="translate(83.33333333333331, 66.66666666666666)"/>
<polyline fill="#ddd" fill-opacity="0.10666666666666666" points="5.499999999999999,0,11.166666666666664,0,16.666666666666664,5.499999999999999,16.666666666666664,11.166666666666664,11.166666666666664,16.666666666666664,5.499999999999999,16.666666666666664,0,11.166666666666664,0,5.499999999999999,5.499999999999999,0" stroke="#000" stroke-opacity="0.02" transform="translate(0, 83.33333333333331)"/>
<polyline fill="#ddd" fill-opacity="0.03733333333333333" points="5.499999999999999,0,11.166666666666664,0,16.666666666666664,5.499999999999999,16.666666666666664,11.166666666666664,11.166666666666664,16.666666666666664,5.499999999999999,16.666666666666664,0,11.166666666666664,0,5.499999999999999,5.499999999999999,0" stroke="#000" stroke-opacity="0.02" transform="translate(16.666666666666664, 83.33333333333331)"/>
<polyline fill="#ddd" fill-opacity="0.10666666666666666" points="5.499999999999999,0,11.166666666666664,0,16.666666666666664,5.499999999999999,16.666666666666664,11.166666666666664,11.166666666666664,16.666666666666664,5.499999999999999,16.666666666666664,0,11.166666666666664,0,5.499999999999999,5.499999999999999,0" stroke="#000" stroke-opacity="0.02" transform="translate(33.33333333333333, 83.33333333333331)"/>
<polyline fill="#ddd" fill-opacity="0.10666666666666666" points="5.499999999999999,0,11.166666666666664,0,16.666666666666664,5.499999999999999,16.666666666666664,11.166666666666664,11.166666666666664,16.666666666666664,5.499999999999999,16.666666666666664,0,11.166666666666664,0,5.499999999999999,5.499999999999999,0" stroke="#000" stroke-opacity="0.02" transform="translate(49.99999999999999, 83.33333333333331)"/>
<polyline fill="#222" fill-opacity="0.11533333333333333" points="5.499999999999999,0,11.166666666666664,0,16.666666666666664,5.499999999999999,16.666666666666664,11.166666666666664,11.166666666666664,16.666666666666664,5.499999999999999,16.666666666666664,0,11.166666666666664,0,5.499999999999999,5.499999999999999,0" stroke="#000" stroke-opacity="0.02" transform="translate(66.66666666666666, 83.33333333333331)"/>
<polyline fill="#ddd" fill-opacity="0.124" points="5.499999999999999,0,11.166666666666664,0,16.666666666666664,5.499999999999999,16.666666666666664,11.166666666666664,11.166666666666664,16.666666666666664,5.499999999999999,16.666666666666664,0,11.166666666666664,0,5.499999999999999,5.499999999999999,0" stroke="#000" stroke-opacity="0.02" transform="translate(83.33333333333331, 83.33333333333331)"/>
</svg>