<svg height="530" width="530" xmlns="http://www.w3.org/2000/svg">
<rect fill="rgb(57, 37, 103)" height="100%" width="100%" x="0" y="0"/>
<circle cx="0" cy="0" fill="#222" r="88.33333333333333" style="opacity:0.13266666666666665;"/>
<circle cx="530" cy="0" fill="#222" r="88.33333333333333" style="opacity:0.13266666666666665;"/>
<circle cx="0" cy="530" fill="#222" r="88.33333333333333" style="opacity:0.13266666666666665;"/>
<circle cx="530" cy="530" fill="#222" r="88.33333333333333" style="opacity:0.13266666666666665;"/>
<circle cx="88.33333333333333" cy="0" fill="#ddd" r="88.33333333333333" style="opacity:0.08933333333333333;"/>
<circle cx="88.33333333333333" cy="530" fill="#ddd" r="88.33333333333333" style="opacity:0.08933333333333333;"/>
<circle cx="176.66666666666666" cy="0" fill="#ddd" r="88.33333333333333" style="opacity:0.14133333333333334;"/>
<circle cx="176.66666666666666" cy="530" fill="#ddd" r="88.33333333333333" style="opacity:0.14133333333333334;"/>
<circle cx="265" cy="0" fill="#ddd" r="88.33333333333333" style="opacity:0.10666666666666666;"/>
<circle cx="265" cy="530" fill="#ddd" r="88.33333333333333" style="opacity:0.10666666666666666;"/>
<circle cx="353.3333333333333" cy="0" fill="#ddd" r="88.33333333333333" style="opacity:0.03733333333333333;"/>
<circle cx="353.3333333333333" cy="530" fill="#ddd" r="88.33333333333333" style="opacity:0.03733333333333333;"/>
<circle cx="441.66666666666663" cy="0" fill="#222" r="88.33333333333333" style="opacity:0.028666666666666674;"/>
<circle cx="441.66666666666663" cy="530" fill="#222" r="88.33333333333333" style="opacity:0.028666666666666674;"/>
<circle cx="0" cy="88.33333333333333" fill="#ddd" r="88.33333333333333" style="opacity:0.10666666666666666;"/>
<circle cx="530" cy="88.33333333333333" fill="#ddd" r="88.33333333333333" style="opacity:0.10666666666666666;"/>
<circle cx="88.33333333333333" cy="88.33333333333333" fill="#222" r="88.33333333333333" style="opacity:0.11533333333333333;"/>
<circle cx="176.66666666666666" cy="88.33333333333333" fill="#ddd" r="88.33333333333333" style="opacity:0.01999999999999999;"/>
<circle cx="265" cy="88.33333333333333" fill="#222" r="88.33333333333333" style="opacity:0.13266666666666665;"/>
<circle cx="353.3333333333333" cy="88.33333333333333" fill="#ddd" r="88.33333333333333" style="opacity:0.14133333333333334;"/>
<circle cx="441.66666666666663" cy="88.33333333333333" fill="#222" r="88.33333333333333" style="opacity:0.11533333333333333;"/>
<circle cx="0" cy="176.66666666666666" fill="#222" r="88.33333333333333" style="opacity:0.15;"/>
<circle cx="530" cy="176.66666666666666" fill="#222" r="88.33333333333333" style="opacity:0.15;"/>
<circle cx="88.33333333333333" cy="176.66666666666666" fill="#222" r="88.33333333333333" style="opacity:0.08066666666666666;"/>
<circle cx="176.66666666666666" cy="176.66666666666666" fill="#222" r="88.33333333333333" style="opacity:0.13266666666666665;"/>
<circle cx="265" cy="176.66666666666666" fill="#222" r="88.33333333333333" style="opacity:0.08066666666666666;"/>
<circle cx="353.3333333333333" cy="176.66666666666666" fill="#ddd" r="88.33333333333333" style="opacity:0.072;"/>
<circle cx="441.66666666666663" cy="176.66666666666666" fill="#ddd" r="88.33333333333333" style="opacity:0.03733333333333333;"/>
<circle cx="0" cy="265" fill="#ddd" r="88.33333333333333" style="opacity:0.08933333333333333;"/>
<circle cx="530" cy="265" fill="#ddd" r="88.33333333333333" style="opacity:0.08933333333333333;"/>
<circle cx="88.33333333333333" cy="265" fill="#222" r="88.33333333333333" style="opacity:0.15;"/>
<circle cx="176.66666666666666" cy="265" fill="#222" r="88.33333333333333" style="opacity:0.11533333333333333;"/>
<circle cx="265" cy="265" fill="#222" r="88.33333333333333" style="opacity:0.08066666666666666;"/>
<circle cx="353.3333333333333" cy="265" fill="#ddd" r="88.33333333333333" style="opacity:0.08933333333333333;"/>
<circle cx="441.66666666666663" cy="265" fill="#222" r="88.33333333333333" style="opacity:0.028666666666666674;"/>
<circle cx="0" cy="353.3333333333333" fill="#222" r="88.33333333333333" style="opacity:0.098;"/>
<circle cx="530" cy="353.3333333333333" fill="#222" r="88.33333333333333" style="opacity:0.098;"/>
<circle cx="88.33333333333333" cy="353.3333333333333" fill="#222" r="88.33333333333333" style="opacity:0.06333333333333332;"/>
<circle cx="176.66666666666666" cy="353.3333333333333" fill="#222" r="88.33333333333333" style="opacity:0.11533333333333333;"/>
<circle cx="265" cy="353.3333333333333" fill="#222" r="88.33333333333333" style="opacity:0.15;"/>
<circle cx="353.3333333333333" cy="353.3333333333333" fill="#ddd" r="88.33333333333333" style="opacity:0.072;"/>
<circle cx="441.66666666666663" cy="353.3333333333333" fill="#ddd" r="88.33333333333333" style="opacity:0.08933333333333333;"/>
<circle cx="0" cy="441.66666666666663" fill="#ddd" r="88.33333333333333" style="opacity:0.072;"/>
<circle cx="530" cy="441.66666666666663" fill="#ddd" r="88.33333333333333" style="opacity:0.072;"/>
<circle cx="88.33333333333333" cy="441.66666666666663" fill="#222" r="88.33333333333333" style="opacity:0.06333333333333332;"/>
<circle cx="176.66666666666666" cy="441.66666666666663" fill="#ddd" r="88.33333333333333" style="opacity:0.05466666666666667;"/>
<circle cx="265" cy="441.66666666666663" fill="#ddd" r="88.33333333333333" style="opacity:0.08933333333333333;"/>
<circle cx="353.3333333333333" cy="441.66666666666663" fill="#ddd" r="88.33333333333333" style="opacity:0.05466666666666667;"/>
<circle cx="441.66666666666663" cy="441.66666666666663" fill="#222" r="88.33333333333333" style="opacity:0.098;"/>
</svg>