<svg height="204" width="204" xmlns="http://www.w3.org/2000/svg">
<rect fill="rgb(63, 21, 43)" height="100%" width="100%" x="0" y="0"/>
<g fill="#222" stroke="#000" stroke-opacity="0.02" style="fill-opacity:0.08066666666666666;" transform="translate(-17, -25.5)">
<rect height="51" width="17" x="17" y="0"/>
<rect height="17" width="51" x="0" y="17"/>
</g>
<g fill="#222" stroke="#000" stroke-opacity="0.02" style="fill-opacity:0.08066666666666666;" transform="translate(187, -25.5)">
<rect height="51" width="17" x="17" y="0"/>
<rect height="17" width="51" x="0" y="17"/>
</g>
<g fill="#222" stroke="#000" stroke-opacity="0.02" style="fill-opacity:0.08066666666666666;" transform="translate(-17, 178.5)">
<rect height="51" width="17" x="17" y="0"/>
<rect height="17" width="51" x="0" y="17"/>
</g>
<g fill="#222" stroke="#000" stroke-opacity="0.02" style="fill-opacity:0.08066666666666666;" transform="translate(187, 178.5)">
<rect height="51" width="17" x="17" y="0"/>
<rect height="17" width="51" x="0" y="17"/>
</g>
<g fill="#ddd" stroke="#000" stroke-opacity="0.02" style="fill-opacity:0.05466666666666667;" transform="translate(17, -25.5)">
<rect height="51" width="17" x="17" y="0"/>
<rect height="17" width="51" x="0" y="17"/>
</g>
<g fill="#ddd" stroke="#000" stroke-opacity="0.02" style="fill-opacity:0.05466666666666667;" transform="translate(17, 178.5)">
<rect height="51" width="17" x="17" y="0"/>
<rect height="17" width="51" x="0" y="17"/>
</g>
<g fill="#ddd" stroke="#000" stroke-opacity="0.02" style="fill-opacity:0.10666666666666666;" transform="translate(51, -25.5)">
<rect height="51" width="17" x="17" y="0"/>
<rect height="17" width="51" x="0" y="17"/>
</g>
<g fill="#ddd" stroke="#000" stroke-opacity="0.02" style="fill-opacity:0.10666666666666666;" transform="translate(51, 178.5)">
<rect height="51" width="17" x="17" y="0"/>
<rect height="17" width="51" x="0" y="17"/>
</g>
<g fill="#ddd" stroke="#000" stroke-opacity="0.02" style="fill-opacity:0.01999999999999999;" transform="translate(85, -25.5)">
<rect height="51" width="17" x="17" y="0"/>
<rect height="17" width="51" x="0" y="17"/>
</g>
<g fill="#ddd" stroke="#000" stroke-opacity="0.02" style="fill-opacity:0.01999999999999999;" transform="translate(85, 178.5)">
<rect height="51" width="17" x="17" y="0"/>
<rect height="17" width="51" x="0" y="17"/>
</g>
<g fill="#ddd" stroke="#000" stroke-opacity="0.02" style="fill-opacity:0.03733333333333333;" transform="translate(119, -25.5)">
<rect height="51" width="17" x="17" y="0"/>
<rect height="17" width="51" x="0" y="17"/>
</g>
<g fill="#ddd" stroke="#000" stroke-opacity="0.02" style="fill-opacity:0.03733333333333333;" transform="translate(119, 178.5)">
<rect height="51" width="17" x="17" y="0"/>
<rect height="17" width="51" x="0" y="17"/>
</g>
<g fill="#ddd" stroke="#000" stroke-opacity="0.02" style="fill-opacity:0.14133333333333334;" transform="translate(153, -25.5)">
<rect height="51" width="17" x="17" y="0"/>
<rect height="17" width="51" x="0" y="17"/>
</g>
<g fill="#ddd" stroke="#000" stroke-opacity="0.02" style="fill-opacity:0.14133333333333334;" transform="translate(153, 178.5)">
<rect height="51" width="17" x="17" y="0"/>
<rect height="17" width="51" x="0" y="17"/>
</g>
<g fill="#222" stroke="#000" stroke-opacity="0.02" style="fill-opacity:0.08066666666666666;" transform="translate(0, 8.5)">
<rect height="51" width="17" x="17" y="0"/>
<rect height="17" width="51" x="0" y="17"/>
</g>
<g fill="#222" stroke="#000" stroke-opacity="0.02" style="fill-opacity:0.08066666666666666;" transform="translate(204, 8.5)">
<rect height="51" width="17" x="17" y="0"/>
<rect height="17" width="51" x="0" y="17"/>
</g>
<g fill="#ddd" stroke="#000" stroke-opacity="0.02" style="fill-opacity:0.124;" transform="translate(34, 8.5)">
<rect height="51" width="17" x="17" y="0"/>
<rect height="17" width="51" x="0" y="17"/>
</g>
<g fill="#ddd" stroke="#000" stroke-opacity="0.02" style="fill-opacity:0.14133333333333334;" transform="translate(68, 8.5)">
<rect height="51" width="17" x="17" y="0"/>
<rect height="17" width="51" x="0" y="17"/>
</g>
<g fill="#222" stroke="#000" stroke-opacity="0.02" style="fill-opacity:0.15;" transform="translate(102, 8.5)">
<rect height="51" width="17" x="17" y="0"/>
<rect height="17" width="51" x="0" y="17"/>
</g>
<g fill="#ddd" stroke="#000" stroke-opacity="0.02" style="fill-opacity:0.03733333333333333;" transform="translate(136, 8.5)">
<rect height="51" width="17" x="17" y="0"/>
<rect height="17" width="51" x="0" y="17"/>
</g>
<g fill="#ddd" stroke="#000" stroke-opacity="0.02" style="fill-opacity:0.08933333333333333;" transform="translate(170, 8.5)">
<rect height="51" width="17" x="17" y="0"/>
<rect height="17" width="51" x="0" y="17"/>
</g>
<g fill="#ddd" stroke="#000" stroke-opacity="0.02" style="fill-opacity:0.08933333333333333;" transform="translate(-17, 42.5)">
<rect height="51" width="17" x="17" y="0"/>
<rect height="17" width="51" x="0" y="17"/>
</g>
<g fill="#ddd" stroke="#000" stroke-opacity="0.02" style="fill-opacity:0.08933333333333333;" transform="translate(187, 42.5)">
<rect height="51" width="17" x="17" y="0"/>
<rect height="17" width="51" x="0" y="17"/>
</g>
<g fill="#222" stroke="#000" stroke-opacity="0.02" style="fill-opacity:0.046;" transform="translate(17, 42.5)">
<rect height="51" width="17" x="17" y="0"/>
<rect height="17" width="51" x="0" y="17"/>
</g>
<g fill="#222" stroke="#000" stroke-opacity="0.02" style="fill-opacity:0.098;" transform="translate(51, 42.5)">
<rect height="51" width="17" x="17" y="0"/>
<rect height="17" width="51" x="0" y="17"/>
</g>
<g fill="#ddd" stroke="#000" stroke-opacity="0.02" style="fill-opacity:0.124;" transform="translate(85, 42.5)">
<rect height="51" width="17" x="17" y="0"/>
<rect height="17" width="51" x="0" y="17"/>
</g>
<g fill="#222" stroke="#000" stroke-opacity="0.02" style="fill-opacity:0.08066666666666666;" transform="translate(119, 42.5)">
<rect height="51" width="17" x="17" y="0"/>
<rect height="17" width="51" x="0" y="17"/>
</g>
<g fill="#222" stroke="#000" stroke-opacity="0.02" style="fill-opacity:0.13266666666666665;" transform="translate(153, 42.5)">
<rect height="51" width="17" x="17" y="0"/>
<rect height="17" width="51" x="0" y="17"/>
</g>
<g fill="#ddd" stroke="#000" stroke-opacity="0.02" style="fill-opacity:0.05466666666666667;" transform="translate(0, 76.5)">
<rect height="51" width="17" x="17" y="0"/>
<rect height="17" width="51" x="0" y="17"/>
</g>
<g fill="#ddd" stroke="#000" stroke-opacity="0.02" style="fill-opacity:0.05466666666666667;" transform="translate(204, 76.5)">
<rect height="51" width="17" x="17" y="0"/>
<rect height="17" width="51" x="0" y="17"/>
</g>
<g fill="#222" stroke="#000" stroke-opacity="0.02" style="fill-opacity:0.06333333333333332;" transform="translate(34, 76.5)">
<rect height="51" width="17" x="17" y="0"/>
<rect height="17" width="51" x="0" y="17"/>
</g>
<g fill="#ddd" stroke="#000" stroke-opacity="0.02" style="fill-opacity:0.01999999999999999;" transform="translate(68, 76.5)">
<rect height="51" width="17" x="17" y="0"/>
<rect height="17" width="51" x="0" y="17"/>
</g>
<g fill="#ddd" stroke="#000" stroke-opacity="0.02" style="fill-opacity:0.01999999999999999;" transform="translate(102, 76.5)">
<rect height="51" width="17" x="17" y="0"/>
<rect height="17" width="51" x="0" y="17"/>
</g>
<g fill="#222" stroke="#000" stroke-opacity="0.02" style="fill-opacity:0.028666666666666674;" transform="translate(136, 76.5)">
<rect height="51" width="17" x="17" y="0"/>
<rect height="17" width="51" x="0" y="17"/>
</g>
<g fill="#ddd" stroke="#000" stroke-opacity="0.02" style="fill-opacity:0.01999999999999999;" transform="translate(170, 76.5)">
<rect height="51" width="17" x="17" y="0"/>
<rect height="17" width="51" x="0" y="17"/>
</g>
<g fill="#222" stroke="#000" stroke-opacity="0.02" style="fill-opacity:0.06333333333333332;" transform="translate(-17, 110.5)">
<rect height="51" width="17" x="17" y="0"/>
<rect height="17" width="51" x="0" y="17"/>
</g>
<g fill="#222" stroke="#000" stroke-opacity="0.02" style="fill-opacity:0.06333333333333332;" transform="translate(187, 110.5)">
<rect height="51" width="17" x="17" y="0"/>
<rect height="17" width="51" x="0" y="17"/>
</g>
<g fill="#222" stroke="#000" stroke-opacity="0.02" style="fill-opacity:0.098;" transform="translate(17, 110.5)">
<rect height="51" width="17" x="17" y="0"/>
<rect height="17" width="51" x="0" y="17"/>
</g>
<g fill="#222" stroke="#000" stroke-opacity="0.02" style="fill-opacity:0.15;" transform="translate(51, 110.5)">
<rect height="51" width="17" x="17" y="0"/>
<rect height="17" width="51" x="0" y="17"/>
</g>
<g fill="#222" stroke="#000" stroke-opacity="0.02" style="fill-opacity:0.028666666666666674;" transform="translate(85, 110.5)">
<rect height="51" width="17" x="17" y="0"/>
<rect height="17" width="51" x="0" y="17"/>
</g>
<g fill="#222" stroke="#000" stroke-opacity="0.02" style="fill-opacity:0.13266666666666665;" transform="translate(119, 110.5)">
<rect height="51" width="17" x="17" y="0"/>
<rect height="17" width="51" x="0" y="17"/>
</g>
<g fill="#ddd" stroke="#000" stroke-opacity="0.02" style="fill-opacity:0.124;" transform="translate(153, 110.5)">
<rect height="51" width="17" x="17" y="0"/>
<rect height="17" width="51" x="0" y="17"/>
</g>
<g fill="#222" stroke="#000" stroke-opacity="0.02" style="fill-opacity:0.028666666666666674;" transform="translate(0, 144.5)">
<rect height="51" width="17" x="17" y="0"/>
<rect height="17" width="51" x="0" y="17"/>
</g>
<g fill="#222" stroke="#000" stroke-opacity="0.02" style="fill-opacity:0.028666666666666674;" transform="translate(204, 144.5)">
<rect height="51" width="17" x="17" y="0"/>
<rect height="17" width="51" x="0" y="17"/>
</g>
<g fill="#222" stroke="#000" stroke-opacity="0.02" style="fill-opacity:0.13266666666666665;" transform="translate(34, 144.5)">
<rect height="51" width="17" x="17" y="0"/>
<rect height="17" width="51" x="0" y="17"/>
</g>
<g fill="#222" stroke="#000" stroke-opacity="0.02" style="fill-opacity:0.06333333333333332;" transform="translate(68, 144.5)">
<rect height="51" width="17" x="17" y="0"/>
<rect height="17" width="51" x="0" y="17"/>
</g>
<g fill="#ddd" stroke="#000" stroke-opacity="0.02" style="fill-opacity:0.14133333333333334;" transform="translate(102, 144.5)">
<rect height="51" width="17" x="17" y="0"/>
<rect height="17" width="51" x="0" y="17"/>
</g>
<g fill="#222" stroke="#000" stroke-opacity="0.02" style="fill-opacity:0.08066666666666666;" transform="translate(136, 144.5)">
<rect height="51" width="17" x="17" y="0"/>
<rect height="17" width="51" x="0" y="17"/>
</g>
<g fill="#222" stroke="#000" stroke-opacity="0.02" style="fill-opacity:0.08066666666666666;" transform="translate(170, 144.5)">
<rect height="51" width="17" x="17" y="0"/>
<rect height="17" width="51" x="0" y="17"/>
</g>
</svg>