<svg height="820.8000000000001" width="300" xmlns="http://www.w3.org/2000/svg">
<rect fill="rgb(32, 37, 51)" height="100%" width="100%" x="0" y="0"/>
<path d="M0 100 C 52.5 0, 97.5 0, 150 100 S 247.5 200, 300 100 S 397.5 0, 450, 100" fill="none" stroke="#ddd" style="opacity:0.10666666666666666;stroke-width:0x16;" transform="translate(-75, -150)"/>
<path d="M0 100 C 52.5 0, 97.5 0, 150 100 S 247.5 200, 300 100 S 397.5 0, 450, 100" fill="none" stroke="#ddd" style="opacity:0.10666666666666666;stroke-width:0x16;" transform="translate(-75, 670.8000000000001)"/>
<path d="M0 100 C 52.5 0, 97.5 0, 150 100 S 247.5 200, 300 100 S 397.5 0, 450, 100" fill="none" stroke="#222" style="opacity:0.15;stroke-width:0x16;" transform="translate(-75, -127.2)"/>
<path d="M0 100 C 52.5 0, 97.5 0, 150 100 S 247.5 200, 300 100 S 397.5 0, 450, 100" fill="none" stroke="#222" style="opacity:0.15;stroke-width:0x16;" transform="translate(-75, 693.6)"/>
<path d="M0 100 C 52.5 0, 97.5 0, 150 100 S 247.5 200, 300 100 S 397.5 0, 450, 100" fill="none" stroke="#222" style="opacity:0.11533333333333333;stroke-width:0x16;" transform="translate(-75, -104.4)"/>
<path d="M0 100 C 52.5 0, 97.5 0, 150 100 S 247.5 200, 300 100 S 397.5 0, 450, 100" fill="none" stroke="#222" style="opacity:0.11533333333333333;stroke-width:0x16;" transform="translate(-75, 716.4000000000001)"/>
<path d="M0 100 C 52.5 0, 97.5 0, 150 100 S 247.5 200, 300 100 S 397.5 0, 450, 100" fill="none" stroke="#222" style="opacity:0.098;stroke-width:0x16;" transform="translate(-75, -81.6)"/>
<path d="M0 100 C 52.5 0, 97.5 0, 150 100 S 247.5 200, 300 100 S 397.5 0, 450, 100" fill="none" stroke="#222" style="opacity:0.098;stroke-width:0x16;" transform="translate(-75, 739.2)"/>
<path d="M0 100 C 52.5 0, 97.5 0, 150 100 S 247.5 200, 300 100 S 397.5 0, 450, 100" fill="none" stroke="#222" style="opacity:0.098;stroke-width:0x16;" transform="translate(-75, -58.8)"/>
<path d="M0 100 C 52.5 0, 97.5 0, 150 100 S 247.5 200, 300 100 S 397.5 0, 450, 100" fill="none" stroke="#222" style="opacity:0.098;stroke-width:0x16;" transform="translate(-75, 762.0000000000001)"/>
<path d="M0 100 C 52.5 0, 97.5 0, 150 100 S 247.5 200, 300 100 S 397.5 0, 450, 100" fill="none" stroke="#ddd" style="opacity:0.01999999999999999;stroke-width:0x16;" transform="translate(-75, -36)"/>
<path d="M0 100 C 52.5 0, 97.5 0, 150 100 S 247.5 200, 300 100 S 397.5 0, 450, 100" fill="none" stroke="#ddd" style="opacity:0.01999999999999999;stroke-width:0x16;" transform="translate(-75, 784.8000000000001)"/>
<path d="M0 100 C 52.5 0, 97.5 0, 150 100 S 247.5 200, 300 100 S 397.5 0, 450, 100" fill="none" stroke="#222" style="opacity:0.13266666666666665;stroke-width:0x16;" transform="translate(-75, -13.199999999999989)"/>
<path d="M0 100 C 52.5 0, 97.5 0, 150 100 S 247.5 200, 300 100 S 397.5 0, 450, 100" fill="none" stroke="#222" style="opacity:0.13266666666666665;stroke-width:0x16;" transform="translate(-75, 807.6000000000001)"/>
<path d="M0 100 C 52.5 0, 97.5 0, 150 100 S 247.5 200, 300 100 S 397.5 0, 450, 100" fill="none" stroke="#222" style="opacity:0.098;stroke-width:0x16;" transform="translate(-75, 9.599999999999994)"/>
<path d="M0 100 C 52.5 0, 97.5 0, 150 100 S 247.5 200, 300 100 S 397.5 0, 450, 100" fill="none" stroke="#222" style="opacity:0.098;stroke-width:0x16;" transform="translate(-75, 830.4000000000001)"/>
<path d="M0 100 C 52.5 0, 97.5 0, 150 100 S 247.5 200, 300 100 S 397.5 0, 450, 100" fill="none" stroke="#ddd" style="opacity:0.14133333333333334;stroke-width:0x16;" transform="translate(-75, 32.400000000000006)"/>
<path d="M0 100 C 52.5 0, 97.5 0, 150 100 S 247.5 200, 300 100 S 397.5 0, 450, 100" fill="none" stroke="#ddd" style="opacity:0.14133333333333334;stroke-width:0x16;" transform="translate(-75, 853.2)"/>
<path d="M0 100 C 52.5 0, 97.5 0, 150 100 S 247.5 200, 300 100 S 397.5 0, 450, 100" fill="none" stroke="#ddd" style="opacity:0.10666666666666666;stroke-width:0x16;" transform="translate(-75, 55.20000000000002)"/>
<path d="M0 100 C 52.5 0, 97.5 0, 150 100 S 247.5 200, 300 100 S 397.5 0, 450, 100" fill="none" stroke="#ddd" style="opacity:0.10666666666666666;stroke-width:0x16;" transform="translate(-75, 876.0000000000001)"/>
<path d="M0 100 C 52.5 0, 97.5 0, 150 100 S 247.5 200, 300 100 S 397.5 0, 450, 100" fill="none" stroke="#222" style="opacity:0.046;stroke-width:0x16;" transform="translate(-75, 78)"/>
<path d="M0 100 C 52.5 0, 97.5 0, 150 100 S 247.5 200, 300 100 S 397.5 0, 450, 100" fill="none" stroke="#222" style="opacity:0.046;stroke-width:0x16;" transform="translate(-75, 898.8000000000001)"/>
<path d="M0 100 C 52.5 0, 97.5 0, 150 100 S 247.5 200, 300 100 S 397.5 0, 450, 100" fill="none" stroke="#222" style="opacity:0.13266666666666665;stroke-width:0x16;" transform="translate(-75, 100.80000000000001)"/>
<path d="M0 100 C 52.5 0, 97.5 0, 150 100 S 247.5 200, 300 100 S 397.5 0, 450, 100" fill="none" stroke="#222" style="opacity:0.13266666666666665;stroke-width:0x16;" transform="translate(-75, 921.6000000000001)"/>
<path d="M0 100 C 52.5 0, 97.5 0, 150 100 S 247.5 200, 300 100 S 397.5 0, 450, 100" fill="none" stroke="#222" style="opacity:0.11533333333333333;stroke-width:0x16;" transform="translate(-75, 123.60000000000002)"/>
<path d="M0 100 C 52.5 0, 97.5 0, 150 100 S 247.5 200, 300 100 S 397.5 0, 450, 100" fill="none" stroke="#222" style="opacity:0.11533333333333333;stroke-width:0x16;" transform="translate(-75, 944.4000000000001)"/>
<path d="M0 100 C 52.5 0, 97.5 0, 150 100 S 247.5 200, 300 100 S 397.5 0, 450, 100" fill="none" stroke="#222" style="opacity:0.06333333333333332;stroke-width:0x16;" transform="translate(-75, 146.40000000000003)"/>
<path d="M0 100 C 52.5 0, 97.5 0, 150 100 S 247.5 200, 300 100 S 397.5 0, 450, 100" fill="none" stroke="#222" style="opacity:0.06333333333333332;stroke-width:0x16;" transform="translate(-75, 967.2)"/>
<path d="M0 100 C 52.5 0, 97.5 0, 150 100 S 247.5 200, 300 100 S 397.5 0, 450, 100" fill="none" stroke="#222" style="opacity:0.028666666666666674;stroke-width:0x16;" transform="translate(-75, 169.2)"/>
<path d="M0 100 C 52.5 0, 97.5 0, 150 100 S 247.5 200, 300 100 S 397.5 0, 450, 100" fill="none" stroke="#222" style="opacity:0.028666666666666674;stroke-width:0x16;" transform="translate(-75, 990)"/>
<path d="M0 100 C 52.5 0, 97.5 0, 150 100 S 247.5 200, 300 100 S 397.5 0, 450, 100" fill="none" stroke="#222" style="opacity:0.06333333333333332;stroke-width:0x16;" transform="translate(-75, 192)"/>
<path d="M0 100 C 52.5 0, 97.5 0, 150 100 S 247.5 200, 300 100 S 397.5 0, 450, 100" fill="none" stroke="#222" style="opacity:0.06333333333333332;stroke-width:0x16;" transform="translate(-75, 1012.8000000000001)"/>
<path d="M0 100 C 52.5 0, 97.5 0, 150 100 S 247.5 200, 300 100 S 397.5 0, 450, 100" fill="none" stroke="#222" style="opacity:0.028666666666666674;stroke-width:0x16;" transform="translate(-75, 214.8)"/>
<path d="M0 100 C 52.5 0, 97.5 0, 150 100 S 247.5 200, 300 100 S 397.5 0, 450, 100" fill="none" stroke="#222" style="opacity:0.028666666666666674;stroke-width:0x16;" transform="translate(-75, 1035.6000000000001)"/>
<path d="M0 100 C 52.5 0, 97.5 0, 150 100 S 247.5 200, 300 100 S 397.5 0, 450, 100" fill="none" stroke="#222" style="opacity:0.08066666666666666;stroke-width:0x16;" transform="translate(-75, 237.60000000000002)"/>
<path d="M0 100 C 52.5 0, 97.5 0, 150 100 S 247.5 200, 300 100 S 397.5 0, 450, 100" fill="none" stroke="#222" style="opacity:0.08066666666666666;stroke-width:0x16;" transform="translate(-75, 1058.4)"/>
<path d="M0 100 C 52.5 0, 97.5 0, 150 100 S 247.5 200, 300 100 S 397.5 0, 450, 100" fill="none" stroke="#222" style="opacity:0.098;stroke-width:0x16;" transform="translate(-75, 260.40000000000003)"/>
<path d="M0 100 C 52.5 0, 97.5 0, 150 100 S 247.5 200, 300 100 S 397.5 0, 450, 100" fill="none" stroke="#222" style="opacity:0.098;stroke-width:0x16;" transform="translate(-75, 1081.2)"/>
<path d="M0 100 C 52.5 0, 97.5 0, 150 100 S 247.5 200, 300 100 S 397.5 0, 450, 100" fill="none" stroke="#222" style="opacity:0.11533333333333333;stroke-width:0x16;" transform="translate(-75, 283.2)"/>
<path d="M0 100 C 52.5 0, 97.5 0, 150 100 S 247.5 200, 300 100 S 397.5 0, 450, 100" fill="none" stroke="#222" style="opacity:0.11533333333333333;stroke-width:0x16;" transform="translate(-75, 1104)"/>
<path d="M0 100 C 52.5 0, 97.5 0, 150 100 S 247.5 200, 300 100 S 397.5 0, 450, 100" fill="none" stroke="#ddd" style="opacity:0.124;stroke-width:0x16;" transform="translate(-75, 306)"/>
<path d="M0 100 C 52.5 0, 97.5 0, 150 100 S 247.5 200, 300 100 S 397.5 0, 450, 100" fill="none" stroke="#ddd" style="opacity:0.124;stroke-width:0x16;" transform="translate(-75, 1126.8000000000002)"/>
<path d="M0 100 C 52.5 0, 97.5 0, 150 100 S 247.5 200, 300 100 S 397.5 0, 450, 100" fill="none" stroke="#ddd" style="opacity:0.01999999999999999;stroke-width:0x16;" transform="translate(-75, 328.8)"/>
<path d="M0 100 C 52.5 0, 97.5 0, 150 100 S 247.5 200, 300 100 S 397.5 0, 450, 100" fill="none" stroke="#ddd" style="opacity:0.01999999999999999;stroke-width:0x16;" transform="translate(-75, 1149.6000000000001)"/>
<path d="M0 100 C 52.5 0, 97.5 0, 150 100 S 247.5 200, 300 100 S 397.5 0, 450, 100" fill="none" stroke="#222" style="opacity:0.028666666666666674;stroke-width:0x16;" transform="translate(-75, 351.6)"/>
<path d="M0 100 C 52.5 0, 97.5 0, 150 100 S 247.5 200, 300 100 S 397.5 0, 450, 100" fill="none" stroke="#222" style="opacity:0.028666666666666674;stroke-width:0x16;" transform="translate(-75, 1172.4)"/>
<path d="M0 100 C 52.5 0, 97.5 0, 150 100 S 247.5 200, 300 100 S 397.5 0, 450, 100" fill="none" stroke="#ddd" style="opacity:0.03733333333333333;stroke-width:0x16;" transform="translate(-75, 374.4)"/>
<path d="M0 100 C 52.5 0, 97.5 0, 150 100 S 247.5 200, 300 100 S 397.5 0, 450, 100" fill="none" stroke="#ddd" style="opacity:0.03733333333333333;stroke-width:0x16;" transform="translate(-75, 1195.2)"/>
<path d="M0 100 C 52.5 0, 97.5 0, 150 100 S 247.5 200, 300 100 S 397.5 0, 450, 100" fill="none" stroke="#222" style="opacity:0.046;stroke-width:0x16;" transform="translate(-75, 397.20000000000005)"/>
<path d="M0 100 C 52.5 0, 97.5 0, 150 100 S 247.5 200, 300 100 S 397.5 0, 450, 100" fill="none" stroke="#222" style="opacity:0.046;stroke-width:0x16;" transform="translate(-75, 1218)"/>
<path d="M0 100 C 52.5 0, 97.5 0, 150 100 S 247.5 200, 300 100 S 397.5 0, 450, 100" fill="none" stroke="#222" style="opacity:0.06333333333333332;stroke-width:0x16;" transform="translate(-75, 420)"/>
<path d="M0 100 C 52.5 0, 97.5 0, 150 100 S 247.5 200, 300 100 S 397.5 0, 450, 100" fill="none" stroke="#222" style="opacity:0.06333333333333332;stroke-width:0x16;" transform="translate(-75, 1240.8000000000002)"/>
<path d="M0 100 C 52.5 0, 97.5 0, 150 100 S 247.5 200, 300 100 S 397.5 0, 450, 100" fill="none" stroke="#ddd" style="opacity:0.01999999999999999;stroke-width:0x16;" transform="translate(-75, 442.80000000000007)"/>
<path d="M0 100 C 52.5 0, 97.5 0, 150 100 S 247.5 200, 300 100 S 397.5 0, 450, 100" fill="none" stroke="#ddd" style="opacity:0.01999999999999999;stroke-width:0x16;" transform="translate(-75, 1263.6000000000001)"/>
<path d="M0 100 C 52.5 0, 97.5 0, 150 100 S 247.5 200, 300 100 S 397.5 0, 450, 100" fill="none" stroke="#222" style="opacity:0.046;stroke-width:0x16;" transform="translate(-75, 465.6)"/>
<path d="M0 100 C 52.5 0, 97.5 0, 150 100 S 247.5 200, 300 100 S 397.5 0, 450, 100" fill="none" stroke="#222" style="opacity:0.046;stroke-width:0x16;" transform="translate(-75, 1286.4)"/>
<path d="M0 100 C 52.5 0, 97.5 0, 150 100 S 247.5 200, 300 100 S 397.5 0, 450, 100" fill="none" stroke="#222" style="opacity:0.028666666666666674;stroke-width:0x16;" transform="translate(-75, 488.4)"/>
<path d="M0 100 C 52.5 0, 97.5 0, 150 100 S 247.5 200, 300 100 S 397.5 0, 450, 100" fill="none" stroke="#222" style="opacity:0.028666666666666674;stroke-width:0x16;" transform="translate(-75, 1309.2)"/>
<path d="M0 100 C 52.5 0, 97.5 0, 150 100 S 247.5 200, 300 100 S 397.5 0, 450, 100" fill="none" stroke="#222" style="opacity:0.15;stroke-width:0x16;" transform="translate(-75, 511.20000000000005)"/>
<path d="M0 100 C 52.5 0, 97.5 0, 150 100 S 247.5 200, 300 100 S 397.5 0, 450, 100" fill="none" stroke="#222" style="opacity:0.15;stroke-width:0x16;" transform="translate(-75, 1332)"/>
<path d="M0 100 C 52.5 0, 97.5 0, 150 100 S 247.5 200, 300 100 S 397.5 0, 450, 100" fill="none" stroke="#222" style="opacity:0.11533333333333333;stroke-width:0x16;" transform="translate(-75, 534)"/>
<path d="M0 100 C 52.5 0, 97.5 0, 150 100 S 247.5 200, 300 100 S 397.5 0, 450, 100" fill="none" stroke="#222" style="opacity:0.11533333333333333;stroke-width:0x16;" transform="translate(-75, 1354.8000000000002)"/>
<path d="M0 100 C 52.5 0, 97.5 0, 150 100 S 247.5 200, 300 100 S 397.5 0, 450, 100" fill="none" stroke="#ddd" style="opacity:0.10666666666666666;stroke-width:0x16;" transform="translate(-75, 556.8000000000001)"/>
<path d="M0 100 C 52.5 0, 97.5 0, 150 100 S 247.5 200, 300 100 S 397.5 0, 450, 100" fill="none" stroke="#ddd" style="opacity:0.10666666666666666;stroke-width:0x16;" transform="translate(-75, 1377.6000000000001)"/>
<path d="M0 100 C 52.5 0, 97.5 0, 150 100 S 247.5 200, 300 100 S 397.5 0, 450, 100" fill="none" stroke="#ddd" style="opacity:0.124;stroke-width:0x16;" transform="translate(-75, 579.6)"/>
<path d="M0 100 C 52.5 0, 97.5 0, 150 100 S 247.5 200, 300 100 S 397.5 0, 450, 100" fill="none" stroke="#ddd" style="opacity:0.124;stroke-width:0x16;" transform="translate(-75, 1400.4)"/>
<path d="M0 100 C 52.5 0, 97.5 0, 150 100 S 247.5 200, 300 100 S 397.5 0, 450, 100" fill="none" stroke="#222" style="opacity:0.028666666666666674;stroke-width:0x16;" transform="translate(-75, 602.4)"/>
<path d="M0 100 C 52.5 0, 97.5 0, 150 100 S 247.5 200, 300 100 S 397.5 0, 450, 100" fill="none" stroke="#222" style="opacity:0.028666666666666674;stroke-width:0x16;" transform="translate(-75, 1423.2)"/>
<path d="M0 100 C 52.5 0, 97.5 0, 150 100 S 247.5 200, 300 100 S 397.5 0, 450, 100" fill="none" stroke="#ddd" style="opacity:0.124;stroke-width:0x16;" transform="translate(-75, 625.2)"/>
<path d="M0 100 C 52.5 0, 97.5 0, 150 100 S 247.5 200, 300 100 S 397.5 0, 450, 100" fill="none" stroke="#ddd" style="opacity:0.124;stroke-width:0x16;" transform="translate(-75, 1446)"/>
<path d="M0 100 C 52.5 0, 97.5 0, 150 100 S 247.5 200, 300 100 S 397.5 0, 450, 100" fill="none" stroke="#222" style="opacity:0.028666666666666674;stroke-width:0x16;" transform="translate(-75, 648)"/>
<path d="M0 100 C 52.5 0, 97.5 0, 150 100 S 247.5 200, 300 100 S 397.5 0, 450, 100" fill="none" stroke="#222" style="opacity:0.028666666666666674;stroke-width:0x16;" transform="translate(-75, 1468.8000000000002)"/>
</svg>