<svg height="60" width="60" xmlns="http://www.w3.org/2000/svg">
<rect fill="rgb(154, 44, 76)" height="100%" width="100%" x="0" y="0"/>
<rect fill="#ddd" fill-opacity="0.01999999999999999" height="10" stroke="#000" stroke-opacity="0.02" width="10" x="0" y="0"/>
<rect fill="#222" fill-opacity="0.06333333333333332" height="10" stroke="#000" stroke-opacity="0.02" width="10" x="10" y="0"/>
<rect fill="#ddd" fill-opacity="0.14133333333333334" height="10" stroke="#000" stroke-opacity="0.02" width="10" x="20" y="0"/>
<rect fill="#ddd" fill-opacity="0.01999999999999999" height="10" stroke="#000" stroke-opacity="0.02" width="10" x="30" y="0"/>
<rect fill="#ddd" fill-opacity="0.03733333333333333" height="10" stroke="#000" stroke-opacity="0.02" width="10" x="40" y="0"/>
<rect fill="#222" fill-opacity="0.13266666666666665" height="10" stroke="#000" stroke-opacity="0.02" width="10" x="50" y="0"/>
<rect fill="#ddd" fill-opacity="0.05466666666666667" height="10" stroke="#000" stroke-opacity="0.02" width="10" x="0" y="10"/>
<rect fill="#222" fill-opacity="0.098" height="10" stroke="#000" stroke-opacity="0.02" width="10" x="10" y="10"/>
<rect fill="#222" fill-opacity="0.08066666666666666" height="10" stroke="#000" stroke-opacity="0.02" width="10" x="20" y="10"/>
<rect fill="#ddd" fill-opacity="0.05466666666666667" height="10" stroke="#000" stroke-opacity="0.02" width="10" x="30" y="10"/>
<rect fill="#222" fill-opacity="0.046" height="10" stroke="#000" stroke-opacity="0.02" width="10" x="40" y="10"/>
<rect fill="#ddd" fill-opacity="0.124" height="10" stroke="#000" stroke-opacity="0.02" width="10" x="50" y="10"/>
<rect fill="#222" fill-opacity="0.028666666666666674" height="10" stroke="#000" stroke-opacity="0.02" width="10" x="0" y="20"/>
<rect fill="#222" fill-opacity="0.098" height="10" stroke="#000" stroke-opacity="0.02" width="10" x="10" y="20"/>
<rect fill="#ddd" fill-opacity="0.10666666666666666" height="10" stroke="#000" stroke-opacity="0.02" width="10" x="20" y="20"/>
<rect fill="#ddd" fill-opacity="0.08933333333333333" height="10" stroke="#000" stroke-opacity="0.02" width="10" x="30" y="20"/>
<rect fill="#222" fill-opacity="0.08066666666666666" height="10" stroke="#000" stroke-opacity="0.02" width="10" x="40" y="20"/>
<rect fill="#ddd" fill-opacity="0.03733333333333333" height="10" stroke="#000" stroke-opacity="0.02" width="10" x="50" y="20"/>
<rect fill="#ddd" fill-opacity="0.14133333333333334" height="10" stroke="#000" stroke-opacity="0.02" width="10" x="0" y="30"/>
<rect fill="#ddd" fill-opacity="0.14133333333333334" height="10" stroke="#000" stroke-opacity="0.02" width="10" x="10" y="30"/>
<rect fill="#ddd" fill-opacity="0.01999999999999999" height="10" stroke="#000" stroke-opacity="0.02" width="10" x="20" y="30"/>
<rect fill="#222" fill-opacity="0.15" height="10" stroke="#000" stroke-opacity="0.02" width="10" x="30" y="30"/>
<rect fill="#ddd" fill-opacity="0.10666666666666666" height="10" stroke="#000" stroke-opacity="0.02" width="10" x="40" y="30"/>
<rect fill="#ddd" fill-opacity="0.08933333333333333" height="10" stroke="#000" stroke-opacity="0.02" width="10" x="50" y="30"/>
<rect fill="#222" fill-opacity="0.06333333333333332" height="10" stroke="#000" stroke-opacity="0.02" width="10" x="0" y="40"/>
<rect fill="#ddd" fill-opacity="0.10666666666666666" height="10" stroke="#000" stroke-opacity="0.02" width="10" x="10" y="40"/>
<rect fill="#222" fill-opacity="0.13266666666666665" height="10" stroke="#000" stroke-opacity="0.02" width="10" x="20" y="40"/>
<rect fill="#ddd" fill-opacity="0.05466666666666667" height="10" stroke="#000" stroke-opacity="0.02" width="10" x="30" y="40"/>
<rect fill="#222" fill-opacity="0.098" height="10" stroke="#000" stroke-opacity="0.02" width="10" x="40" y="40"/>
<rect fill="#222" fill-opacity="0.13266666666666665" height="10" stroke="#000" stroke-opacity="0.02" width="10" x="50" y="40"/>
<rect fill="#222" fill-opacity="0.08066666666666666" height="10" stroke="#000" stroke-opacity="0.02" width="10" x="0" y="50"/>
<rect fill="#222" fill-opacity="0.028666666666666674" height="10" stroke="#000" stroke-opacity="0.02" width="10" x="10" y="50"/>
<rect fill="#ddd" fill-opacity="0.01999999999999999" height="10" stroke="#000" stroke-opacity="0.02" width="10" x="20" y="50"/>
<rect fill="#222" fill-opacity="0.046" height="10" stroke="#000" stroke-opacity="0.02" width="10" x="30" y="50"/>
<rect fill="#222" fill-opacity="0.11533333333333333" height="10" stroke="#000" stroke-opacity="0.02" width="10" x="40" y="50"/>
<rect fill="#222" fill-opacity="0.028666666666666674" height="10" stroke="#000" stroke-opacity="0.02" width="10" x="50" y="50"/>
</svg>