<svg height="205.8144941701887" width="178.2405804184277" xmlns="http://www.w3.org/2000/svg">
<rect fill="rgb(43, 34, 32)" height="100%" width="100%" x="0" y="0"/>
<rect fill="#ddd" fill-opacity="0.14133333333333334" height="37.666666666666664" stroke="#000" stroke-opacity="0.02" stroke-width="1" width="37.666666666666664" x="-18.833333333333332" y="-18.833333333333332"/>
<rect fill="#ddd" fill-opacity="0.14133333333333334" height="37.666666666666664" stroke="#000" stroke-opacity="0.02" stroke-width="1" width="37.666666666666664" x="159.40724708509435" y="-18.833333333333332"/>
<rect fill="#ddd" fill-opacity="0.14133333333333334" height="37.666666666666664" stroke="#000" stroke-opacity="0.02" stroke-width="1" width="37.666666666666664" x="-18.833333333333332" y="186.98116083685537"/>
<rect fill="#ddd" fill-opacity="0.14133333333333334" height="37.666666666666664" stroke="#000" stroke-opacity="0.02" stroke-width="1" width="37.666666666666664" x="159.40724708509435" y="186.98116083685537"/>
<rect fill="#222" fill-opacity="0.15" height="37.666666666666664" stroke="#000" stroke-opacity="0.02" stroke-width="1" width="37.666666666666664" x="70.28695687588052" y="32.62029020921385"/>
<rect fill="#222" fill-opacity="0.13266666666666665" height="37.666666666666664" stroke="#000" stroke-opacity="0.02" stroke-width="1" width="37.666666666666664" x="-18.833333333333332" y="84.07391375176103"/>
<rect fill="#222" fill-opacity="0.13266666666666665" height="37.666666666666664" stroke="#000" stroke-opacity="0.02" stroke-width="1" width="37.666666666666664" x="159.40724708509435" y="84.07391375176103"/>
<rect fill="#ddd" fill-opacity="0.124" height="37.666666666666664" stroke="#000" stroke-opacity="0.02" stroke-width="1" width="37.666666666666664" x="70.28695687588052" y="135.52753729430822"/>
<polyline fill="#ddd" fill-opacity="0.03733333333333333" points="0,0,32.62029020921385,18.833333333333332,0,37.666666666666664,0,0" stroke="#000" stroke-opacity="0.02" stroke-width="1" transform="translate(18.833333333333332, -18.833333333333332) rotate(0, 18.833333333333332, 16.310145104606924)"/>
<polyline fill="#ddd" fill-opacity="0.03733333333333333" points="0,0,32.62029020921385,18.833333333333332,0,37.666666666666664,0,0" stroke="#000" stroke-opacity="0.02" stroke-width="1" transform="translate(18.833333333333332, 224.64782750352205) rotate(0, 18.833333333333332, 16.310145104606924) scale(1, -1)"/>
<polyline fill="#222" fill-opacity="0.13266666666666665" points="0,0,32.62029020921385,18.833333333333332,0,37.666666666666664,0,0" stroke="#000" stroke-opacity="0.02" stroke-width="1" transform="translate(159.40724708509435, -18.833333333333332) rotate(0, 18.833333333333332, 16.310145104606924) scale(-1, 1)"/>
<polyline fill="#222" fill-opacity="0.13266666666666665" points="0,0,32.62029020921385,18.833333333333332,0,37.666666666666664,0,0" stroke="#000" stroke-opacity="0.02" stroke-width="1" transform="translate(159.40724708509435, 224.64782750352205) rotate(0, 18.833333333333332, 16.310145104606924) scale(-1, -1)"/>
<polyline fill="#222" fill-opacity="0.028666666666666674" points="0,0,32.62029020921385,18.833333333333332,0,37.666666666666664,0,0" stroke="#000" stroke-opacity="0.02" stroke-width="1" transform="translate(107.95362354254718, 32.62029020921385)"/>
<polyline fill="#ddd" fill-opacity="0.08933333333333333" points="0,0,32.62029020921385,18.833333333333332,0,37.666666666666664,0,0" stroke="#000" stroke-opacity="0.02" stroke-width="1" transform="translate(70.28695687588052, 32.62029020921385) scale(-1, 1)"/>
<polyline fill="#ddd" fill-opacity="0.124" points="0,0,32.62029020921385,18.833333333333332,0,37.666666666666664,0,0" stroke="#000" stroke-opacity="0.02" stroke-width="1" transform="translate(107.95362354254718, 173.19420396097485) scale(1, -1)"/>
<polyline fill="#222" fill-opacity="0.028666666666666674" points="0,0,32.62029020921385,18.833333333333332,0,37.666666666666664,0,0" stroke="#000" stroke-opacity="0.02" stroke-width="1" transform="translate(70.28695687588052, 173.19420396097485) scale(-1, -1)"/>
<polyline fill="#ddd" fill-opacity="0.072" points="0,0,32.62029020921385,18.833333333333332,0,37.666666666666664,0,0" stroke="#000" stroke-opacity="0.02" stroke-width="1" transform="translate(18.833333333333332, 84.07391375176103)"/>
<polyline fill="#ddd" fill-opacity="0.10666666666666666" points="0,0,32.62029020921385,18.833333333333332,0,37.666666666666664,0,0" stroke="#000" stroke-opacity="0.02" stroke-width="1" transform="translate(159.40724708509435, 84.07391375176103) scale(-1, 1)"/>
<rect fill="#222" fill-opacity="0.08066666666666666" height="37.666666666666664" stroke="#000" stroke-opacity="0.02" stroke-width="1" transform="translate(18.833333333333332, 18.833333333333332) rotate(-30, 0, 0)" width="37.666666666666664" x="0" y="0"/>
<rect fill="#222" fill-opacity="0.06333333333333332" height="37.666666666666664" stroke="#000" stroke-opacity="0.02" stroke-width="1" transform="scale(-1, 1) translate(-159.40724708509435, 18.833333333333332) rotate(-30, 0, 0)" width="37.666666666666664" x="0" y="0"/>
<rect fill="#ddd" fill-opacity="0.05466666666666667" height="37.666666666666664" stroke="#000" stroke-opacity="0.02" stroke-width="1" transform="translate(18.833333333333332, 46.40724708509436) rotate(30, 0, 37.666666666666664)" width="37.666666666666664" x="0" y="0"/>
<rect fill="#222" fill-opacity="0.11533333333333333" height="37.666666666666664" stroke="#000" stroke-opacity="0.02" stroke-width="1" transform="scale(-1, 1) translate(-159.40724708509435, 46.40724708509436) rotate(30, 0, 37.666666666666664)" width="37.666666666666664" x="0" y="0"/>
<rect fill="#ddd" fill-opacity="0.01999999999999999" height="37.666666666666664" stroke="#000" stroke-opacity="0.02" stroke-width="1" transform="scale(1, -1) translate(18.833333333333332, -159.40724708509435) rotate(30, 0, 37.666666666666664)" width="37.666666666666664" x="0" y="0"/>
<rect fill="#222" fill-opacity="0.046" height="37.666666666666664" stroke="#000" stroke-opacity="0.02" stroke-width="1" transform="scale(-1, -1) translate(-159.40724708509435, -159.40724708509435) rotate(30, 0, 37.666666666666664)" width="37.666666666666664" x="0" y="0"/>
<rect fill="#222" fill-opacity="0.13266666666666665" height="37.666666666666664" stroke="#000" stroke-opacity="0.02" stroke-width="1" transform="scale(1, -1) translate(18.833333333333332, -186.98116083685537) rotate(-30, 0, 0)" width="37.666666666666664" x="0" y="0"/>
<rect fill="#ddd" fill-opacity="0.03733333333333333" height="37.666666666666664" stroke="#000" stroke-opacity="0.02" stroke-width="1" transform="scale(-1, -1) translate(-159.40724708509435, -186.98116083685537) rotate(-30, 0, 0)" width="37.666666666666664" x="0" y="0"/>
</svg>