<svg height="280.5922308261581" width="162" xmlns="http://www.w3.org/2000/svg">
<rect fill="rgb(28, 43, 25)" height="100%" width="100%" x="0" y="0"/>
<polyline fill="#222" fill-opacity="0.098" points="27,0,54,46.76537180435968,0,46.76537180435968,27,0" stroke="#000" stroke-opacity="0.02" transform="translate(-27, 0) rotate(180, 27, 23.38268590217984)"/>
<polyline fill="#222" fill-opacity="0.098" points="27,0,54,46.76537180435968,0,46.76537180435968,27,0" stroke="#000" stroke-opacity="0.02" transform="translate(135, 0) rotate(180, 27, 23.38268590217984)"/>
<polyline fill="#ddd" fill-opacity="0.10666666666666666" points="27,0,54,46.76537180435968,0,46.76537180435968,27,0" stroke="#000" stroke-opacity="0.02" transform="translate(0, 0) rotate(0, 27, 23.38268590217984)"/>
<polyline fill="#222" fill-opacity="0.15" points="27,0,54,46.76537180435968,0,46.76537180435968,27,0" stroke="#000" stroke-opacity="0.02" transform="translate(27, 0) rotate(180, 27, 23.38268590217984)"/>
<polyline fill="#222" fill-opacity="0.06333333333333332" points="27,0,54,46.76537180435968,0,46.76537180435968,27,0" stroke="#000" stroke-opacity="0.02" transform="translate(54, 0) rotate(0, 27, 23.38268590217984)"/>
<polyline fill="#222" fill-opacity="0.098" points="27,0,54,46.76537180435968,0,46.76537180435968,27,0" stroke="#000" stroke-opacity="0.02" transform="translate(81, 0) rotate(180, 27, 23.38268590217984)"/>
<polyline fill="#222" fill-opacity="0.06333333333333332" points="27,0,54,46.76537180435968,0,46.76537180435968,27,0" stroke="#000" stroke-opacity="0.02" transform="translate(108, 0) rotate(0, 27, 23.38268590217984)"/>
<polyline fill="#222" fill-opacity="0.15" points="27,0,54,46.76537180435968,0,46.76537180435968,27,0" stroke="#000" stroke-opacity="0.02" transform="translate(-27, 46.76537180435968) rotate(0, 27, 23.38268590217984)"/>
<polyline fill="#222" fill-opacity="0.15" points="27,0,54,46.76537180435968,0,46.76537180435968,27,0" stroke="#000" stroke-opacity="0.02" transform="translate(135, 46.76537180435968) rotate(0, 27, 23.38268590217984)"/>
<polyline fill="#222" fill-opacity="0.15" points="27,0,54,46.76537180435968,0,46.76537180435968,27,0" stroke="#000" stroke-opacity="0.02" transform="translate(0, 46.76537180435968) rotate(180, 27, 23.38268590217984)"/>
<polyline fill="#222" fill-opacity="0.08066666666666666" points="27,0,54,46.76537180435968,0,46.76537180435968,27,0" stroke="#000" stroke-opacity="0.02" transform="translate(27, 46.76537180435968) rotate(0, 27, 23.38268590217984)"/>
<polyline fill="#ddd" fill-opacity="0.01999999999999999" points="27,0,54,46.76537180435968,0,46.76537180435968,27,0" stroke="#000" stroke-opacity="0.02" transform="translate(54, 46.76537180435968) rotate(180, 27, 23.38268590217984)"/>
<polyline fill="#ddd" fill-opacity="0.05466666666666667" points="27,0,54,46.76537180435968,0,46.76537180435968,27,0" stroke="#000" stroke-opacity="0.02" transform="translate(81, 46.76537180435968) rotate(0, 27, 23.38268590217984)"/>
<polyline fill="#222" fill-opacity="0.06333333333333332" points="27,0,54,46.76537180435968,0,46.76537180435968,27,0" stroke="#000" stroke-opacity="0.02" transform="translate(108, 46.76537180435968) rotate(180, 27, 23.38268590217984)"/>
<polyline fill="#222" fill-opacity="0.13266666666666665" points="27,0,54,46.76537180435968,0,46.76537180435968,27,0" stroke="#000" stroke-opacity="0.02" transform="translate(-27, 93.53074360871936) rotate(180, 27, 23.38268590217984)"/>
<polyline fill="#222" fill-opacity="0.13266666666666665" points="27,0,54,46.76537180435968,0,46.76537180435968,27,0" stroke="#000" stroke-opacity="0.02" transform="translate(135, 93.53074360871936) rotate(180, 27, 23.38268590217984)"/>
<polyline fill="#222" fill-opacity="0.06333333333333332" points="27,0,54,46.76537180435968,0,46.76537180435968,27,0" stroke="#000" stroke-opacity="0.02" transform="translate(0, 93.53074360871936) rotate(0, 27, 23.38268590217984)"/>
<polyline fill="#222" fill-opacity="0.08066666666666666" points="27,0,54,46.76537180435968,0,46.76537180435968,27,0" stroke="#000" stroke-opacity="0.02" transform="translate(27, 93.53074360871936) rotate(180, 27, 23.38268590217984)"/>
<polyline fill="#222" fill-opacity="0.15" points="27,0,54,46.76537180435968,0,46.76537180435968,27,0" stroke="#000" stroke-opacity="0.02" transform="translate(54, 93.53074360871936) rotate(0, 27, 23.38268590217984)"/>
<polyline fill="#ddd" fill-opacity="0.072" points="27,0,54,46.76537180435968,0,46.76537180435968,27,0" stroke="#000" stroke-opacity="0.02" transform="translate(81, 93.53074360871936) rotate(180, 27, 23.38268590217984)"/>
<polyline fill="#ddd" fill-opacity="0.03733333333333333" points="27,0,54,46.76537180435968,0,46.76537180435968,27,0" stroke="#000" stroke-opacity="0.02" transform="translate(108, 93.53074360871936) rotate(0, 27, 23.38268590217984)"/>
<polyline fill="#ddd" fill-opacity="0.124" points="27,0,54,46.76537180435968,0,46.76537180435968,27,0" stroke="#000" stroke-opacity="0.02" transform="translate(-27, 140.29611541307904) rotate(0, 27, 23.38268590217984)"/>
<polyline fill="#ddd" fill-opacity="0.124" points="27,0,54,46.76537180435968,0,46.76537180435968,27,0" stroke="#000" stroke-opacity="0.02" transform="translate(135, 140.29611541307904) rotate(0, 27, 23.38268590217984)"/>
<polyline fill="#ddd" fill-opacity="0.08933333333333333" points="27,0,54,46.76537180435968,0,46.76537180435968,27,0" stroke="#000" stroke-opacity="0.02" transform="translate(0, 140.29611541307904) rotate(180, 27, 23.38268590217984)"/>
<polyline fill="#222" fill-opacity="0.028666666666666674" points="27,0,54,46.76537180435968,0,46.76537180435968,27,0" stroke="#000" stroke-opacity="0.02" transform="translate(27, 140.29611541307904) rotate(0, 27, 23.38268590217984)"/>
<polyline fill="#ddd" fill-opacity="0.072" points="27,0,54,46.76537180435968,0,46.76537180435968,27,0" stroke="#000" stroke-opacity="0.02" transform="translate(54, 140.29611541307904) rotate(180, 27, 23.38268590217984)"/>
<polyline fill="#222" fill-opacity="0.046" points="27,0,54,46.76537180435968,0,46.76537180435968,27,0" stroke="#000" stroke-opacity="0.02" transform="translate(81, 140.29611541307904) rotate(0, 27, 23.38268590217984)"/>
<polyline fill="#222" fill-opacity="0.028666666666666674" points="27,0,54,46.76537180435968,0,46.76537180435968,27,0" stroke="#000" stroke-opacity="0.02" transform="translate(108, 140.29611541307904) rotate(180, 27, 23.38268590217984)"/>
<polyline fill="#222" fill-opacity="0.13266666666666665" points="27,0,54,46.76537180435968,0,46.76537180435968,27,0" stroke="#000" stroke-opacity="0.02" transform="translate(-27, 187.06148721743872) rotate(180, 27, 23.38268590217984)"/>
<polyline fill="#222" fill-opacity="0.13266666666666665" points="27,0,54,46.76537180435968,0,46.76537180435968,27,0" stroke="#000" stroke-opacity="0.02" transform="translate(135, 187.06148721743872) rotate(180, 27, 23.38268590217984)"/>
<polyline fill="#222" fill-opacity="0.13266666666666665" points="27,0,54,46.76537180435968,0,46.76537180435968,27,0" stroke="#000" stroke-opacity="0.02" transform="translate(0, 187.06148721743872) rotate(0, 27, 23.38268590217984)"/>
<polyline fill="#ddd" fill-opacity="0.124" points="27,0,54,46.76537180435968,0,46.76537180435968,27,0" stroke="#000" stroke-opacity="0.02" transform="translate(27, 187.06148721743872) rotate(180, 27, 23.38268590217984)"/>
<polyline fill="#222" fill-opacity="0.08066666666666666" points="27,0,54,46.76537180435968,0,46.76537180435968,27,0" stroke="#000" stroke-opacity="0.02" transform="translate(54, 187.06148721743872) rotate(0, 27, 23.38268590217984)"/>
<polyline fill="#222" fill-opacity="0.15" points="27,0,54,46.76537180435968,0,46.76537180435968,27,0" stroke="#000" stroke-opacity="0.02" transform="translate(81, 187.06148721743872) rotate(180, 27, 23.38268590217984)"/>
<polyline fill="#ddd" fill-opacity="0.072" points="27,0,54,46.76537180435968,0,46.76537180435968,27,0" stroke="#000" stroke-opacity="0.02" transform="translate(108, 187.06148721743872) rotate(0, 27, 23.38268590217984)"/>
<polyline fill="#ddd" fill-opacity="0.05466666666666667" points="27,0,54,46.76537180435968,0,46.76537180435968,27,0" stroke="#000" stroke-opacity="0.02" transform="translate(-27, 233.8268590217984) rotate(0, 27, 23.38268590217984)"/>
<polyline fill="#ddd" fill-opacity="0.05466666666666667" points="27,0,54,46.76537180435968,0,46.76537180435968,27,0" stroke="#000" stroke-opacity="0.02" transform="translate(135, 233.8268590217984) rotate(0, 27, 23.38268590217984)"/>
<polyline fill="#222" fill-opacity="0.06333333333333332" points="27,0,54,46.76537180435968,0,46.76537180435968,27,0" stroke="#000" stroke-opacity="0.02" transform="translate(0, 233.8268590217984) rotate(180, 27, 23.38268590217984)"/>
<polyline fill="#ddd" fill-opacity="0.05466666666666667" points="27,0,54,46.76537180435968,0,46.76537180435968,27,0" stroke="#000" stroke-opacity="0.02" transform="translate(27, 233.8268590217984) rotate(0, 27, 23.38268590217984)"/>
<polyline fill="#222" fill-opacity="0.08066666666666666" points="27,0,54,46.76537180435968,0,46.76537180435968,27,0" stroke="#000" stroke-opacity="0.02" transform="translate(54, 233.8268590217984) rotate(180, 27, 23.38268590217984)"/>
<polyline fill="#ddd" fill-opacity="0.05466666666666667" points="27,0,54,46.76537180435968,0,46.76537180435968,27,0" stroke="#000" stroke-opacity="0.02" transform="translate(81, 233.8268590217984) rotate(0, 27, 23.38268590217984)"/>
<polyline fill="#ddd" fill-opacity="0.03733333333333333" points="27,0,54,46.76537180435968,0,46.76537180435968,27,0" stroke="#000" stroke-opacity="0.02" transform="translate(108, 233.8268590217984) rotate(180, 27, 23.38268590217984)"/>
</svg>