<svg height="110.331" width="110.331" xmlns="http://www.w3.org/2000/svg">
<rect fill="rgb(97, 49, 82)" height="100%" width="100%" x="0" y="0"/>
<g fill="#222" style="opacity:0.046;" transform="translate(-18.3885, -18.3885) rotate(45, 18.3885, 18.3885)">
<rect height="39" width="13" x="13" y="0"/>
<rect height="13" width="39" x="0" y="13"/>
</g>
<g fill="#222" style="opacity:0.046;" transform="translate(91.9425, -18.3885) rotate(45, 18.3885, 18.3885)">
<rect height="39" width="13" x="13" y="0"/>
<rect height="13" width="39" x="0" y="13"/>
</g>
<g fill="#222" style="opacity:0.046;" transform="translate(-18.3885, 211.46775000000002) rotate(45, 18.3885, 18.3885)">
<rect height="39" width="13" x="13" y="0"/>
<rect height="13" width="39" x="0" y="13"/>
</g>
<g fill="#222" style="opacity:0.046;" transform="translate(91.9425, -128.7195) rotate(45, 18.3885, 18.3885)">
<rect height="39" width="13" x="13" y="0"/>
<rect height="13" width="39" x="0" y="13"/>
</g>
<g fill="#222" style="opacity:0.08066666666666666;" transform="translate(0, -9.19425) rotate(45, 18.3885, 18.3885)">
<rect height="39" width="13" x="13" y="0"/>
<rect height="13" width="39" x="0" y="13"/>
</g>
<g fill="#222" style="opacity:0.08066666666666666;" transform="translate(0, 202.2735) rotate(45, 18.3885, 18.3885)">
<rect height="39" width="13" x="13" y="0"/>
<rect height="13" width="39" x="0" y="13"/>
</g>
<g fill="#222" style="opacity:0.08066666666666666;" transform="translate(18.3885, -18.3885) rotate(45, 18.3885, 18.3885)">
<rect height="39" width="13" x="13" y="0"/>
<rect height="13" width="39" x="0" y="13"/>
</g>
<g fill="#222" style="opacity:0.08066666666666666;" transform="translate(18.3885, 211.46775000000002) rotate(45, 18.3885, 18.3885)">
<rect height="39" width="13" x="13" y="0"/>
<rect height="13" width="39" x="0" y="13"/>
</g>
<g fill="#222" style="opacity:0.098;" transform="translate(36.777, -9.19425) rotate(45, 18.3885, 18.3885)">
<rect height="39" width="13" x="13" y="0"/>
<rect height="13" width="39" x="0" y="13"/>
</g>
<g fill="#222" style="opacity:0.098;" transform="translate(36.777, 202.2735) rotate(45, 18.3885, 18.3885)">
<rect height="39" width="13" x="13" y="0"/>
<rect height="13" width="39" x="0" y="13"/>
</g>
<g fill="#222" style="opacity:0.046;" transform="translate(55.1655, -18.3885) rotate(45, 18.3885, 18.3885)">
<rect height="39" width="13" x="13" y="0"/>
<rect height="13" width="39" x="0" y="13"/>
</g>
<g fill="#222" style="opacity:0.046;" transform="translate(55.1655, 211.46775000000002) rotate(45, 18.3885, 18.3885)">
<rect height="39" width="13" x="13" y="0"/>
<rect height="13" width="39" x="0" y="13"/>
</g>
<g fill="#ddd" style="opacity:0.08933333333333333;" transform="translate(73.554, -9.19425) rotate(45, 18.3885, 18.3885)">
<rect height="39" width="13" x="13" y="0"/>
<rect height="13" width="39" x="0" y="13"/>
</g>
<g fill="#ddd" style="opacity:0.08933333333333333;" transform="translate(73.554, 202.2735) rotate(45, 18.3885, 18.3885)">
<rect height="39" width="13" x="13" y="0"/>
<rect height="13" width="39" x="0" y="13"/>
</g>
<g fill="#ddd" style="opacity:0.03733333333333333;" transform="translate(-18.3885, 0) rotate(45, 18.3885, 18.3885)">
<rect height="39" width="13" x="13" y="0"/>
<rect height="13" width="39" x="0" y="13"/>
</g>
<g fill="#ddd" style="opacity:0.03733333333333333;" transform="translate(91.9425, 0) rotate(45, 18.3885, 18.3885)">
<rect height="39" width="13" x="13" y="0"/>
<rect height="13" width="39" x="0" y="13"/>
</g>
<g fill="#222" style="opacity:0.098;" transform="translate(0, 9.19425) rotate(45, 18.3885, 18.3885)">
<rect height="39" width="13" x="13" y="0"/>
<rect height="13" width="39" x="0" y="13"/>
</g>
<g fill="#222" style="opacity:0.06333333333333332;" transform="translate(18.3885, 0) rotate(45, 18.3885, 18.3885)">
<rect height="39" width="13" x="13" y="0"/>
<rect height="13" width="39" x="0" y="13"/>
</g>
<g fill="#ddd" style="opacity:0.14133333333333334;" transform="translate(36.777, 9.19425) rotate(45, 18.3885, 18.3885)">
<rect height="39" width="13" x="13" y="0"/>
<rect height="13" width="39" x="0" y="13"/>
</g>
<g fill="#222" style="opacity:0.11533333333333333;" transform="translate(55.1655, 0) rotate(45, 18.3885, 18.3885)">
<rect height="39" width="13" x="13" y="0"/>
<rect height="13" width="39" x="0" y="13"/>
</g>
<g fill="#ddd" style="opacity:0.072;" transform="translate(73.554, 9.19425) rotate(45, 18.3885, 18.3885)">
<rect height="39" width="13" x="13" y="0"/>
<rect height="13" width="39" x="0" y="13"/>
</g>
<g fill="#ddd" style="opacity:0.03733333333333333;" transform="translate(-18.3885, 18.3885) rotate(45, 18.3885, 18.3885)">
<rect height="39" width="13" x="13" y="0"/>
<rect height="13" width="39" x="0" y="13"/>
</g>
<g fill="#ddd" style="opacity:0.03733333333333333;" transform="translate(91.9425, 18.3885) rotate(45, 18.3885, 18.3885)">
<rect height="39" width="13" x="13" y="0"/>
<rect height="13" width="39" x="0" y="13"/>
</g>
<g fill="#222" style="opacity:0.028666666666666674;" transform="translate(0, 27.582750000000004) rotate(45, 18.3885, 18.3885)">
<rect height="39" width="13" x="13" y="0"/>
<rect height="13" width="39" x="0" y="13"/>
</g>
<g fill="#222" style="opacity:0.098;" transform="translate(18.3885, 18.3885) rotate(45, 18.3885, 18.3885)">
<rect height="39" width="13" x="13" y="0"/>
<rect height="13" width="39" x="0" y="13"/>
</g>
<g fill="#222" style="opacity:0.13266666666666665;" transform="translate(36.777, 27.582750000000004) rotate(45, 18.3885, 18.3885)">
<rect height="39" width="13" x="13" y="0"/>
<rect height="13" width="39" x="0" y="13"/>
</g>
<g fill="#222" style="opacity:0.13266666666666665;" transform="translate(55.1655, 18.3885) rotate(45, 18.3885, 18.3885)">
<rect height="39" width="13" x="13" y="0"/>
<rect height="13" width="39" x="0" y="13"/>
</g>
<g fill="#ddd" style="opacity:0.14133333333333334;" transform="translate(73.554, 27.582750000000004) rotate(45, 18.3885, 18.3885)">
<rect height="39" width="13" x="13" y="0"/>
<rect height="13" width="39" x="0" y="13"/>
</g>
<g fill="#ddd" style="opacity:0.124;" transform="translate(-18.3885, 36.776999999999994) rotate(45, 18.3885, 18.3885)">
<rect height="39" width="13" x="13" y="0"/>
<rect height="13" width="39" x="0" y="13"/>
</g>
<g fill="#ddd" style="opacity:0.124;" transform="translate(91.9425, 36.776999999999994) rotate(45, 18.3885, 18.3885)">
<rect height="39" width="13" x="13" y="0"/>
<rect height="13" width="39" x="0" y="13"/>
</g>
<g fill="#222" style="opacity:0.046;" transform="translate(0, 45.97124999999999) rotate(45, 18.3885, 18.3885)">
<rect height="39" width="13" x="13" y="0"/>
<rect height="13" width="39" x="0" y="13"/>
</g>
<g fill="#ddd" style="opacity:0.03733333333333333;" transform="translate(18.3885, 36.776999999999994) rotate(45, 18.3885, 18.3885)">
<rect height="39" width="13" x="13" y="0"/>
<rect height="13" width="39" x="0" y="13"/>
</g>
<g fill="#222" style="opacity:0.06333333333333332;" transform="translate(36.777, 45.97124999999999) rotate(45, 18.3885, 18.3885)">
<rect height="39" width="13" x="13" y="0"/>
<rect height="13" width="39" x="0" y="13"/>
</g>
<g fill="#222" style="opacity:0.098;" transform="translate(55.1655, 36.776999999999994) rotate(45, 18.3885, 18.3885)">
<rect height="39" width="13" x="13" y="0"/>
<rect height="13" width="39" x="0" y="13"/>
</g>
<g fill="#222" style="opacity:0.028666666666666674;" transform="translate(73.554, 45.97124999999999) rotate(45, 18.3885, 18.3885)">
<rect height="39" width="13" x="13" y="0"/>
<rect height="13" width="39" x="0" y="13"/>
</g>
<g fill="#222" style="opacity:0.11533333333333333;" transform="translate(-18.3885, 55.16550000000001) rotate(45, 18.3885, 18.3885)">
<rect height="39" width="13" x="13" y="0"/>
<rect height="13" width="39" x="0" y="13"/>
</g>
<g fill="#222" style="opacity:0.11533333333333333;" transform="translate(91.9425, 55.16550000000001) rotate(45, 18.3885, 18.3885)">
<rect height="39" width="13" x="13" y="0"/>
<rect height="13" width="39" x="0" y="13"/>
</g>
<g fill="#ddd" style="opacity:0.01999999999999999;" transform="translate(0, 64.35975000000002) rotate(45, 18.3885, 18.3885)">
<rect height="39" width="13" x="13" y="0"/>
<rect height="13" width="39" x="0" y="13"/>
</g>
<g fill="#ddd" style="opacity:0.01999999999999999;" transform="translate(18.3885, 55.16550000000001) rotate(45, 18.3885, 18.3885)">
<rect height="39" width="13" x="13" y="0"/>
<rect height="13" width="39" x="0" y="13"/>
</g>
<g fill="#222" style="opacity:0.08066666666666666;" transform="translate(36.777, 64.35975000000002) rotate(45, 18.3885, 18.3885)">
<rect height="39" width="13" x="13" y="0"/>
<rect height="13" width="39" x="0" y="13"/>
</g>
<g fill="#222" style="opacity:0.11533333333333333;" transform="translate(55.1655, 55.16550000000001) rotate(45, 18.3885, 18.3885)">
<rect height="39" width="13" x="13" y="0"/>
<rect height="13" width="39" x="0" y="13"/>
</g>
<g fill="#222" style="opacity:0.11533333333333333;" transform="translate(73.554, 64.35975000000002) rotate(45, 18.3885, 18.3885)">
<rect height="39" width="13" x="13" y="0"/>
<rect height="13" width="39" x="0" y="13"/>
</g>
<g fill="#222" style="opacity:0.13266666666666665;" transform="translate(-18.3885, 73.554) rotate(45, 18.3885, 18.3885)">
<rect height="39" width="13" x="13" y="0"/>
<rect height="13" width="39" x="0" y="13"/>
</g>
<g fill="#222" style="opacity:0.13266666666666665;" transform="translate(91.9425, 73.554) rotate(45, 18.3885, 18.3885)">
<rect height="39" width="13" x="13" y="0"/>
<rect height="13" width="39" x="0" y="13"/>
</g>
<g fill="#222" style="opacity:0.13266666666666665;" transform="translate(-18.3885, -36.777000000000015) rotate(45, 18.3885, 18.3885)">
<rect height="39" width="13" x="13" y="0"/>
<rect height="13" width="39" x="0" y="13"/>
</g>
<g fill="#222" style="opacity:0.13266666666666665;" transform="translate(0, 82.74825000000001) rotate(45, 18.3885, 18.3885)">
<rect height="39" width="13" x="13" y="0"/>
<rect height="13" width="39" x="0" y="13"/>
</g>
<g fill="#222" style="opacity:0.13266666666666665;" transform="translate(0, -27.582750000000004) rotate(45, 18.3885, 18.3885)">
<rect height="39" width="13" x="13" y="0"/>
<rect height="13" width="39" x="0" y="13"/>
</g>
<g fill="#ddd" style="opacity:0.03733333333333333;" transform="translate(18.3885, 73.554) rotate(45, 18.3885, 18.3885)">
<rect height="39" width="13" x="13" y="0"/>
<rect height="13" width="39" x="0" y="13"/>
</g>
<g fill="#ddd" style="opacity:0.03733333333333333;" transform="translate(18.3885, -36.777000000000015) rotate(45, 18.3885, 18.3885)">
<rect height="39" width="13" x="13" y="0"/>
<rect height="13" width="39" x="0" y="13"/>
</g>
<g fill="#222" style="opacity:0.13266666666666665;" transform="translate(36.777, 82.74825000000001) rotate(45, 18.3885, 18.3885)">
<rect height="39" width="13" x="13" y="0"/>
<rect height="13" width="39" x="0" y="13"/>
</g>
<g fill="#222" style="opacity:0.13266666666666665;" transform="translate(36.777, -27.582750000000004) rotate(45, 18.3885, 18.3885)">
<rect height="39" width="13" x="13" y="0"/>
<rect height="13" width="39" x="0" y="13"/>
</g>
<g fill="#222" style="opacity:0.028666666666666674;" transform="translate(55.1655, 73.554) rotate(45, 18.3885, 18.3885)">
<rect height="39" width="13" x="13" y="0"/>
<rect height="13" width="39" x="0" y="13"/>
</g>
<g fill="#222" style="opacity:0.028666666666666674;" transform="translate(55.1655, -36.777000000000015) rotate(45, 18.3885, 18.3885)">
<rect height="39" width="13" x="13" y="0"/>
<rect height="13" width="39" x="0" y="13"/>
</g>
<g fill="#222" style="opacity:0.13266666666666665;" transform="translate(73.554, 82.74825000000001) rotate(45, 18.3885, 18.3885)">
<rect height="39" width="13" x="13" y="0"/>
<rect height="13" width="39" x="0" y="13"/>
</g>
<g fill="#222" style="opacity:0.13266666666666665;" transform="translate(73.554, -27.582750000000004) rotate(45, 18.3885, 18.3885)">
<rect height="39" width="13" x="13" y="0"/>
<rect height="13" width="39" x="0" y="13"/>
</g>
</svg>