<svg height="158.40001" width="240" xmlns="http://www.w3.org/2000/svg">
<rect fill="#998877" height="100%" width="100%" x="0" y="0"/>
<g fill="#222" fill-opacity="0.08352941" stroke="#000" stroke-opacity="0.02" stroke-width="1" transform="translate(0, -30)">
<polyline points="0,0,30,20.399998,30,60,0,39.600002,0,0"/>
<polyline points="30,20.399998,60,0,60,39.600002,30,60,30,20.399998"/>
</g>
<g fill="#222" fill-opacity="0.08352941" stroke="#000" stroke-opacity="0.02" stroke-width="1" transform="translate(0, 128.40001)">
<polyline points="0,0,30,20.399998,30,60,0,39.600002,0,0"/>
<polyline points="30,20.399998,60,0,60,39.600002,30,60,30,20.399998"/>
</g>
<g fill="#222" fill-opacity="0.08666667" stroke="#000" stroke-opacity="0.02" stroke-width="1" transform="translate(60, -30)">
<polyline points="0,0,30,20.399998,30,60,0,39.600002,0,0"/>
<polyline points="30,20.399998,60,0,60,39.600002,30,60,30,20.399998"/>
</g>
<g fill="#222" fill-opacity="0.08666667" stroke="#000" stroke-opacity="0.02" stroke-width="1" transform="translate(60, 128.40001)">
<polyline points="0,0,30,20.399998,30,60,0,39.600002,0,0"/>
<polyline points="30,20.399998,60,0,60,39.600002,30,60,30,20.399998"/>
</g>
<g fill="#222" fill-opacity="0.04431373" stroke="#000" stroke-opacity="0.02" stroke-width="1" transform="translate(120, -30)">
<polyline points="0,0,30,20.399998,30,60,0,39.600002,0,0"/>
<polyline points="30,20.399998,60,0,60,39.600002,30,60,30,20.399998"/>
</g>
<g fill="#222" fill-opacity="0.04431373" stroke="#000" stroke-opacity="0.02" stroke-width="1" transform="translate(120, 128.40001)">
<polyline points="0,0,30,20.399998,30,60,0,39.600002,0,0"/>
<polyline points="30,20.399998,60,0,60,39.600002,30,60,30,20.399998"/>
</g>
<g fill="#222" fill-opacity="0.21843138" stroke="#000" stroke-opacity="0.02" stroke-width="1" transform="translate(180, -30)">
<polyline points="0,0,30,20.399998,30,60,0,39.600002,0,0"/>
<polyline points="30,20.399998,60,0,60,39.600002,30,60,30,20.399998"/>
</g>
<g fill="#222" fill-opacity="0.21843138" stroke="#000" stroke-opacity="0.02" stroke-width="1" transform="translate(180, 128.40001)">
<polyline points="0,0,30,20.399998,30,60,0,39.600002,0,0"/>
<polyline points="30,20.399998,60,0,60,39.600002,30,60,30,20.399998"/>
</g>
<g fill="#222" fill-opacity="0.03333333" stroke="#000" stroke-opacity="0.02" stroke-width="1" transform="translate(0, 9.600002)">
<polyline points="0,0,30,20.399998,30,60,0,39.600002,0,0"/>
<polyline points="30,20.399998,60,0,60,39.600002,30,60,30,20.399998"/>
</g>
<g fill="#ddd" fill-opacity="0.14235294" stroke="#000" stroke-opacity="0.02" stroke-width="1" transform="translate(60, 9.600002)">
<polyline points="0,0,30,20.399998,30,60,0,39.600002,0,0"/>
<polyline points="30,20.399998,60,0,60,39.600002,30,60,30,20.399998"/>
</g>
<g fill="#222" fill-opacity="0.18392156" stroke="#000" stroke-opacity="0.02" stroke-width="1" transform="translate(120, 9.600002)">
<polyline points="0,0,30,20.399998,30,60,0,39.600002,0,0"/>
<polyline points="30,20.399998,60,0,60,39.600002,30,60,30,20.399998"/>
</g>
<g fill="#ddd" fill-opacity="0.18156862" stroke="#000" stroke-opacity="0.02" stroke-width="1" transform="translate(180, 9.600002)">
<polyline points="0,0,30,20.399998,30,60,0,39.600002,0,0"/>
<polyline points="30,20.399998,60,0,60,39.600002,30,60,30,20.399998"/>
</g>
<g fill="#ddd" fill-opacity="0.1454902" stroke="#000" stroke-opacity="0.02" stroke-width="1" transform="translate(0, 49.200005)">
<polyline points="0,0,30,20.399998,30,60,0,39.600002,0,0"/>
<polyline points="30,20.399998,60,0,60,39.600002,30,60,30,20.399998"/>
</g>
<g fill="#222" fill-opacity="0.047450982" stroke="#000" stroke-opacity="0.02" stroke-width="1" transform="translate(60, 49.200005)">
<polyline points="0,0,30,20.399998,30,60,0,39.600002,0,0"/>
<polyline points="30,20.399998,60,0,60,39.600002,30,60,30,20.399998"/>
</g>
<g fill="#222" fill-opacity="0.21529411" stroke="#000" stroke-opacity="0.02" stroke-width="1" transform="translate(120, 49.200005)">
<polyline points="0,0,30,20.399998,30,60,0,39.600002,0,0"/>
<polyline points="30,20.399998,60,0,60,39.600002,30,60,30,20.399998"/>
</g>
<g fill="#222" fill-opacity="0.1462745" stroke="#000" stroke-opacity="0.02" stroke-width="1" transform="translate(180, 49.200005)">
<polyline points="0,0,30,20.399998,30,60,0,39.600002,0,0"/>
<polyline points="30,20.399998,60,0,60,39.600002,30,60,30,20.399998"/>
</g>
<g fill="#ddd" fill-opacity="0.06392157" stroke="#000" stroke-opacity="0.02" stroke-width="1" transform="translate(0, 88.8)">
<polyline points="0,0,30,20.399998,30,60,0,39.600002,0,0"/>
<polyline points="30,20.399998,60,0,60,39.600002,30,60,30,20.399998"/>
</g>
<g fill="#ddd" fill-opacity="0.13294119" stroke="#000" stroke-opacity="0.02" stroke-width="1" transform="translate(60, 88.8)">
<polyline points="0,0,30,20.399998,30,60,0,39.600002,0,0"/>
<polyline points="30,20.399998,60,0,60,39.600002,30,60,30,20.399998"/>
</g>
<g fill="#ddd" fill-opacity="0.20666668" stroke="#000" stroke-opacity="0.02" stroke-width="1" transform="translate(120, 88.8)">
<polyline points="0,0,30,20.399998,30,60,0,39.600002,0,0"/>
<polyline points="30,20.399998,60,0,60,39.600002,30,60,30,20.399998"/>
</g>
<g fill="#222" fill-opacity="0.020784313" stroke="#000" stroke-opacity="0.02" stroke-width="1" transform="translate(180, 88.8)">
<polyline points="0,0,30,20.399998,30,60,0,39.600002,0,0"/>
<polyline points="30,20.399998,60,0,60,39.600002,30,60,30,20.399998"/>
</g>
</svg>