<svg height="152" width="152" xmlns="http://www.w3.org/2000/svg">
<rect fill="rgb(17,156,209)" height="100%" width="100%" x="0" y="0"/>
<circle cx="19" cy="19" r="19" stroke="#222" style="opacity:0.08352941; stroke-width:0x8;"/>
<circle cx="19" cy="19" fill="#222" fill-opacity="0.16352941" r="9.5"/>
<circle cx="57" cy="19" r="19" stroke="#222" style="opacity:0.08666667; stroke-width:0x8;"/>
<circle cx="57" cy="19" fill="#222" fill-opacity="0.08509804" r="9.5"/>
<circle cx="95" cy="19" r="19" stroke="#222" style="opacity:0.04431373; stroke-width:0x8;"/>
<circle cx="95" cy="19" fill="#222" fill-opacity="0.13058823" r="9.5"/>
<circle cx="133" cy="19" r="19" stroke="#222" style="opacity:0.21843138; stroke-width:0x8;"/>
<circle cx="133" cy="19" fill="#222" fill-opacity="0.08196078" r="9.5"/>
<circle cx="19" cy="57" r="19" stroke="#222" style="opacity:0.03333333; stroke-width:0x8;"/>
<circle cx="19" cy="57" fill="#222" fill-opacity="0.020784313" r="9.5"/>
<circle cx="57" cy="57" r="19" stroke="#ddd" style="opacity:0.14235294; stroke-width:0x8;"/>
<circle cx="57" cy="57" fill="#ddd" fill-opacity="0.20666668" r="9.5"/>
<circle cx="95" cy="57" r="19" stroke="#222" style="opacity:0.18392156; stroke-width:0x8;"/>
<circle cx="95" cy="57" fill="#ddd" fill-opacity="0.13294119" r="9.5"/>
<circle cx="133" cy="57" r="19" stroke="#ddd" style="opacity:0.18156862; stroke-width:0x8;"/>
<circle cx="133" cy="57" fill="#ddd" fill-opacity="0.06392157" r="9.5"/>
<circle cx="19" cy="95" r="19" stroke="#ddd" style="opacity:0.1454902; stroke-width:0x8;"/>
<circle cx="19" cy="95" fill="#222" fill-opacity="0.1462745" r="9.5"/>
<circle cx="57" cy="95" r="19" stroke="#222" style="opacity:0.047450982; stroke-width:0x8;"/>
<circle cx="57" cy="95" fill="#222" fill-opacity="0.21529411" r="9.5"/>
<circle cx="95" cy="95" r="19" stroke="#222" style="opacity:0.21529411; stroke-width:0x8;"/>
<circle cx="95" cy="95" fill="#222" fill-opacity="0.047450982" r="9.5"/>
<circle cx="133" cy="95" r="19" stroke="#222" style="opacity:0.1462745; stroke-width:0x8;"/>
<circle cx="133" cy="95" fill="#ddd" fill-opacity="0.1454902" r="9.5"/>
<circle cx="19" cy="133" r="19" stroke="#ddd" style="opacity:0.06392157; stroke-width:0x8;"/>
<circle cx="19" cy="133" fill="#ddd" fill-opacity="0.18156862" r="9.5"/>
<circle cx="57" cy="133" r="19" stroke="#ddd" style="opacity:0.13294119; stroke-width:0x8;"/>
<circle cx="57" cy="133" fill="#222" fill-opacity="0.18392156" r="9.5"/>
<circle cx="95" cy="133" r="19" stroke="#ddd" style="opacity:0.20666668; stroke-width:0x8;"/>
<circle cx="95" cy="133" fill="#ddd" fill-opacity="0.14235294" r="9.5"/>
<circle cx="133" cy="133" r="19" stroke="#222" style="opacity:0.020784313; stroke-width:0x8;"/>
<circle cx="133" cy="133" fill="#222" fill-opacity="0.03333333" r="9.5"/>
</svg>