<svg height="384" width="384" xmlns="http://www.w3.org/2000/svg">
<rect fill="rgb(200,200,200)" height="100%" width="100%" x="0" y="0"/>
<rect fill="#FFF" fill-opacity="1" height="48" stroke="#333" stroke-opacity="1" transform="translate(0 0) rotate(0 0 0)" width="48" x="0" y="0"/>
<rect fill="#FFF" fill-opacity="1" height="48" stroke="#333" stroke-opacity="1" transform="translate(0 0) rotate(0 48 0)" width="48" x="48" y="0"/>
<rect fill="#FFF" fill-opacity="1" height="48" stroke="#333" stroke-opacity="1" transform="translate(0 0) rotate(0 96 0)" width="48" x="96" y="0"/>
<rect fill="#FFF" fill-opacity="1" height="48" stroke="#333" stroke-opacity="1" transform="translate(0 0) rotate(0 144 0)" width="48" x="144" y="0"/>
<rect fill="#FFF" fill-opacity="1" height="48" stroke="#333" stroke-opacity="1" transform="translate(0 0) rotate(0 192 0)" width="48" x="192" y="0"/>
<rect fill="#FFF" fill-opacity="1" height="48" stroke="#333" stroke-opacity="1" transform="translate(0 0) rotate(0 240 0)" width="48" x="240" y="0"/>
<rect fill="#FFF" fill-opacity="1" height="48" stroke="#333" stroke-opacity="1" transform="translate(0 0) rotate(0 288 0)" width="48" x="288" y="0"/>
<rect fill="#FFF" fill-opacity="1" height="48" stroke="#333" stroke-opacity="1" transform="translate(0 0) rotate(0 336 0)" width="48" x="336" y="0"/>
<rect fill="#FFF" fill-opacity="1" height="48" stroke="#333" stroke-opacity="1" transform="translate(-0.9411765 0) rotate(-2.9567933 0 48)" width="48" x="0" y="48"/>
<rect fill="#FFF" fill-opacity="1" height="48" stroke="#333" stroke-opacity="1" transform="translate(0.20588236 0) rotate(0.64679855 48 48)" width="48" x="48" y="48"/>
<rect fill="#FFF" fill-opacity="1" height="48" stroke="#333" stroke-opacity="1" transform="translate(1.4647058 0) rotate(4.6015096 96 48)" width="48" x="96" y="48"/>
<rect fill="#FFF" fill-opacity="1" height="48" stroke="#333" stroke-opacity="1" transform="translate(0.9470588 0) rotate(2.9752731 144 48)" width="48" x="144" y="48"/>
<rect fill="#FFF" fill-opacity="1" height="48" stroke="#333" stroke-opacity="1" transform="translate(-0.32941177 0) rotate(-1.0348777 192 48)" width="48" x="192" y="48"/>
<rect fill="#FFF" fill-opacity="1" height="48" stroke="#333" stroke-opacity="1" transform="translate(-0.84705883 0) rotate(-2.6611137 240 48)" width="48" x="240" y="48"/>
<rect fill="#FFF" fill-opacity="1" height="48" stroke="#333" stroke-opacity="1" transform="translate(-1.4 0) rotate(-4.3982296 288 48)" width="48" x="288" y="48"/>
<rect fill="#FFF" fill-opacity="1" height="48" stroke="#333" stroke-opacity="1" transform="translate(0.005882353 0) rotate(0.018479956 336 48)" width="48" x="336" y="48"/>
<rect fill="#FFF" fill-opacity="1" height="48" stroke="#333" stroke-opacity="1" transform="translate(0.92941177 0) rotate(2.9198334 0 96)" width="48" x="0" y="96"/>
<rect fill="#FFF" fill-opacity="1" height="48" stroke="#333" stroke-opacity="1" transform="translate(1.6588235 0) rotate(5.2113476 48 96)" width="48" x="48" y="96"/>
<rect fill="#FFF" fill-opacity="1" height="48" stroke="#333" stroke-opacity="1" transform="translate(0.9764706 0) rotate(3.067673 96 96)" width="48" x="96" y="96"/>
<rect fill="#FFF" fill-opacity="1" height="48" stroke="#333" stroke-opacity="1" transform="translate(2.1529412 0) rotate(6.7636647 144 96)" width="48" x="144" y="96"/>
<rect fill="#FFF" fill-opacity="1" height="48" stroke="#333" stroke-opacity="1" transform="translate(0.9529412 0) rotate(2.9937532 192 96)" width="48" x="192" y="96"/>
<rect fill="#FFF" fill-opacity="1" height="48" stroke="#333" stroke-opacity="1" transform="translate(1 0) rotate(3.1415925 240 96)" width="48" x="240" y="96"/>
<rect fill="#FFF" fill-opacity="1" height="48" stroke="#333" stroke-opacity="1" transform="translate(0.3647059 0) rotate(1.1457573 288 96)" width="48" x="288" y="96"/>
<rect fill="#FFF" fill-opacity="1" height="48" stroke="#333" stroke-opacity="1" transform="translate(2.9764705 0) rotate(9.350858 336 96)" width="48" x="336" y="96"/>
<rect fill="#FFF" fill-opacity="1" height="48" stroke="#333" stroke-opacity="1" transform="translate(0.3 0) rotate(0.9424778 0 144)" width="48" x="0" y="144"/>
<rect fill="#FFF" fill-opacity="1" height="48" stroke="#333" stroke-opacity="1" transform="translate(-2.7529411 0) rotate(-8.64862 48 144)" width="48" x="48" y="144"/>
<rect fill="#FFF" fill-opacity="1" height="48" stroke="#333" stroke-opacity="1" transform="translate(3.6882353 0) rotate(11.586933 96 144)" width="48" x="96" y="144"/>
<rect fill="#FFF" fill-opacity="1" height="48" stroke="#333" stroke-opacity="1" transform="translate(-3.6352942 0) rotate(-11.420613 144 144)" width="48" x="144" y="144"/>
<rect fill="#FFF" fill-opacity="1" height="48" stroke="#333" stroke-opacity="1" transform="translate(-2.8235295 0) rotate(-8.870379 192 144)" width="48" x="192" y="144"/>
<rect fill="#FFF" fill-opacity="1" height="48" stroke="#333" stroke-opacity="1" transform="translate(0.61764705 0) rotate(1.9403956 240 144)" width="48" x="240" y="144"/>
<rect fill="#FFF" fill-opacity="1" height="48" stroke="#333" stroke-opacity="1" transform="translate(4.394118 0) rotate(13.804528 288 144)" width="48" x="288" y="144"/>
<rect fill="#FFF" fill-opacity="1" height="48" stroke="#333" stroke-opacity="1" transform="translate(2.8411765 0) rotate(8.925819 336 144)" width="48" x="336" y="144"/>
<rect fill="#FFF" fill-opacity="1" height="48" stroke="#333" stroke-opacity="1" transform="translate(-1.3176471 0) rotate(-4.1395106 0 192)" width="48" x="0" y="192"/>
<rect fill="#FFF" fill-opacity="1" height="48" stroke="#333" stroke-opacity="1" transform="translate(-3.3882353 0) rotate(-10.644455 48 192)" width="48" x="48" y="192"/>
<rect fill="#FFF" fill-opacity="1" height="48" stroke="#333" stroke-opacity="1" transform="translate(-5.6 0) rotate(-17.592918 96 192)" width="48" x="96" y="192"/>
<rect fill="#FFF" fill-opacity="1" height="48" stroke="#333" stroke-opacity="1" transform="translate(0.023529412 0) rotate(0.073919825 144 192)" width="48" x="144" y="192"/>
<rect fill="#FFF" fill-opacity="1" height="48" stroke="#333" stroke-opacity="1" transform="translate(1.8588235 0) rotate(5.839667 192 192)" width="48" x="192" y="192"/>
<rect fill="#FFF" fill-opacity="1" height="48" stroke="#333" stroke-opacity="1" transform="translate(3.317647 0) rotate(10.422695 240 192)" width="48" x="240" y="192"/>
<rect fill="#FFF" fill-opacity="1" height="48" stroke="#333" stroke-opacity="1" transform="translate(1.9529412 0) rotate(6.135346 288 192)" width="48" x="288" y="192"/>
<rect fill="#FFF" fill-opacity="1" height="48" stroke="#333" stroke-opacity="1" transform="translate(4.3058825 0) rotate(13.527329 336 192)" width="48" x="336" y="192"/>
<rect fill="#FFF" fill-opacity="1" height="48" stroke="#333" stroke-opacity="1" transform="translate(2.3823528 0) rotate(7.4843826 0 240)" width="48" x="0" y="240"/>
<rect fill="#FFF" fill-opacity="1" height="48" stroke="#333" stroke-opacity="1" transform="translate(2.5 0) rotate(7.853982 48 240)" width="48" x="48" y="240"/>
<rect fill="#FFF" fill-opacity="1" height="48" stroke="#333" stroke-opacity="1" transform="translate(0.9117647 0) rotate(2.8643932 96 240)" width="48" x="96" y="240"/>
<rect fill="#FFF" fill-opacity="1" height="48" stroke="#333" stroke-opacity="1" transform="translate(7.4411764 0) rotate(23.377144 144 240)" width="48" x="144" y="240"/>
<rect fill="#FFF" fill-opacity="1" height="48" stroke="#333" stroke-opacity="1" transform="translate(0.5 0) rotate(1.5707963 192 240)" width="48" x="192" y="240"/>
<rect fill="#FFF" fill-opacity="1" height="48" stroke="#333" stroke-opacity="1" transform="translate(-4.5882354 0) rotate(-14.414367 240 240)" width="48" x="240" y="240"/>
<rect fill="#FFF" fill-opacity="1" height="48" stroke="#333" stroke-opacity="1" transform="translate(6.147059 0) rotate(19.311554 288 240)" width="48" x="288" y="240"/>
<rect fill="#FFF" fill-opacity="1" height="48" stroke="#333" stroke-opacity="1" transform="translate(-6.0588236 0) rotate(-19.034355 336 240)" width="48" x="336" y="240"/>
<rect fill="#FFF" fill-opacity="1" height="48" stroke="#333" stroke-opacity="1" transform="translate(-5.647059 0) rotate(-17.740759 0 288)" width="48" x="0" y="288"/>
<rect fill="#FFF" fill-opacity="1" height="48" stroke="#333" stroke-opacity="1" transform="translate(1.2352941 0) rotate(3.8807912 48 288)" width="48" x="48" y="288"/>
<rect fill="#FFF" fill-opacity="1" height="48" stroke="#333" stroke-opacity="1" transform="translate(8.788236 0) rotate(27.609056 96 288)" width="48" x="96" y="288"/>
<rect fill="#FFF" fill-opacity="1" height="48" stroke="#333" stroke-opacity="1" transform="translate(5.682353 0) rotate(17.851639 144 288)" width="48" x="144" y="288"/>
<rect fill="#FFF" fill-opacity="1" height="48" stroke="#333" stroke-opacity="1" transform="translate(-1.9764706 0) rotate(-6.2092657 192 288)" width="48" x="192" y="288"/>
<rect fill="#FFF" fill-opacity="1" height="48" stroke="#333" stroke-opacity="1" transform="translate(-5.082353 0) rotate(-15.966684 240 288)" width="48" x="240" y="288"/>
<rect fill="#FFF" fill-opacity="1" height="48" stroke="#333" stroke-opacity="1" transform="translate(-8.4 0) rotate(-26.389378 288 288)" width="48" x="288" y="288"/>
<rect fill="#FFF" fill-opacity="1" height="48" stroke="#333" stroke-opacity="1" transform="translate(0.03529412 0) rotate(0.11087974 336 288)" width="48" x="336" y="288"/>
<rect fill="#FFF" fill-opacity="1" height="48" stroke="#333" stroke-opacity="1" transform="translate(3.2529411 0) rotate(10.219417 0 336)" width="48" x="0" y="336"/>
<rect fill="#FFF" fill-opacity="1" height="48" stroke="#333" stroke-opacity="1" transform="translate(5.8058825 0) rotate(18.239717 48 336)" width="48" x="48" y="336"/>
<rect fill="#FFF" fill-opacity="1" height="48" stroke="#333" stroke-opacity="1" transform="translate(3.4176471 0) rotate(10.736855 96 336)" width="48" x="96" y="336"/>
<rect fill="#FFF" fill-opacity="1" height="48" stroke="#333" stroke-opacity="1" transform="translate(7.535294 0) rotate(23.672825 144 336)" width="48" x="144" y="336"/>
<rect fill="#FFF" fill-opacity="1" height="48" stroke="#333" stroke-opacity="1" transform="translate(3.335294 0) rotate(10.478135 192 336)" width="48" x="192" y="336"/>
<rect fill="#FFF" fill-opacity="1" height="48" stroke="#333" stroke-opacity="1" transform="translate(3.5 0) rotate(10.995575 240 336)" width="48" x="240" y="336"/>
<rect fill="#FFF" fill-opacity="1" height="48" stroke="#333" stroke-opacity="1" transform="translate(1.2764705 0) rotate(4.010151 288 336)" width="48" x="288" y="336"/>
<rect fill="#FFF" fill-opacity="1" height="48" stroke="#333" stroke-opacity="1" transform="translate(10.417647 0) rotate(32.728 336 336)" width="48" x="336" y="336"/>
</svg>