<svg height="256" width="416" xmlns="http://www.w3.org/2000/svg">
<rect fill="rgb(17,156,209)" height="100%" width="100%" x="0" y="0"/>
<path d="M 0 49.25 L 16 49.25 L 32 49.25 L 48 49.25 L 64 49.25 L 80 49.25 L 96 37.504116 L 112 30.890785 L 128 28.569216 L 144 31.17941 L 160 44.85784 L 176 14.878235 L 192 25.005293 L 208 40.114315 L 224 27.565292 L 240 16.396667 L 256 49.124508 L 272 40.32765 L 288 35.094704 L 304 41.95902 L 320 35.471176 L 336 49.25 L 352 49.25 L 368 49.25 L 384 49.25 L 400 49.25 L 416 49.25" fill="rgb(17,156,209)" stroke="#FFF" stroke-opacity="0.75" stroke-width="2.5"/>
<path d="M 0 65.25 L 16 65.25 L 32 65.25 L 48 65.25 L 64 65.25 L 80 65.25 L 96 53.127647 L 112 60.330784 L 128 50.79353 L 144 38.370003 L 160 65.12451 L 176 54.344902 L 192 44.01706 L 208 51.70961 L 224 37.692352 L 240 54.068825 L 256 54.583332 L 272 61.748825 L 288 39.850784 L 304 63.756668 L 320 53.504116 L 336 65.25 L 352 65.25 L 368 65.25 L 384 65.25 L 400 65.25 L 416 65.25" fill="rgb(17,156,209)" stroke="#FFF" stroke-opacity="0.75" stroke-width="2.5"/>
<path d="M 0 81.25 L 16 81.25 L 32 81.25 L 48 81.25 L 64 81.25 L 80 81.25 L 96 70.63353 L 112 73.95902 L 128 62.878235 L 144 72.10176 L 160 70.583336 L 176 76.97079 L 192 43.151176 L 208 78.47667 L 224 57.758232 L 240 52.399803 L 256 55.399017 L 272 63.179413 L 288 77.736275 L 304 59.37706 L 320 69.12765 L 336 81.25 L 352 81.25 L 368 81.25 L 384 81.25 L 400 81.25 L 416 81.25" fill="rgb(17,156,209)" stroke="#FFF" stroke-opacity="0.75" stroke-width="2.5"/>
<path d="M 0 97.25 L 16 97.25 L 32 97.25 L 48 97.25 L 64 97.25 L 80 97.25 L 96 78.20059 L 112 95.75667 L 128 81.58882 L 144 73.645294 L 160 71.39902 L 176 75.16373 L 192 91.97941 L 208 56.628826 L 224 73.005295 L 240 89.519806 L 256 79.17941 L 272 70.37 L 288 97.149605 L 304 90.310394 L 320 86.63353 L 336 97.25 L 352 97.25 L 368 97.25 L 384 97.25 L 400 97.25 L 416 97.25" fill="rgb(17,156,209)" stroke="#FFF" stroke-opacity="0.75" stroke-width="2.5"/>
<path d="M 0 113.25 L 16 113.25 L 32 113.25 L 48 113.25 L 64 113.25 L 80 113.25 L 96 110.61471 L 112 91.37706 L 128 97.08686 L 144 106.92529 L 160 95.17941 L 176 80.39667 L 192 113.09941 L 208 100.36216 L 224 92.01706 L 240 101.79275 L 256 90.28529 L 272 104.10176 L 288 104.71667 L 304 110.52686 L 320 94.20059 L 336 113.25 L 352 113.25 L 368 113.25 L 384 113.25 L 400 113.25 L 416 113.25" fill="rgb(17,156,209)" stroke="#FFF" stroke-opacity="0.75" stroke-width="2.5"/>
<path d="M 0 129.25 L 16 129.25 L 32 129.25 L 48 129.25 L 64 129.25 L 80 129.25 L 96 129.17471 L 112 122.310394 L 128 115.0947 L 144 119.875885 L 160 106.28529 L 176 118.068825 L 192 116.45 L 208 124.19275 L 224 91.15118 L 240 126.903336 L 256 109.67353 L 272 105.645294 L 288 108.569214 L 304 115.1951 L 320 126.61471 L 336 129.25 L 352 129.25 L 368 129.25 L 384 129.25 L 400 129.25 L 416 129.25" fill="rgb(17,156,209)" stroke="#FFF" stroke-opacity="0.75" stroke-width="2.5"/>
<path d="M 0 145.25 L 16 145.25 L 32 145.25 L 48 145.25 L 64 145.25 L 80 145.25 L 96 138.85 L 112 142.52686 L 128 119.850784 L 144 143.33 L 160 125.67353 L 176 116.3998 L 192 114.22882 L 208 119.14804 L 224 139.97942 L 240 110.878235 L 256 125.04608 L 272 138.9253 L 288 130.79353 L 304 124.34334 L 320 145.17471 L 336 145.25 L 352 145.25 L 368 145.25 L 384 145.25 L 400 145.25 L 416 145.25" fill="rgb(17,156,209)" stroke="#FFF" stroke-opacity="0.75" stroke-width="2.5"/>
<path d="M 0 161.25 L 16 161.25 L 32 161.25 L 48 161.25 L 64 161.25 L 80 161.25 L 96 145.73941 L 112 147.1951 L 128 157.73627 L 144 133.12766 L 160 141.04608 L 176 153.5198 L 192 139.56529 L 208 122.42334 L 224 161.09941 L 240 150.3449 L 256 143.55588 L 272 151.87589 L 288 142.87823 L 304 154.1347 L 320 154.85 L 336 161.25 L 352 161.25 L 368 161.25 L 384 161.25 L 400 161.25 L 416 161.25" fill="rgb(17,156,209)" stroke="#FFF" stroke-opacity="0.75" stroke-width="2.5"/>
<path d="M 0 177.25 L 16 177.25 L 32 177.25 L 48 177.25 L 64 177.25 L 80 177.25 L 96 166.40765 L 112 156.34334 L 128 177.14961 L 144 168.32765 L 160 159.55588 L 176 165.79274 L 192 149.69235 L 208 164.03589 L 224 164.45 L 240 172.97078 L 256 145.50098 L 272 175.33 L 288 161.58882 L 304 158.89078 L 320 161.73941 L 336 177.25 L 352 177.25 L 368 177.25 L 384 177.25 L 400 177.25 L 416 177.25" fill="rgb(17,156,209)" stroke="#FFF" stroke-opacity="0.75" stroke-width="2.5"/>
<path d="M 0 193.25 L 16 193.25 L 32 193.25 L 48 193.25 L 64 193.25 L 80 193.25 L 96 179.47118 L 112 186.1347 L 128 184.71666 L 144 189.74883 L 160 161.50098 L 176 190.90334 L 192 169.75824 L 208 159.15431 L 224 162.22882 L 240 171.16373 L 256 188.85785 L 272 165.12766 L 288 177.08687 L 304 188.33078 L 320 182.40765 L 336 193.25 L 352 193.25 L 368 193.25 L 384 193.25 L 400 193.25 L 416 193.25" fill="rgb(17,156,209)" stroke="#FFF" stroke-opacity="0.75" stroke-width="2.5"/>
<path d="M 0 209.25 L 16 209.25 L 32 209.25 L 48 209.25 L 64 209.25 L 80 209.25 L 96 197.50412 L 112 190.89078 L 128 188.56921 L 144 191.17941 L 160 204.85785 L 176 174.87823 L 192 185.0053 L 208 200.11432 L 224 187.56529 L 240 176.39667 L 256 209.12451 L 272 200.32765 L 288 195.09471 L 304 201.95901 L 320 195.47118 L 336 209.25 L 352 209.25 L 368 209.25 L 384 209.25 L 400 209.25 L 416 209.25" fill="rgb(17,156,209)" stroke="#FFF" stroke-opacity="0.75" stroke-width="2.5"/>
<path d="M 0 225.25 L 16 225.25 L 32 225.25 L 48 225.25 L 64 225.25 L 80 225.25 L 96 213.12764 L 112 220.33078 L 128 210.79353 L 144 198.37 L 160 225.12451 L 176 214.3449 L 192 204.01706 L 208 211.70961 L 224 197.69235 L 240 214.06882 L 256 214.58333 L 272 221.74883 L 288 199.85078 L 304 223.75667 L 320 213.50412 L 336 225.25 L 352 225.25 L 368 225.25 L 384 225.25 L 400 225.25 L 416 225.25" fill="rgb(17,156,209)" stroke="#FFF" stroke-opacity="0.75" stroke-width="2.5"/>
<path d="M 0 241.25 L 16 241.25 L 32 241.25 L 48 241.25 L 64 241.25 L 80 241.25 L 96 230.63353 L 112 233.95901 L 128 222.87823 L 144 232.10176 L 160 230.58333 L 176 236.97078 L 192 203.15118 L 208 238.47667 L 224 217.75824 L 240 212.39981 L 256 215.39902 L 272 223.17941 L 288 237.73627 L 304 219.37706 L 320 229.12764 L 336 241.25 L 352 241.25 L 368 241.25 L 384 241.25 L 400 241.25 L 416 241.25" fill="rgb(17,156,209)" stroke="#FFF" stroke-opacity="0.75" stroke-width="2.5"/>
</svg>