<svg height="256" width="416" xmlns="http://www.w3.org/2000/svg">
<rect fill="rgb(17,156,209)" height="100%" width="100%" x="0" y="0"/>
<path d="M 0 49.25 Q 0 49.25 8 49.25 Q 16 49.25 24 49.25 Q 32 49.25 40 49.25 Q 48 49.25 56 49.25 Q 64 49.25 72 49.25 Q 80 49.25 88 41.90882 Q 96 34.567646 104 30.434313 Q 112 26.30098 120 24.849998 Q 128 23.39902 136 25.030392 Q 144 26.661764 152 35.210785 Q 160 43.759804 168 25.022549 Q 176 6.2852936 184 12.614705 Q 192 18.944117 200 28.387253 Q 208 37.83039 216 29.987253 Q 224 22.144115 232 15.163725 Q 240 8.183334 248 28.638235 Q 256 49.093136 264 43.595097 Q 272 38.097057 280 34.82647 Q 288 31.555882 296 35.846077 Q 304 40.136276 312 36.081375 Q 320 32.02647 328 40.638237 Q 336 49.25 344 49.25 Q 352 49.25 360 49.25 Q 368 49.25 376 49.25 Q 384 49.25 392 49.25 Q 400 49.25 408 49.25 Q 416 49.25 416 49.25" fill="rgb(17,156,209)" stroke="#FFF" stroke-opacity="0.75" stroke-width="2.5"/>
<path d="M 0 65.25 Q 0 65.25 8 65.25 Q 16 65.25 24 65.25 Q 32 65.25 40 65.25 Q 48 65.25 56 65.25 Q 64 65.25 72 65.25 Q 80 65.25 88 57.67353 Q 96 50.097057 104 54.59902 Q 112 59.10098 120 53.140198 Q 128 47.179413 136 39.414707 Q 144 31.650002 152 48.37157 Q 160 65.09314 168 58.35588 Q 176 51.618626 184 45.163727 Q 192 38.708824 200 43.516666 Q 208 48.32451 216 39.563725 Q 224 30.80294 232 41.038235 Q 240 51.27353 248 51.595097 Q 256 51.916664 264 56.395096 Q 272 60.873528 280 47.187256 Q 288 33.50098 296 48.442154 Q 304 63.38333 312 56.975487 Q 320 50.567646 328 57.90882 Q 336 65.25 344 65.25 Q 352 65.25 360 65.25 Q 368 65.25 376 65.25 Q 384 65.25 392 65.25 Q 400 65.25 408 65.25 Q 416 65.25 416 65.25" fill="rgb(17,156,209)" stroke="#FFF" stroke-opacity="0.75" stroke-width="2.5"/>
<path d="M 0 81.25 Q 0 81.25 8 81.25 Q 16 81.25 24 81.25 Q 32 81.25 40 81.25 Q 48 81.25 56 81.25 Q 64 81.25 72 81.25 Q 80 81.25 88 74.6147 Q 96 67.97941 104 70.057846 Q 112 72.13628 120 65.210785 Q 128 58.285294 136 64.05 Q 144 69.814705 152 68.865685 Q 160 67.916664 168 71.90882 Q 176 75.90098 184 54.763725 Q 192 33.626472 200 55.704903 Q 208 77.78333 216 64.83431 Q 224 51.885292 232 48.536274 Q 240 45.187256 248 47.061768 Q 256 48.936275 264 53.79902 Q 272 58.661766 280 67.7598 Q 288 76.85784 296 65.38333 Q 304 53.90882 312 60.00294 Q 320 66.09706 328 73.67353 Q 336 81.25 344 81.25 Q 352 81.25 360 81.25 Q 368 81.25 376 81.25 Q 384 81.25 392 81.25 Q 400 81.25 408 81.25 Q 416 81.25 416 81.25" fill="rgb(17,156,209)" stroke="#FFF" stroke-opacity="0.75" stroke-width="2.5"/>
<path d="M 0 97.25 Q 0 97.25 8 97.25 Q 16 97.25 24 97.25 Q 32 97.25 40 97.25 Q 48 97.25 56 97.25 Q 64 97.25 72 97.25 Q 80 97.25 88 85.34412 Q 96 73.43823 104 84.41078 Q 112 95.38333 120 86.52843 Q 128 77.67353 136 72.708824 Q 144 67.74412 152 66.340195 Q 160 64.93628 168 67.289215 Q 176 69.64216 184 80.15196 Q 192 90.661766 200 68.56765 Q 208 46.47353 216 56.708824 Q 224 66.944115 232 77.265686 Q 240 87.58726 248 81.12451 Q 256 74.661766 264 69.15588 Q 272 63.65 280 80.38725 Q 288 97.12451 296 92.850006 Q 304 88.57549 312 86.27745 Q 320 83.97941 328 90.6147 Q 336 97.25 344 97.25 Q 352 97.25 360 97.25 Q 368 97.25 376 97.25 Q 384 97.25 392 97.25 Q 400 97.25 408 97.25 Q 416 97.25 416 97.25" fill="rgb(17,156,209)" stroke="#FFF" stroke-opacity="0.75" stroke-width="2.5"/>
<path d="M 0 113.25 Q 0 113.25 8 113.25 Q 16 113.25 24 113.25 Q 32 113.25 40 113.25 Q 48 113.25 56 113.25 Q 64 113.25 72 113.25 Q 80 113.25 88 111.602936 Q 96 109.95588 104 97.93235 Q 112 85.90882 120 89.47745 Q 128 93.04608 136 99.1951 Q 144 105.34412 152 98.002945 Q 160 90.661766 168 81.42255 Q 176 72.183334 184 92.62255 Q 192 113.06177 200 105.10098 Q 208 97.1402 216 91.924515 Q 224 86.708824 232 92.81863 Q 240 98.92843 248 91.73627 Q 256 84.54411 264 93.17941 Q 272 101.814705 280 102.19902 Q 288 102.583336 296 106.21471 Q 304 109.84608 312 99.64215 Q 320 89.43823 328 101.34412 Q 336 113.25 344 113.25 Q 352 113.25 360 113.25 Q 368 113.25 376 113.25 Q 384 113.25 392 113.25 Q 400 113.25 408 113.25 Q 416 113.25 416 113.25" fill="rgb(17,156,209)" stroke="#FFF" stroke-opacity="0.75" stroke-width="2.5"/>
<path d="M 0 129.25 Q 0 129.25 8 129.25 Q 16 129.25 24 129.25 Q 32 129.25 40 129.25 Q 48 129.25 56 129.25 Q 64 129.25 72 129.25 Q 80 129.25 88 129.20294 Q 96 129.15588 104 124.86569 Q 112 120.57549 120 116.06569 Q 128 111.55588 136 114.54411 Q 144 117.53235 152 109.03823 Q 160 100.54411 168 107.90882 Q 176 115.27353 184 114.261765 Q 192 113.25 200 118.08922 Q 208 122.92843 216 102.27745 Q 224 81.62647 232 103.97157 Q 240 126.316666 248 115.548035 Q 256 104.77941 264 102.261765 Q 272 99.74412 280 101.57156 Q 288 103.39902 296 107.54019 Q 304 111.68137 312 118.81863 Q 320 125.95588 328 127.602936 Q 336 129.25 344 129.25 Q 352 129.25 360 129.25 Q 368 129.25 376 129.25 Q 384 129.25 392 129.25 Q 400 129.25 408 129.25 Q 416 129.25 416 129.25" fill="rgb(17,156,209)" stroke="#FFF" stroke-opacity="0.75" stroke-width="2.5"/>
<path d="M 0 145.25 Q 0 145.25 8 145.25 Q 16 145.25 24 145.25 Q 32 145.25 40 145.25 Q 48 145.25 56 145.25 Q 64 145.25 72 145.25 Q 80 145.25 88 141.25 Q 96 137.25 104 139.54803 Q 112 141.84608 120 127.67353 Q 128 113.50098 136 128.17549 Q 144 142.85 152 131.81471 Q 160 120.77941 168 114.98334 Q 176 109.187256 184 107.83039 Q 192 106.473526 200 109.548035 Q 208 112.62254 216 125.64215 Q 224 138.66176 232 120.473526 Q 240 102.28529 248 111.1402 Q 256 119.9951 264 128.66962 Q 272 137.34412 280 132.26176 Q 288 127.17941 296 123.14804 Q 304 119.11667 312 132.13628 Q 320 145.15588 328 145.20294 Q 336 145.25 344 145.25 Q 352 145.25 360 145.25 Q 368 145.25 376 145.25 Q 384 145.25 392 145.25 Q 400 145.25 408 145.25 Q 416 145.25 416 145.25" fill="rgb(17,156,209)" stroke="#FFF" stroke-opacity="0.75" stroke-width="2.5"/>
<path d="M 0 161.25 Q 0 161.25 8 161.25 Q 16 161.25 24 161.25 Q 32 161.25 40 161.25 Q 48 161.25 56 161.25 Q 64 161.25 72 161.25 Q 80 161.25 88 151.55588 Q 96 141.86177 104 142.77158 Q 112 143.68137 120 150.2696 Q 128 156.85785 136 141.47745 Q 144 126.09706 152 131.04608 Q 160 135.9951 168 143.79117 Q 176 151.58725 184 142.86569 Q 192 134.14412 200 123.43039 Q 208 112.71667 216 136.88922 Q 224 161.06177 232 154.3402 Q 240 147.61862 248 143.37549 Q 256 139.13235 264 144.33235 Q 272 149.53235 280 143.90881 Q 288 138.2853 296 145.32059 Q 304 152.35588 312 152.80295 Q 320 153.25 328 157.25 Q 336 161.25 344 161.25 Q 352 161.25 360 161.25 Q 368 161.25 376 161.25 Q 384 161.25 392 161.25 Q 400 161.25 408 161.25 Q 416 161.25 416 161.25" fill="rgb(17,156,209)" stroke="#FFF" stroke-opacity="0.75" stroke-width="2.5"/>
<path d="M 0 177.25 Q 0 177.25 8 177.25 Q 16 177.25 24 177.25 Q 32 177.25 40 177.25 Q 48 177.25 56 177.25 Q 64 177.25 72 177.25 Q 80 177.25 88 170.47353 Q 96 163.69705 104 157.40686 Q 112 151.11667 120 164.12059 Q 128 177.12451 136 171.61078 Q 144 166.09706 152 160.61472 Q 160 155.13235 168 159.0304 Q 176 162.92844 184 152.86569 Q 192 142.80295 200 151.76765 Q 208 160.73236 216 160.99118 Q 224 161.25 232 166.5755 Q 240 171.90099 248 154.73236 Q 256 137.56372 264 156.20686 Q 272 174.85 280 166.26176 Q 288 157.67352 296 155.98724 Q 304 154.30098 312 156.08138 Q 320 157.86177 328 167.55588 Q 336 177.25 344 177.25 Q 352 177.25 360 177.25 Q 368 177.25 376 177.25 Q 384 177.25 392 177.25 Q 400 177.25 408 177.25 Q 416 177.25 416 177.25" fill="rgb(17,156,209)" stroke="#FFF" stroke-opacity="0.75" stroke-width="2.5"/>
<path d="M 0 193.25 Q 0 193.25 8 193.25 Q 16 193.25 24 193.25 Q 32 193.25 40 193.25 Q 48 193.25 56 193.25 Q 64 193.25 72 193.25 Q 80 193.25 88 184.63824 Q 96 176.02647 104 180.19118 Q 112 184.35588 120 183.4696 Q 128 182.58333 136 185.72842 Q 144 188.87354 152 171.21863 Q 160 153.56372 168 171.94019 Q 176 190.31667 184 177.10098 Q 192 163.88528 200 157.25784 Q 208 150.63039 216 152.55196 Q 224 154.47353 232 160.05783 Q 240 165.64215 248 176.70097 Q 256 187.7598 264 172.92844 Q 272 158.09706 280 165.57156 Q 288 173.04608 296 180.07353 Q 304 187.10098 312 183.39902 Q 320 179.69705 328 186.47353 Q 336 193.25 344 193.25 Q 352 193.25 360 193.25 Q 368 193.25 376 193.25 Q 384 193.25 392 193.25 Q 400 193.25 408 193.25 Q 416 193.25 416 193.25" fill="rgb(17,156,209)" stroke="#FFF" stroke-opacity="0.75" stroke-width="2.5"/>
<path d="M 0 209.25 Q 0 209.25 8 209.25 Q 16 209.25 24 209.25 Q 32 209.25 40 209.25 Q 48 209.25 56 209.25 Q 64 209.25 72 209.25 Q 80 209.25 88 201.90881 Q 96 194.56764 104 190.43431 Q 112 186.30098 120 184.85 Q 128 183.39902 136 185.0304 Q 144 186.66176 152 195.21078 Q 160 203.7598 168 185.02255 Q 176 166.2853 184 172.61472 Q 192 178.94412 200 188.38727 Q 208 197.8304 216 189.98726 Q 224 182.14412 232 175.16373 Q 240 168.18333 248 188.63824 Q 256 209.09314 264 203.5951 Q 272 198.09706 280 194.82648 Q 288 191.55588 296 195.84607 Q 304 200.13628 312 196.08138 Q 320 192.02647 328 200.63824 Q 336 209.25 344 209.25 Q 352 209.25 360 209.25 Q 368 209.25 376 209.25 Q 384 209.25 392 209.25 Q 400 209.25 408 209.25 Q 416 209.25 416 209.25" fill="rgb(17,156,209)" stroke="#FFF" stroke-opacity="0.75" stroke-width="2.5"/>
<path d="M 0 225.25 Q 0 225.25 8 225.25 Q 16 225.25 24 225.25 Q 32 225.25 40 225.25 Q 48 225.25 56 225.25 Q 64 225.25 72 225.25 Q 80 225.25 88 217.67352 Q 96 210.09706 104 214.59903 Q 112 219.10098 120 213.1402 Q 128 207.17941 136 199.4147 Q 144 191.65 152 208.37157 Q 160 225.09314 168 218.35588 Q 176 211.61862 184 205.16373 Q 192 198.70882 200 203.51666 Q 208 208.32451 216 199.56372 Q 224 190.80295 232 201.03824 Q 240 211.27353 248 211.5951 Q 256 211.91667 264 216.39511 Q 272 220.87354 280 207.18726 Q 288 193.50098 296 208.44215 Q 304 223.38333 312 216.9755 Q 320 210.56764 328 217.90881 Q 336 225.25 344 225.25 Q 352 225.25 360 225.25 Q 368 225.25 376 225.25 Q 384 225.25 392 225.25 Q 400 225.25 408 225.25 Q 416 225.25 416 225.25" fill="rgb(17,156,209)" stroke="#FFF" stroke-opacity="0.75" stroke-width="2.5"/>
<path d="M 0 241.25 Q 0 241.25 8 241.25 Q 16 241.25 24 241.25 Q 32 241.25 40 241.25 Q 48 241.25 56 241.25 Q 64 241.25 72 241.25 Q 80 241.25 88 234.61472 Q 96 227.97942 104 230.05785 Q 112 232.13628 120 225.21078 Q 128 218.2853 136 224.05 Q 144 229.81471 152 228.86569 Q 160 227.91667 168 231.90883 Q 176 235.90099 184 214.76373 Q 192 193.62646 200 215.7049 Q 208 237.78334 216 224.83432 Q 224 211.88528 232 208.53627 Q 240 205.18726 248 207.06177 Q 256 208.93628 264 213.79901 Q 272 218.66176 280 227.7598 Q 288 236.85785 296 225.38333 Q 304 213.90883 312 220.00294 Q 320 226.09706 328 233.67352 Q 336 241.25 344 241.25 Q 352 241.25 360 241.25 Q 368 241.25 376 241.25 Q 384 241.25 392 241.25 Q 400 241.25 408 241.25 Q 416 241.25 416 241.25" fill="rgb(17,156,209)" stroke="#FFF" stroke-opacity="0.75" stroke-width="2.5"/>
</svg>