<svg height="240" width="240" xmlns="http://www.w3.org/2000/svg">
<rect fill="rgb(160,35,249)" height="100%" width="100%" x="0" y="0"/>
<polyline fill="#222" fill-opacity="0.14705883" points="0,0,30,30,0,30,0,0" stroke="#000" stroke-opacity="0.02" transform="translate(0, 30) scale(1, -1)"/>
<polyline fill="#222" fill-opacity="0.14705883" points="0,0,30,30,0,30,0,0" stroke="#000" stroke-opacity="0.02" transform="translate(60, 30) scale(-1, -1)"/>
<polyline fill="#222" fill-opacity="0.14705883" points="0,0,30,30,0,30,0,0" stroke="#000" stroke-opacity="0.02" transform="translate(0, 30) scale(1, 1)"/>
<polyline fill="#222" fill-opacity="0.14705883" points="0,0,30,30,0,30,0,0" stroke="#000" stroke-opacity="0.02" transform="translate(60, 30) scale(-1, 1)"/>
<polyline fill="#222" fill-opacity="0.15333334" points="0,0,30,30,0,30,0,0" stroke="#000" stroke-opacity="0.02" transform="translate(90, 0) scale(-1, 1)"/>
<polyline fill="#222" fill-opacity="0.15333334" points="0,0,30,30,0,30,0,0" stroke="#000" stroke-opacity="0.02" transform="translate(90, 60) scale(1, -1)"/>
<polyline fill="#ddd" fill-opacity="0.15019608" points="0,0,30,30,0,30,0,0" stroke="#000" stroke-opacity="0.02" transform="translate(90, 60) scale(-1, -1)"/>
<polyline fill="#ddd" fill-opacity="0.15019608" points="0,0,30,30,0,30,0,0" stroke="#000" stroke-opacity="0.02" transform="translate(90, 0) scale(1, 1)"/>
<polyline fill="#222" fill-opacity="0.068627454" points="0,0,30,30,0,30,0,0" stroke="#000" stroke-opacity="0.02" transform="translate(120, 30) scale(1, -1)"/>
<polyline fill="#222" fill-opacity="0.068627454" points="0,0,30,30,0,30,0,0" stroke="#000" stroke-opacity="0.02" transform="translate(180, 30) scale(-1, -1)"/>
<polyline fill="#222" fill-opacity="0.068627454" points="0,0,30,30,0,30,0,0" stroke="#000" stroke-opacity="0.02" transform="translate(120, 30) scale(1, 1)"/>
<polyline fill="#222" fill-opacity="0.068627454" points="0,0,30,30,0,30,0,0" stroke="#000" stroke-opacity="0.02" transform="translate(180, 30) scale(-1, 1)"/>
<polyline fill="#222" fill-opacity="0.4168628" points="0,0,30,30,0,30,0,0" stroke="#000" stroke-opacity="0.02" transform="translate(210, 0) scale(-1, 1)"/>
<polyline fill="#222" fill-opacity="0.4168628" points="0,0,30,30,0,30,0,0" stroke="#000" stroke-opacity="0.02" transform="translate(210, 60) scale(1, -1)"/>
<polyline fill="#ddd" fill-opacity="0.14392157" points="0,0,30,30,0,30,0,0" stroke="#000" stroke-opacity="0.02" transform="translate(210, 60) scale(-1, -1)"/>
<polyline fill="#ddd" fill-opacity="0.14392157" points="0,0,30,30,0,30,0,0" stroke="#000" stroke-opacity="0.02" transform="translate(210, 0) scale(1, 1)"/>
<polyline fill="#222" fill-opacity="0.046666667" points="0,0,30,30,0,30,0,0" stroke="#000" stroke-opacity="0.02" transform="translate(30, 60) scale(-1, 1)"/>
<polyline fill="#222" fill-opacity="0.046666667" points="0,0,30,30,0,30,0,0" stroke="#000" stroke-opacity="0.02" transform="translate(30, 120) scale(1, -1)"/>
<polyline fill="#ddd" fill-opacity="0.021568626" points="0,0,30,30,0,30,0,0" stroke="#000" stroke-opacity="0.02" transform="translate(30, 120) scale(-1, -1)"/>
<polyline fill="#ddd" fill-opacity="0.021568626" points="0,0,30,30,0,30,0,0" stroke="#000" stroke-opacity="0.02" transform="translate(30, 60) scale(1, 1)"/>
<polyline fill="#ddd" fill-opacity="0.2647059" points="0,0,30,30,0,30,0,0" stroke="#000" stroke-opacity="0.02" transform="translate(60, 90) scale(1, -1)"/>
<polyline fill="#ddd" fill-opacity="0.2647059" points="0,0,30,30,0,30,0,0" stroke="#000" stroke-opacity="0.02" transform="translate(120, 90) scale(-1, -1)"/>
<polyline fill="#ddd" fill-opacity="0.2647059" points="0,0,30,30,0,30,0,0" stroke="#000" stroke-opacity="0.02" transform="translate(60, 90) scale(1, 1)"/>
<polyline fill="#ddd" fill-opacity="0.2647059" points="0,0,30,30,0,30,0,0" stroke="#000" stroke-opacity="0.02" transform="translate(120, 90) scale(-1, 1)"/>
<polyline fill="#222" fill-opacity="0.34784314" points="0,0,30,30,0,30,0,0" stroke="#000" stroke-opacity="0.02" transform="translate(150, 60) scale(-1, 1)"/>
<polyline fill="#222" fill-opacity="0.34784314" points="0,0,30,30,0,30,0,0" stroke="#000" stroke-opacity="0.02" transform="translate(150, 120) scale(1, -1)"/>
<polyline fill="#222" fill-opacity="0.24588236" points="0,0,30,30,0,30,0,0" stroke="#000" stroke-opacity="0.02" transform="translate(150, 120) scale(-1, -1)"/>
<polyline fill="#222" fill-opacity="0.24588236" points="0,0,30,30,0,30,0,0" stroke="#000" stroke-opacity="0.02" transform="translate(150, 60) scale(1, 1)"/>
<polyline fill="#ddd" fill-opacity="0.34313726" points="0,0,30,30,0,30,0,0" stroke="#000" stroke-opacity="0.02" transform="translate(180, 90) scale(1, -1)"/>
<polyline fill="#ddd" fill-opacity="0.34313726" points="0,0,30,30,0,30,0,0" stroke="#000" stroke-opacity="0.02" transform="translate(240, 90) scale(-1, -1)"/>
<polyline fill="#ddd" fill-opacity="0.34313726" points="0,0,30,30,0,30,0,0" stroke="#000" stroke-opacity="0.02" transform="translate(180, 90) scale(1, 1)"/>
<polyline fill="#ddd" fill-opacity="0.34313726" points="0,0,30,30,0,30,0,0" stroke="#000" stroke-opacity="0.02" transform="translate(240, 90) scale(-1, 1)"/>
<polyline fill="#ddd" fill-opacity="0.27098042" points="0,0,30,30,0,30,0,0" stroke="#000" stroke-opacity="0.02" transform="translate(0, 150) scale(1, -1)"/>
<polyline fill="#ddd" fill-opacity="0.27098042" points="0,0,30,30,0,30,0,0" stroke="#000" stroke-opacity="0.02" transform="translate(60, 150) scale(-1, -1)"/>
<polyline fill="#ddd" fill-opacity="0.27098042" points="0,0,30,30,0,30,0,0" stroke="#000" stroke-opacity="0.02" transform="translate(0, 150) scale(1, 1)"/>
<polyline fill="#ddd" fill-opacity="0.27098042" points="0,0,30,30,0,30,0,0" stroke="#000" stroke-opacity="0.02" transform="translate(60, 150) scale(-1, 1)"/>
<polyline fill="#222" fill-opacity="0.07490196" points="0,0,30,30,0,30,0,0" stroke="#000" stroke-opacity="0.02" transform="translate(90, 120) scale(-1, 1)"/>
<polyline fill="#222" fill-opacity="0.07490196" points="0,0,30,30,0,30,0,0" stroke="#000" stroke-opacity="0.02" transform="translate(90, 180) scale(1, -1)"/>
<polyline fill="#ddd" fill-opacity="0.41058823" points="0,0,30,30,0,30,0,0" stroke="#000" stroke-opacity="0.02" transform="translate(90, 180) scale(-1, -1)"/>
<polyline fill="#ddd" fill-opacity="0.41058823" points="0,0,30,30,0,30,0,0" stroke="#000" stroke-opacity="0.02" transform="translate(90, 120) scale(1, 1)"/>
<polyline fill="#222" fill-opacity="0.41058823" points="0,0,30,30,0,30,0,0" stroke="#000" stroke-opacity="0.02" transform="translate(120, 150) scale(1, -1)"/>
<polyline fill="#222" fill-opacity="0.41058823" points="0,0,30,30,0,30,0,0" stroke="#000" stroke-opacity="0.02" transform="translate(180, 150) scale(-1, -1)"/>
<polyline fill="#222" fill-opacity="0.41058823" points="0,0,30,30,0,30,0,0" stroke="#000" stroke-opacity="0.02" transform="translate(120, 150) scale(1, 1)"/>
<polyline fill="#222" fill-opacity="0.41058823" points="0,0,30,30,0,30,0,0" stroke="#000" stroke-opacity="0.02" transform="translate(180, 150) scale(-1, 1)"/>
<polyline fill="#222" fill-opacity="0.27254903" points="0,0,30,30,0,30,0,0" stroke="#000" stroke-opacity="0.02" transform="translate(210, 120) scale(-1, 1)"/>
<polyline fill="#222" fill-opacity="0.27254903" points="0,0,30,30,0,30,0,0" stroke="#000" stroke-opacity="0.02" transform="translate(210, 180) scale(1, -1)"/>
<polyline fill="#222" fill-opacity="0.27098042" points="0,0,30,30,0,30,0,0" stroke="#000" stroke-opacity="0.02" transform="translate(210, 180) scale(-1, -1)"/>
<polyline fill="#222" fill-opacity="0.27098042" points="0,0,30,30,0,30,0,0" stroke="#000" stroke-opacity="0.02" transform="translate(210, 120) scale(1, 1)"/>
<polyline fill="#ddd" fill-opacity="0.10784313" points="0,0,30,30,0,30,0,0" stroke="#000" stroke-opacity="0.02" transform="translate(30, 180) scale(-1, 1)"/>
<polyline fill="#ddd" fill-opacity="0.10784313" points="0,0,30,30,0,30,0,0" stroke="#000" stroke-opacity="0.02" transform="translate(30, 240) scale(1, -1)"/>
<polyline fill="#222" fill-opacity="0.34313726" points="0,0,30,30,0,30,0,0" stroke="#000" stroke-opacity="0.02" transform="translate(30, 240) scale(-1, -1)"/>
<polyline fill="#222" fill-opacity="0.34313726" points="0,0,30,30,0,30,0,0" stroke="#000" stroke-opacity="0.02" transform="translate(30, 180) scale(1, 1)"/>
<polyline fill="#ddd" fill-opacity="0.24588236" points="0,0,30,30,0,30,0,0" stroke="#000" stroke-opacity="0.02" transform="translate(60, 210) scale(1, -1)"/>
<polyline fill="#ddd" fill-opacity="0.24588236" points="0,0,30,30,0,30,0,0" stroke="#000" stroke-opacity="0.02" transform="translate(120, 210) scale(-1, -1)"/>
<polyline fill="#ddd" fill-opacity="0.24588236" points="0,0,30,30,0,30,0,0" stroke="#000" stroke-opacity="0.02" transform="translate(60, 210) scale(1, 1)"/>
<polyline fill="#ddd" fill-opacity="0.24588236" points="0,0,30,30,0,30,0,0" stroke="#000" stroke-opacity="0.02" transform="translate(120, 210) scale(-1, 1)"/>
<polyline fill="#ddd" fill-opacity="0.39333338" points="0,0,30,30,0,30,0,0" stroke="#000" stroke-opacity="0.02" transform="translate(150, 180) scale(-1, 1)"/>
<polyline fill="#ddd" fill-opacity="0.39333338" points="0,0,30,30,0,30,0,0" stroke="#000" stroke-opacity="0.02" transform="translate(150, 240) scale(1, -1)"/>
<polyline fill="#222" fill-opacity="0.2647059" points="0,0,30,30,0,30,0,0" stroke="#000" stroke-opacity="0.02" transform="translate(150, 240) scale(-1, -1)"/>
<polyline fill="#222" fill-opacity="0.2647059" points="0,0,30,30,0,30,0,0" stroke="#000" stroke-opacity="0.02" transform="translate(150, 180) scale(1, 1)"/>
<polyline fill="#222" fill-opacity="0.021568626" points="0,0,30,30,0,30,0,0" stroke="#000" stroke-opacity="0.02" transform="translate(180, 210) scale(1, -1)"/>
<polyline fill="#222" fill-opacity="0.021568626" points="0,0,30,30,0,30,0,0" stroke="#000" stroke-opacity="0.02" transform="translate(240, 210) scale(-1, -1)"/>
<polyline fill="#222" fill-opacity="0.021568626" points="0,0,30,30,0,30,0,0" stroke="#000" stroke-opacity="0.02" transform="translate(180, 210) scale(1, 1)"/>
<polyline fill="#222" fill-opacity="0.021568626" points="0,0,30,30,0,30,0,0" stroke="#000" stroke-opacity="0.02" transform="translate(240, 210) scale(-1, 1)"/>
</svg>