<svg height="96" width="96" xmlns="http://www.w3.org/2000/svg">
<rect fill="#444" height="100%" width="100%" x="0" y="0"/>
<polyline fill="#222" fill-opacity="0.08352941" points="7.92,0,16.08,0,24,7.92,24,16.08,16.08,24,7.92,24,0,16.08,0,7.92,7.92,0" stroke="#ddd" stroke-opacity="0.02" transform="translate(0, 0)"/>
<polyline fill="#222" fill-opacity="0.08666667" points="7.92,0,16.08,0,24,7.92,24,16.08,16.08,24,7.92,24,0,16.08,0,7.92,7.92,0" stroke="#ddd" stroke-opacity="0.02" transform="translate(24, 0)"/>
<polyline fill="#222" fill-opacity="0.04431373" points="7.92,0,16.08,0,24,7.92,24,16.08,16.08,24,7.92,24,0,16.08,0,7.92,7.92,0" stroke="#ddd" stroke-opacity="0.02" transform="translate(48, 0)"/>
<polyline fill="#222" fill-opacity="0.21843138" points="7.92,0,16.08,0,24,7.92,24,16.08,16.08,24,7.92,24,0,16.08,0,7.92,7.92,0" stroke="#ddd" stroke-opacity="0.02" transform="translate(72, 0)"/>
<polyline fill="#222" fill-opacity="0.03333333" points="7.92,0,16.08,0,24,7.92,24,16.08,16.08,24,7.92,24,0,16.08,0,7.92,7.92,0" stroke="#ddd" stroke-opacity="0.02" transform="translate(0, 24)"/>
<polyline fill="#ddd" fill-opacity="0.14235294" points="7.92,0,16.08,0,24,7.92,24,16.08,16.08,24,7.92,24,0,16.08,0,7.92,7.92,0" stroke="#ddd" stroke-opacity="0.02" transform="translate(24, 24)"/>
<polyline fill="#222" fill-opacity="0.18392156" points="7.92,0,16.08,0,24,7.92,24,16.08,16.08,24,7.92,24,0,16.08,0,7.92,7.92,0" stroke="#ddd" stroke-opacity="0.02" transform="translate(48, 24)"/>
<polyline fill="#ddd" fill-opacity="0.18156862" points="7.92,0,16.08,0,24,7.92,24,16.08,16.08,24,7.92,24,0,16.08,0,7.92,7.92,0" stroke="#ddd" stroke-opacity="0.02" transform="translate(72, 24)"/>
<polyline fill="#ddd" fill-opacity="0.1454902" points="7.92,0,16.08,0,24,7.92,24,16.08,16.08,24,7.92,24,0,16.08,0,7.92,7.92,0" stroke="#ddd" stroke-opacity="0.02" transform="translate(0, 48)"/>
<polyline fill="#222" fill-opacity="0.047450982" points="7.92,0,16.08,0,24,7.92,24,16.08,16.08,24,7.92,24,0,16.08,0,7.92,7.92,0" stroke="#ddd" stroke-opacity="0.02" transform="translate(24, 48)"/>
<polyline fill="#222" fill-opacity="0.21529411" points="7.92,0,16.08,0,24,7.92,24,16.08,16.08,24,7.92,24,0,16.08,0,7.92,7.92,0" stroke="#ddd" stroke-opacity="0.02" transform="translate(48, 48)"/>
<polyline fill="#222" fill-opacity="0.1462745" points="7.92,0,16.08,0,24,7.92,24,16.08,16.08,24,7.92,24,0,16.08,0,7.92,7.92,0" stroke="#ddd" stroke-opacity="0.02" transform="translate(72, 48)"/>
<polyline fill="#ddd" fill-opacity="0.06392157" points="7.92,0,16.08,0,24,7.92,24,16.08,16.08,24,7.92,24,0,16.08,0,7.92,7.92,0" stroke="#ddd" stroke-opacity="0.02" transform="translate(0, 72)"/>
<polyline fill="#ddd" fill-opacity="0.13294119" points="7.92,0,16.08,0,24,7.92,24,16.08,16.08,24,7.92,24,0,16.08,0,7.92,7.92,0" stroke="#ddd" stroke-opacity="0.02" transform="translate(24, 72)"/>
<polyline fill="#ddd" fill-opacity="0.20666668" points="7.92,0,16.08,0,24,7.92,24,16.08,16.08,24,7.92,24,0,16.08,0,7.92,7.92,0" stroke="#ddd" stroke-opacity="0.02" transform="translate(48, 72)"/>
<polyline fill="#222" fill-opacity="0.020784313" points="7.92,0,16.08,0,24,7.92,24,16.08,16.08,24,7.92,24,0,16.08,0,7.92,7.92,0" stroke="#ddd" stroke-opacity="0.02" transform="translate(72, 72)"/>
</svg>