<svg height="160" width="160" xmlns="http://www.w3.org/2000/svg">
<rect fill="rgb(1,79,141)" height="100%" width="100%" x="0" y="0"/>
<circle cx="0" cy="0" fill="none" r="35" stroke="#222" style="opacity:0.08352941;stroke-width:10;"/>
<circle cx="160" cy="0" fill="none" r="35" stroke="#222" style="opacity:0.08352941;stroke-width:10;"/>
<circle cx="0" cy="160" fill="none" r="35" stroke="#222" style="opacity:0.08352941;stroke-width:10;"/>
<circle cx="160" cy="160" fill="none" r="35" stroke="#222" style="opacity:0.08352941;stroke-width:10;"/>
<circle cx="40" cy="0" fill="none" r="35" stroke="#222" style="opacity:0.08666667;stroke-width:10;"/>
<circle cx="40" cy="160" fill="none" r="35" stroke="#222" style="opacity:0.08666667;stroke-width:10;"/>
<circle cx="80" cy="0" fill="none" r="35" stroke="#222" style="opacity:0.04431373;stroke-width:10;"/>
<circle cx="80" cy="160" fill="none" r="35" stroke="#222" style="opacity:0.04431373;stroke-width:10;"/>
<circle cx="120" cy="0" fill="none" r="35" stroke="#222" style="opacity:0.21843138;stroke-width:10;"/>
<circle cx="120" cy="160" fill="none" r="35" stroke="#222" style="opacity:0.21843138;stroke-width:10;"/>
<circle cx="0" cy="40" fill="none" r="35" stroke="#222" style="opacity:0.03333333;stroke-width:10;"/>
<circle cx="160" cy="40" fill="none" r="35" stroke="#222" style="opacity:0.03333333;stroke-width:10;"/>
<circle cx="40" cy="40" fill="none" r="35" stroke="#ddd" style="opacity:0.14235294;stroke-width:10;"/>
<circle cx="80" cy="40" fill="none" r="35" stroke="#222" style="opacity:0.18392156;stroke-width:10;"/>
<circle cx="120" cy="40" fill="none" r="35" stroke="#ddd" style="opacity:0.18156862;stroke-width:10;"/>
<circle cx="0" cy="80" fill="none" r="35" stroke="#ddd" style="opacity:0.1454902;stroke-width:10;"/>
<circle cx="160" cy="80" fill="none" r="35" stroke="#ddd" style="opacity:0.1454902;stroke-width:10;"/>
<circle cx="40" cy="80" fill="none" r="35" stroke="#222" style="opacity:0.047450982;stroke-width:10;"/>
<circle cx="80" cy="80" fill="none" r="35" stroke="#222" style="opacity:0.21529411;stroke-width:10;"/>
<circle cx="120" cy="80" fill="none" r="35" stroke="#222" style="opacity:0.1462745;stroke-width:10;"/>
<circle cx="0" cy="120" fill="none" r="35" stroke="#ddd" style="opacity:0.06392157;stroke-width:10;"/>
<circle cx="160" cy="120" fill="none" r="35" stroke="#ddd" style="opacity:0.06392157;stroke-width:10;"/>
<circle cx="40" cy="120" fill="none" r="35" stroke="#ddd" style="opacity:0.13294119;stroke-width:10;"/>
<circle cx="80" cy="120" fill="none" r="35" stroke="#ddd" style="opacity:0.20666668;stroke-width:10;"/>
<circle cx="120" cy="120" fill="none" r="35" stroke="#222" style="opacity:0.020784313;stroke-width:10;"/>
</svg>