<svg height="160" width="160" xmlns="http://www.w3.org/2000/svg">
<rect fill="rgb(1,238,144)" height="100%" width="100%" x="0" y="0"/>
<circle cx="0" cy="0" fill="#222" r="40" style="opacity:0.08352941;"/>
<circle cx="160" cy="0" fill="#222" r="40" style="opacity:0.08352941;"/>
<circle cx="0" cy="160" fill="#222" r="40" style="opacity:0.08352941;"/>
<circle cx="160" cy="160" fill="#222" r="40" style="opacity:0.08352941;"/>
<circle cx="40" cy="0" fill="#222" r="40" style="opacity:0.08666667;"/>
<circle cx="40" cy="160" fill="#222" r="40" style="opacity:0.08666667;"/>
<circle cx="80" cy="0" fill="#222" r="40" style="opacity:0.04431373;"/>
<circle cx="80" cy="160" fill="#222" r="40" style="opacity:0.04431373;"/>
<circle cx="120" cy="0" fill="#222" r="40" style="opacity:0.21843138;"/>
<circle cx="120" cy="160" fill="#222" r="40" style="opacity:0.21843138;"/>
<circle cx="0" cy="40" fill="#222" r="40" style="opacity:0.03333333;"/>
<circle cx="160" cy="40" fill="#222" r="40" style="opacity:0.03333333;"/>
<circle cx="40" cy="40" fill="#ddd" r="40" style="opacity:0.14235294;"/>
<circle cx="80" cy="40" fill="#222" r="40" style="opacity:0.18392156;"/>
<circle cx="120" cy="40" fill="#ddd" r="40" style="opacity:0.18156862;"/>
<circle cx="0" cy="80" fill="#ddd" r="40" style="opacity:0.1454902;"/>
<circle cx="160" cy="80" fill="#ddd" r="40" style="opacity:0.1454902;"/>
<circle cx="40" cy="80" fill="#222" r="40" style="opacity:0.047450982;"/>
<circle cx="80" cy="80" fill="#222" r="40" style="opacity:0.21529411;"/>
<circle cx="120" cy="80" fill="#222" r="40" style="opacity:0.1462745;"/>
<circle cx="0" cy="120" fill="#ddd" r="40" style="opacity:0.06392157;"/>
<circle cx="160" cy="120" fill="#ddd" r="40" style="opacity:0.06392157;"/>
<circle cx="40" cy="120" fill="#ddd" r="40" style="opacity:0.13294119;"/>
<circle cx="80" cy="120" fill="#ddd" r="40" style="opacity:0.20666668;"/>
<circle cx="120" cy="120" fill="#222" r="40" style="opacity:0.020784313;"/>
</svg>