<svg height="342.84705" width="342.84705" xmlns="http://www.w3.org/2000/svg">
<rect fill="rgb(238,79,141)" height="100%" width="100%" x="0" y="0"/>
<rect fill="#222" height="7.666667" opacity="0.08352941" width="100%" x="0" y="7.541177"/>
<rect fill="#222" height="5.972549" opacity="0.08666667" width="100%" x="0" y="22.874512"/>
<rect fill="#222" height="12.937255" opacity="0.04431373" width="100%" x="0" y="34.81961"/>
<rect fill="#222" height="5.5333333" opacity="0.21843138" width="100%" x="0" y="60.694122"/>
<rect fill="#222" height="9.894117" opacity="0.03333333" width="100%" x="0" y="71.76079"/>
<rect fill="#ddd" height="11.556863" opacity="0.14235294" width="100%" x="0" y="91.54903"/>
<rect fill="#222" height="11.462746" opacity="0.18392156" width="100%" x="0" y="114.66275"/>
<rect fill="#ddd" height="10.019608" opacity="0.18156862" width="100%" x="0" y="137.58824"/>
<rect fill="#ddd" height="6.098039" opacity="0.1454902" width="100%" x="0" y="157.62746"/>
<rect fill="#222" height="12.811765" opacity="0.047450982" width="100%" x="0" y="169.82353"/>
<rect fill="#222" height="10.050981" opacity="0.21529411" width="100%" x="0" y="195.44707"/>
<rect fill="#222" height="6.7568626" opacity="0.1462745" width="100%" x="0" y="215.54903"/>
<rect fill="#ddd" height="9.517647" opacity="0.06392157" width="100%" x="0" y="229.06276"/>
<rect fill="#ddd" height="12.466667" opacity="0.13294119" width="100%" x="0" y="248.09805"/>
<rect fill="#ddd" height="5.0313725" opacity="0.20666668" width="100%" x="0" y="273.0314"/>
<rect fill="#222" height="7.4784317" opacity="0.020784313" width="100%" x="0" y="283.09415"/>
<rect fill="#222" height="9.42353" opacity="0.08196078" width="100%" x="0" y="298.051"/>
<rect fill="#222" height="7.603922" opacity="0.13058823" width="100%" x="0" y="316.89804"/>
<rect fill="#222" height="10.741177" opacity="0.08509804" width="100%" x="0" y="332.10587"/>
<rect fill="#222" height="100%" opacity="0.08352941" width="7.666667" x="7.541177" y="0"/>
<rect fill="#222" height="100%" opacity="0.08666667" width="5.972549" x="22.874512" y="0"/>
<rect fill="#222" height="100%" opacity="0.04431373" width="12.937255" x="34.81961" y="0"/>
<rect fill="#222" height="100%" opacity="0.21843138" width="5.5333333" x="60.694122" y="0"/>
<rect fill="#222" height="100%" opacity="0.03333333" width="9.894117" x="71.76079" y="0"/>
<rect fill="#ddd" height="100%" opacity="0.14235294" width="11.556863" x="91.54903" y="0"/>
<rect fill="#222" height="100%" opacity="0.18392156" width="11.462746" x="114.66275" y="0"/>
<rect fill="#ddd" height="100%" opacity="0.18156862" width="10.019608" x="137.58824" y="0"/>
<rect fill="#ddd" height="100%" opacity="0.1454902" width="6.098039" x="157.62746" y="0"/>
<rect fill="#222" height="100%" opacity="0.047450982" width="12.811765" x="169.82353" y="0"/>
<rect fill="#222" height="100%" opacity="0.21529411" width="10.050981" x="195.44707" y="0"/>
<rect fill="#222" height="100%" opacity="0.1462745" width="6.7568626" x="215.54903" y="0"/>
<rect fill="#ddd" height="100%" opacity="0.06392157" width="9.517647" x="229.06276" y="0"/>
<rect fill="#ddd" height="100%" opacity="0.13294119" width="12.466667" x="248.09805" y="0"/>
<rect fill="#ddd" height="100%" opacity="0.20666668" width="5.0313725" x="273.0314" y="0"/>
<rect fill="#222" height="100%" opacity="0.020784313" width="7.4784317" x="283.09415" y="0"/>
<rect fill="#222" height="100%" opacity="0.08196078" width="9.42353" x="298.051" y="0"/>
<rect fill="#222" height="100%" opacity="0.13058823" width="7.603922" x="316.89804" y="0"/>
<rect fill="#222" height="100%" opacity="0.08509804" width="10.741177" x="332.10587" y="0"/>
</svg>