<svg height="160" width="300" xmlns="http://www.w3.org/2000/svg">
<rect fill="rgb(249,144,238)" height="100%" width="100%" x="0" y="0"/>
<path d="M0 80 C 52.5 0, 97.5 0, 150 80 S 247.5 160, 300 80 S 397.5 0, 450, 80" fill="none" stroke="#222" stroke-opacity="0.14705883" stroke-width="10" transform="translate(-75, -120)"/>
<path d="M0 80 C 52.5 0, 97.5 0, 150 80 S 247.5 160, 300 80 S 397.5 0, 450, 80" fill="none" stroke="#222" stroke-opacity="0.14705883" stroke-width="10" transform="translate(-75, 40)"/>
<path d="M0 80 C 52.5 0, 97.5 0, 150 80 S 247.5 160, 300 80 S 397.5 0, 450, 80" fill="none" stroke="#222" stroke-opacity="0.15333334" stroke-width="10" transform="translate(-75, -110)"/>
<path d="M0 80 C 52.5 0, 97.5 0, 150 80 S 247.5 160, 300 80 S 397.5 0, 450, 80" fill="none" stroke="#222" stroke-opacity="0.15333334" stroke-width="10" transform="translate(-75, 50)"/>
<path d="M0 80 C 52.5 0, 97.5 0, 150 80 S 247.5 160, 300 80 S 397.5 0, 450, 80" fill="none" stroke="#222" stroke-opacity="0.068627454" stroke-width="10" transform="translate(-75, -100)"/>
<path d="M0 80 C 52.5 0, 97.5 0, 150 80 S 247.5 160, 300 80 S 397.5 0, 450, 80" fill="none" stroke="#222" stroke-opacity="0.068627454" stroke-width="10" transform="translate(-75, 60)"/>
<path d="M0 80 C 52.5 0, 97.5 0, 150 80 S 247.5 160, 300 80 S 397.5 0, 450, 80" fill="none" stroke="#222" stroke-opacity="0.4168628" stroke-width="10" transform="translate(-75, -90)"/>
<path d="M0 80 C 52.5 0, 97.5 0, 150 80 S 247.5 160, 300 80 S 397.5 0, 450, 80" fill="none" stroke="#222" stroke-opacity="0.4168628" stroke-width="10" transform="translate(-75, 70)"/>
<path d="M0 80 C 52.5 0, 97.5 0, 150 80 S 247.5 160, 300 80 S 397.5 0, 450, 80" fill="none" stroke="#222" stroke-opacity="0.046666667" stroke-width="10" transform="translate(-75, -80)"/>
<path d="M0 80 C 52.5 0, 97.5 0, 150 80 S 247.5 160, 300 80 S 397.5 0, 450, 80" fill="none" stroke="#222" stroke-opacity="0.046666667" stroke-width="10" transform="translate(-75, 80)"/>
<path d="M0 80 C 52.5 0, 97.5 0, 150 80 S 247.5 160, 300 80 S 397.5 0, 450, 80" fill="none" stroke="#ddd" stroke-opacity="0.2647059" stroke-width="10" transform="translate(-75, -70)"/>
<path d="M0 80 C 52.5 0, 97.5 0, 150 80 S 247.5 160, 300 80 S 397.5 0, 450, 80" fill="none" stroke="#ddd" stroke-opacity="0.2647059" stroke-width="10" transform="translate(-75, 90)"/>
<path d="M0 80 C 52.5 0, 97.5 0, 150 80 S 247.5 160, 300 80 S 397.5 0, 450, 80" fill="none" stroke="#222" stroke-opacity="0.34784314" stroke-width="10" transform="translate(-75, -60)"/>
<path d="M0 80 C 52.5 0, 97.5 0, 150 80 S 247.5 160, 300 80 S 397.5 0, 450, 80" fill="none" stroke="#222" stroke-opacity="0.34784314" stroke-width="10" transform="translate(-75, 100)"/>
<path d="M0 80 C 52.5 0, 97.5 0, 150 80 S 247.5 160, 300 80 S 397.5 0, 450, 80" fill="none" stroke="#ddd" stroke-opacity="0.34313726" stroke-width="10" transform="translate(-75, -50)"/>
<path d="M0 80 C 52.5 0, 97.5 0, 150 80 S 247.5 160, 300 80 S 397.5 0, 450, 80" fill="none" stroke="#ddd" stroke-opacity="0.34313726" stroke-width="10" transform="translate(-75, 110)"/>
<path d="M0 80 C 52.5 0, 97.5 0, 150 80 S 247.5 160, 300 80 S 397.5 0, 450, 80" fill="none" stroke="#ddd" stroke-opacity="0.27098042" stroke-width="10" transform="translate(-75, -40)"/>
<path d="M0 80 C 52.5 0, 97.5 0, 150 80 S 247.5 160, 300 80 S 397.5 0, 450, 80" fill="none" stroke="#ddd" stroke-opacity="0.27098042" stroke-width="10" transform="translate(-75, 120)"/>
<path d="M0 80 C 52.5 0, 97.5 0, 150 80 S 247.5 160, 300 80 S 397.5 0, 450, 80" fill="none" stroke="#222" stroke-opacity="0.07490196" stroke-width="10" transform="translate(-75, -30)"/>
<path d="M0 80 C 52.5 0, 97.5 0, 150 80 S 247.5 160, 300 80 S 397.5 0, 450, 80" fill="none" stroke="#222" stroke-opacity="0.07490196" stroke-width="10" transform="translate(-75, 130)"/>
<path d="M0 80 C 52.5 0, 97.5 0, 150 80 S 247.5 160, 300 80 S 397.5 0, 450, 80" fill="none" stroke="#222" stroke-opacity="0.41058823" stroke-width="10" transform="translate(-75, -20)"/>
<path d="M0 80 C 52.5 0, 97.5 0, 150 80 S 247.5 160, 300 80 S 397.5 0, 450, 80" fill="none" stroke="#222" stroke-opacity="0.41058823" stroke-width="10" transform="translate(-75, 140)"/>
<path d="M0 80 C 52.5 0, 97.5 0, 150 80 S 247.5 160, 300 80 S 397.5 0, 450, 80" fill="none" stroke="#222" stroke-opacity="0.27254903" stroke-width="10" transform="translate(-75, -10)"/>
<path d="M0 80 C 52.5 0, 97.5 0, 150 80 S 247.5 160, 300 80 S 397.5 0, 450, 80" fill="none" stroke="#222" stroke-opacity="0.27254903" stroke-width="10" transform="translate(-75, 150)"/>
<path d="M0 80 C 52.5 0, 97.5 0, 150 80 S 247.5 160, 300 80 S 397.5 0, 450, 80" fill="none" stroke="#ddd" stroke-opacity="0.10784313" stroke-width="10" transform="translate(-75, 0)"/>
<path d="M0 80 C 52.5 0, 97.5 0, 150 80 S 247.5 160, 300 80 S 397.5 0, 450, 80" fill="none" stroke="#ddd" stroke-opacity="0.10784313" stroke-width="10" transform="translate(-75, 160)"/>
<path d="M0 80 C 52.5 0, 97.5 0, 150 80 S 247.5 160, 300 80 S 397.5 0, 450, 80" fill="none" stroke="#ddd" stroke-opacity="0.24588236" stroke-width="10" transform="translate(-75, 10)"/>
<path d="M0 80 C 52.5 0, 97.5 0, 150 80 S 247.5 160, 300 80 S 397.5 0, 450, 80" fill="none" stroke="#ddd" stroke-opacity="0.24588236" stroke-width="10" transform="translate(-75, 170)"/>
<path d="M0 80 C 52.5 0, 97.5 0, 150 80 S 247.5 160, 300 80 S 397.5 0, 450, 80" fill="none" stroke="#ddd" stroke-opacity="0.39333338" stroke-width="10" transform="translate(-75, 20)"/>
<path d="M0 80 C 52.5 0, 97.5 0, 150 80 S 247.5 160, 300 80 S 397.5 0, 450, 80" fill="none" stroke="#ddd" stroke-opacity="0.39333338" stroke-width="10" transform="translate(-75, 180)"/>
<path d="M0 80 C 52.5 0, 97.5 0, 150 80 S 247.5 160, 300 80 S 397.5 0, 450, 80" fill="none" stroke="#222" stroke-opacity="0.021568626" stroke-width="10" transform="translate(-75, 30)"/>
<path d="M0 80 C 52.5 0, 97.5 0, 150 80 S 247.5 160, 300 80 S 397.5 0, 450, 80" fill="none" stroke="#222" stroke-opacity="0.021568626" stroke-width="10" transform="translate(-75, 190)"/>
</svg>