<svg height="192" width="192" xmlns="http://www.w3.org/2000/svg">
<rect fill="rgb(160,249,238)" height="100%" width="100%" x="0" y="0"/>
<rect fill="#222" fill-opacity="0.068627454" height="48" stroke="#ddd" stroke-opacity="0.02" width="48" x="0" y="0"/>
<rect fill="#222" fill-opacity="0.4168628" height="48" stroke="#ddd" stroke-opacity="0.02" width="48" x="48" y="0"/>
<rect fill="#222" fill-opacity="0.046666667" height="48" stroke="#ddd" stroke-opacity="0.02" width="48" x="96" y="0"/>
<rect fill="#ddd" fill-opacity="0.2647059" height="48" stroke="#ddd" stroke-opacity="0.02" width="48" x="144" y="0"/>
<rect fill="#222" fill-opacity="0.34784314" height="48" stroke="#ddd" stroke-opacity="0.02" width="48" x="0" y="48"/>
<rect fill="#ddd" fill-opacity="0.34313726" height="48" stroke="#ddd" stroke-opacity="0.02" width="48" x="48" y="48"/>
<rect fill="#ddd" fill-opacity="0.27098042" height="48" stroke="#ddd" stroke-opacity="0.02" width="48" x="96" y="48"/>
<rect fill="#222" fill-opacity="0.07490196" height="48" stroke="#ddd" stroke-opacity="0.02" width="48" x="144" y="48"/>
<rect fill="#222" fill-opacity="0.41058823" height="48" stroke="#ddd" stroke-opacity="0.02" width="48" x="0" y="96"/>
<rect fill="#222" fill-opacity="0.27254903" height="48" stroke="#ddd" stroke-opacity="0.02" width="48" x="48" y="96"/>
<rect fill="#ddd" fill-opacity="0.10784313" height="48" stroke="#ddd" stroke-opacity="0.02" width="48" x="96" y="96"/>
<rect fill="#ddd" fill-opacity="0.24588236" height="48" stroke="#ddd" stroke-opacity="0.02" width="48" x="144" y="96"/>
<rect fill="#ddd" fill-opacity="0.39333338" height="48" stroke="#ddd" stroke-opacity="0.02" width="48" x="0" y="144"/>
<rect fill="#222" fill-opacity="0.021568626" height="48" stroke="#ddd" stroke-opacity="0.02" width="48" x="48" y="144"/>
<rect fill="#222" fill-opacity="0.14392157" height="48" stroke="#ddd" stroke-opacity="0.02" width="48" x="96" y="144"/>
<rect fill="#222" fill-opacity="0.24117647" height="48" stroke="#ddd" stroke-opacity="0.02" width="48" x="144" y="144"/>
</svg>