<svg height="360" width="288" xmlns="http://www.w3.org/2000/svg">
<rect fill="#222" height="100%" width="100%" x="0" y="0"/>
<path d="M 5.5200005 99.924706 L 48.748238 30.748236 L 5.5200005 99.924706 Z" fill="#888" fill-opacity="0.31764707" stroke="#222" stroke-linejoin="bevel" stroke-opacity="0.8" stroke-width="2"/>
<path d="M 48.748238 30.748236 L 5.5200005 99.924706 L 48.748238 30.748236 Z" fill="#888" fill-opacity="0.33333334" stroke="#222" stroke-linejoin="bevel" stroke-opacity="0.8" stroke-width="2"/>
<path d="M 5.5200005 99.924706 L 48.748238 30.748236 L 93.21883 93.712944 Z" fill="#888" fill-opacity="0.12156863" stroke="#222" stroke-linejoin="bevel" stroke-opacity="0.8" stroke-width="2"/>
<path d="M 48.748238 30.748236 L 93.21883 93.712944 L 121.2 50.174118 Z" fill="#888" fill-opacity="0.99215686" stroke="#222" stroke-linejoin="bevel" stroke-opacity="0.8" stroke-width="2"/>
<path d="M 93.21883 93.712944 L 121.2 50.174118 L 93.21883 93.712944 Z" fill="#888" fill-opacity="0.06666667" stroke="#222" stroke-linejoin="bevel" stroke-opacity="0.8" stroke-width="2"/>
<path d="M 121.2 50.174118 L 93.21883 93.712944 L 121.2 50.174118 Z" fill="#888" fill-opacity="0.6117647" stroke="#222" stroke-linejoin="bevel" stroke-opacity="0.8" stroke-width="2"/>
<path d="M 93.21883 93.712944 L 121.2 50.174118 L 171.20471 102.97412 Z" fill="#888" fill-opacity="0.81960785" stroke="#222" stroke-linejoin="bevel" stroke-opacity="0.8" stroke-width="2"/>
<path d="M 121.2 50.174118 L 171.20471 102.97412 L 187.10118 45.20471 Z" fill="#888" fill-opacity="0.80784315" stroke="#222" stroke-linejoin="bevel" stroke-opacity="0.8" stroke-width="2"/>
<path d="M 171.20471 102.97412 L 187.10118 45.20471 L 171.20471 102.97412 Z" fill="#888" fill-opacity="0.627451" stroke="#222" stroke-linejoin="bevel" stroke-opacity="0.8" stroke-width="2"/>
<path d="M 187.10118 45.20471 L 171.20471 102.97412 L 187.10118 45.20471 Z" fill="#888" fill-opacity="0.13725491" stroke="#222" stroke-linejoin="bevel" stroke-opacity="0.8" stroke-width="2"/>
<path d="M 171.20471 102.97412 L 187.10118 45.20471 L 242.86588 103.2 Z" fill="#888" fill-opacity="0.9764706" stroke="#222" stroke-linejoin="bevel" stroke-opacity="0.8" stroke-width="2"/>
<path d="M 187.10118 45.20471 L 242.86588 103.2 L 284.1741 25.552942 Z" fill="#888" fill-opacity="0.6313726" stroke="#222" stroke-linejoin="bevel" stroke-opacity="0.8" stroke-width="2"/>
<path d="M 242.86588 103.2 L 284.1741 25.552942 L 242.86588 103.2 Z" fill="#888" fill-opacity="0.21960784" stroke="#222" stroke-linejoin="bevel" stroke-opacity="0.8" stroke-width="2"/>
<path d="M 284.1741 25.552942 L 242.86588 103.2 L 284.1741 25.552942 Z" fill="#888" fill-opacity="0.5647059" stroke="#222" stroke-linejoin="bevel" stroke-opacity="0.8" stroke-width="2"/>
<path d="M 5.5200005 99.924706 L 57.67059 167.52 L 5.5200005 99.924706 Z" fill="#888" fill-opacity="0.93333334" stroke="#222" stroke-linejoin="bevel" stroke-opacity="0.8" stroke-width="2"/>
<path d="M 57.67059 167.52 L 5.5200005 99.924706 L 57.67059 167.52 Z" fill="#888" fill-opacity="0.003921569" stroke="#222" stroke-linejoin="bevel" stroke-opacity="0.8" stroke-width="2"/>
<path d="M 5.5200005 99.924706 L 57.67059 167.52 L 93.21883 93.712944 Z" fill="#888" fill-opacity="0.30980393" stroke="#222" stroke-linejoin="bevel" stroke-opacity="0.8" stroke-width="2"/>
<path d="M 57.67059 167.52 L 93.21883 93.712944 L 115.55294 188.86588 Z" fill="#888" fill-opacity="0.5529412" stroke="#222" stroke-linejoin="bevel" stroke-opacity="0.8" stroke-width="2"/>
<path d="M 93.21883 93.712944 L 115.55294 188.86588 L 93.21883 93.712944 Z" fill="#888" fill-opacity="0.3254902" stroke="#222" stroke-linejoin="bevel" stroke-opacity="0.8" stroke-width="2"/>
<path d="M 115.55294 188.86588 L 93.21883 93.712944 L 115.55294 188.86588 Z" fill="#888" fill-opacity="0.7176471" stroke="#222" stroke-linejoin="bevel" stroke-opacity="0.8" stroke-width="2"/>
<path d="M 93.21883 93.712944 L 115.55294 188.86588 L 171.20471 102.97412 Z" fill="#888" fill-opacity="0.31764707" stroke="#222" stroke-linejoin="bevel" stroke-opacity="0.8" stroke-width="2"/>
<path d="M 115.55294 188.86588 L 171.20471 102.97412 L 211.72235 193.72235 Z" fill="#888" fill-opacity="0.33333334" stroke="#222" stroke-linejoin="bevel" stroke-opacity="0.8" stroke-width="2"/>
<path d="M 171.20471 102.97412 L 211.72235 193.72235 L 171.20471 102.97412 Z" fill="#888" fill-opacity="0.12156863" stroke="#222" stroke-linejoin="bevel" stroke-opacity="0.8" stroke-width="2"/>
<path d="M 211.72235 193.72235 L 171.20471 102.97412 L 211.72235 193.72235 Z" fill="#888" fill-opacity="0.99215686" stroke="#222" stroke-linejoin="bevel" stroke-opacity="0.8" stroke-width="2"/>
<path d="M 171.20471 102.97412 L 211.72235 193.72235 L 242.86588 103.2 Z" fill="#888" fill-opacity="0.06666667" stroke="#222" stroke-linejoin="bevel" stroke-opacity="0.8" stroke-width="2"/>
<path d="M 211.72235 193.72235 L 242.86588 103.2 L 273.78354 181.86353 Z" fill="#888" fill-opacity="0.6117647" stroke="#222" stroke-linejoin="bevel" stroke-opacity="0.8" stroke-width="2"/>
<path d="M 242.86588 103.2 L 273.78354 181.86353 L 242.86588 103.2 Z" fill="#888" fill-opacity="0.81960785" stroke="#222" stroke-linejoin="bevel" stroke-opacity="0.8" stroke-width="2"/>
<path d="M 273.78354 181.86353 L 242.86588 103.2 L 273.78354 181.86353 Z" fill="#888" fill-opacity="0.80784315" stroke="#222" stroke-linejoin="bevel" stroke-opacity="0.8" stroke-width="2"/>
<path d="M 9.924706 246.52235 L 57.67059 167.52 L 9.924706 246.52235 Z" fill="#888" fill-opacity="0.627451" stroke="#222" stroke-linejoin="bevel" stroke-opacity="0.8" stroke-width="2"/>
<path d="M 57.67059 167.52 L 9.924706 246.52235 L 57.67059 167.52 Z" fill="#888" fill-opacity="0.13725491" stroke="#222" stroke-linejoin="bevel" stroke-opacity="0.8" stroke-width="2"/>
<path d="M 9.924706 246.52235 L 57.67059 167.52 L 91.86353 258.26825 Z" fill="#888" fill-opacity="0.9764706" stroke="#222" stroke-linejoin="bevel" stroke-opacity="0.8" stroke-width="2"/>
<path d="M 57.67059 167.52 L 91.86353 258.26825 L 115.55294 188.86588 Z" fill="#888" fill-opacity="0.6313726" stroke="#222" stroke-linejoin="bevel" stroke-opacity="0.8" stroke-width="2"/>
<path d="M 91.86353 258.26825 L 115.55294 188.86588 L 91.86353 258.26825 Z" fill="#888" fill-opacity="0.21960784" stroke="#222" stroke-linejoin="bevel" stroke-opacity="0.8" stroke-width="2"/>
<path d="M 115.55294 188.86588 L 91.86353 258.26825 L 115.55294 188.86588 Z" fill="#888" fill-opacity="0.5647059" stroke="#222" stroke-linejoin="bevel" stroke-opacity="0.8" stroke-width="2"/>
<path d="M 91.86353 258.26825 L 115.55294 188.86588 L 174.48 241.10118 Z" fill="#888" fill-opacity="0.93333334" stroke="#222" stroke-linejoin="bevel" stroke-opacity="0.8" stroke-width="2"/>
<path d="M 115.55294 188.86588 L 174.48 241.10118 L 211.72235 193.72235 Z" fill="#888" fill-opacity="0.003921569" stroke="#222" stroke-linejoin="bevel" stroke-opacity="0.8" stroke-width="2"/>
<path d="M 174.48 241.10118 L 211.72235 193.72235 L 174.48 241.10118 Z" fill="#888" fill-opacity="0.30980393" stroke="#222" stroke-linejoin="bevel" stroke-opacity="0.8" stroke-width="2"/>
<path d="M 211.72235 193.72235 L 174.48 241.10118 L 211.72235 193.72235 Z" fill="#888" fill-opacity="0.5529412" stroke="#222" stroke-linejoin="bevel" stroke-opacity="0.8" stroke-width="2"/>
<path d="M 174.48 241.10118 L 211.72235 193.72235 L 219.71294 255.21883 Z" fill="#888" fill-opacity="0.3254902" stroke="#222" stroke-linejoin="bevel" stroke-opacity="0.8" stroke-width="2"/>
<path d="M 211.72235 193.72235 L 219.71294 255.21883 L 273.78354 181.86353 Z" fill="#888" fill-opacity="0.7176471" stroke="#222" stroke-linejoin="bevel" stroke-opacity="0.8" stroke-width="2"/>
<path d="M 219.71294 255.21883 L 273.78354 181.86353 L 219.71294 255.21883 Z" fill="#888" fill-opacity="0.31764707" stroke="#222" stroke-linejoin="bevel" stroke-opacity="0.8" stroke-width="2"/>
<path d="M 273.78354 181.86353 L 219.71294 255.21883 L 273.78354 181.86353 Z" fill="#888" fill-opacity="0.33333334" stroke="#222" stroke-linejoin="bevel" stroke-opacity="0.8" stroke-width="2"/>
<path d="M 9.924706 246.52235 L 48.522354 327.6706 L 9.924706 246.52235 Z" fill="#888" fill-opacity="0.12156863" stroke="#222" stroke-linejoin="bevel" stroke-opacity="0.8" stroke-width="2"/>
<path d="M 48.522354 327.6706 L 9.924706 246.52235 L 48.522354 327.6706 Z" fill="#888" fill-opacity="0.99215686" stroke="#222" stroke-linejoin="bevel" stroke-opacity="0.8" stroke-width="2"/>
<path d="M 9.924706 246.52235 L 48.522354 327.6706 L 91.86353 258.26825 Z" fill="#888" fill-opacity="0.06666667" stroke="#222" stroke-linejoin="bevel" stroke-opacity="0.8" stroke-width="2"/>
<path d="M 48.522354 327.6706 L 91.86353 258.26825 L 127.524704 327.78354 Z" fill="#888" fill-opacity="0.6117647" stroke="#222" stroke-linejoin="bevel" stroke-opacity="0.8" stroke-width="2"/>
<path d="M 91.86353 258.26825 L 127.524704 327.78354 L 91.86353 258.26825 Z" fill="#888" fill-opacity="0.81960785" stroke="#222" stroke-linejoin="bevel" stroke-opacity="0.8" stroke-width="2"/>
<path d="M 127.524704 327.78354 L 91.86353 258.26825 L 127.524704 327.78354 Z" fill="#888" fill-opacity="0.80784315" stroke="#222" stroke-linejoin="bevel" stroke-opacity="0.8" stroke-width="2"/>
<path d="M 91.86353 258.26825 L 127.524704 327.78354 L 174.48 241.10118 Z" fill="#888" fill-opacity="0.627451" stroke="#222" stroke-linejoin="bevel" stroke-opacity="0.8" stroke-width="2"/>
<path d="M 127.524704 327.78354 L 174.48 241.10118 L 192.97412 336.48 Z" fill="#888" fill-opacity="0.13725491" stroke="#222" stroke-linejoin="bevel" stroke-opacity="0.8" stroke-width="2"/>
<path d="M 174.48 241.10118 L 192.97412 336.48 L 174.48 241.10118 Z" fill="#888" fill-opacity="0.9764706" stroke="#222" stroke-linejoin="bevel" stroke-opacity="0.8" stroke-width="2"/>
<path d="M 192.97412 336.48 L 174.48 241.10118 L 192.97412 336.48 Z" fill="#888" fill-opacity="0.6313726" stroke="#222" stroke-linejoin="bevel" stroke-opacity="0.8" stroke-width="2"/>
<path d="M 174.48 241.10118 L 192.97412 336.48 L 219.71294 255.21883 Z" fill="#888" fill-opacity="0.21960784" stroke="#222" stroke-linejoin="bevel" stroke-opacity="0.8" stroke-width="2"/>
<path d="M 192.97412 336.48 L 219.71294 255.21883 L 276.26825 325.52472 Z" fill="#888" fill-opacity="0.5647059" stroke="#222" stroke-linejoin="bevel" stroke-opacity="0.8" stroke-width="2"/>
<path d="M 219.71294 255.21883 L 276.26825 325.52472 L 219.71294 255.21883 Z" fill="#888" fill-opacity="0.93333334" stroke="#222" stroke-linejoin="bevel" stroke-opacity="0.8" stroke-width="2"/>
<path d="M 276.26825 325.52472 L 219.71294 255.21883 L 276.26825 325.52472 Z" fill="#888" fill-opacity="0.003921569" stroke="#222" stroke-linejoin="bevel" stroke-opacity="0.8" stroke-width="2"/>
</svg>