<svg height="249.41531" width="144" xmlns="http://www.w3.org/2000/svg">
<rect fill="rgb(31,160,79)" height="100%" width="100%" x="0" y="0"/>
<polyline fill="#222" fill-opacity="0.068627454" points="36,0,72,62.35383,0,62.35383,36,0" stroke="#ddd" stroke-opacity="0.02" transform="translate(-36, 0) rotate(180, 36, 31.176914)"/>
<polyline fill="#222" fill-opacity="0.068627454" points="36,0,72,62.35383,0,62.35383,36,0" stroke="#ddd" stroke-opacity="0.02" transform="translate(108, 0) rotate(180, 36, 31.176914)"/>
<polyline fill="#222" fill-opacity="0.4168628" points="36,0,72,62.35383,0,62.35383,36,0" stroke="#ddd" stroke-opacity="0.02" transform="translate(0, 0) rotate(0, 36, 31.176914)"/>
<polyline fill="#222" fill-opacity="0.046666667" points="36,0,72,62.35383,0,62.35383,36,0" stroke="#ddd" stroke-opacity="0.02" transform="translate(36, 0) rotate(180, 36, 31.176914)"/>
<polyline fill="#ddd" fill-opacity="0.2647059" points="36,0,72,62.35383,0,62.35383,36,0" stroke="#ddd" stroke-opacity="0.02" transform="translate(72, 0) rotate(0, 36, 31.176914)"/>
<polyline fill="#222" fill-opacity="0.34784314" points="36,0,72,62.35383,0,62.35383,36,0" stroke="#ddd" stroke-opacity="0.02" transform="translate(-36, 62.35383) rotate(0, 36, 31.176914)"/>
<polyline fill="#222" fill-opacity="0.34784314" points="36,0,72,62.35383,0,62.35383,36,0" stroke="#ddd" stroke-opacity="0.02" transform="translate(108, 62.35383) rotate(0, 36, 31.176914)"/>
<polyline fill="#ddd" fill-opacity="0.34313726" points="36,0,72,62.35383,0,62.35383,36,0" stroke="#ddd" stroke-opacity="0.02" transform="translate(0, 62.35383) rotate(180, 36, 31.176914)"/>
<polyline fill="#ddd" fill-opacity="0.27098042" points="36,0,72,62.35383,0,62.35383,36,0" stroke="#ddd" stroke-opacity="0.02" transform="translate(36, 62.35383) rotate(0, 36, 31.176914)"/>
<polyline fill="#222" fill-opacity="0.07490196" points="36,0,72,62.35383,0,62.35383,36,0" stroke="#ddd" stroke-opacity="0.02" transform="translate(72, 62.35383) rotate(180, 36, 31.176914)"/>
<polyline fill="#222" fill-opacity="0.41058823" points="36,0,72,62.35383,0,62.35383,36,0" stroke="#ddd" stroke-opacity="0.02" transform="translate(-36, 124.70766) rotate(180, 36, 31.176914)"/>
<polyline fill="#222" fill-opacity="0.41058823" points="36,0,72,62.35383,0,62.35383,36,0" stroke="#ddd" stroke-opacity="0.02" transform="translate(108, 124.70766) rotate(180, 36, 31.176914)"/>
<polyline fill="#222" fill-opacity="0.27254903" points="36,0,72,62.35383,0,62.35383,36,0" stroke="#ddd" stroke-opacity="0.02" transform="translate(0, 124.70766) rotate(0, 36, 31.176914)"/>
<polyline fill="#ddd" fill-opacity="0.10784313" points="36,0,72,62.35383,0,62.35383,36,0" stroke="#ddd" stroke-opacity="0.02" transform="translate(36, 124.70766) rotate(180, 36, 31.176914)"/>
<polyline fill="#ddd" fill-opacity="0.24588236" points="36,0,72,62.35383,0,62.35383,36,0" stroke="#ddd" stroke-opacity="0.02" transform="translate(72, 124.70766) rotate(0, 36, 31.176914)"/>
<polyline fill="#ddd" fill-opacity="0.39333338" points="36,0,72,62.35383,0,62.35383,36,0" stroke="#ddd" stroke-opacity="0.02" transform="translate(-36, 187.0615) rotate(0, 36, 31.176914)"/>
<polyline fill="#ddd" fill-opacity="0.39333338" points="36,0,72,62.35383,0,62.35383,36,0" stroke="#ddd" stroke-opacity="0.02" transform="translate(108, 187.0615) rotate(0, 36, 31.176914)"/>
<polyline fill="#222" fill-opacity="0.021568626" points="36,0,72,62.35383,0,62.35383,36,0" stroke="#ddd" stroke-opacity="0.02" transform="translate(0, 187.0615) rotate(180, 36, 31.176914)"/>
<polyline fill="#222" fill-opacity="0.14392157" points="36,0,72,62.35383,0,62.35383,36,0" stroke="#ddd" stroke-opacity="0.02" transform="translate(36, 187.0615) rotate(0, 36, 31.176914)"/>
<polyline fill="#222" fill-opacity="0.24117647" points="36,0,72,62.35383,0,62.35383,36,0" stroke="#ddd" stroke-opacity="0.02" transform="translate(72, 187.0615) rotate(180, 36, 31.176914)"/>
</svg>