<svg height="384" width="384" xmlns="http://www.w3.org/2000/svg">
<rect fill="#141414" height="100%" width="100%" x="0" y="0"/>
<path d="M 16 0 L 16 32" stroke="rgb(168,168,168)" stroke-opacity="0.4882353" stroke-width="4" transform="rotate(-32.82353 16 16)"/>
<path d="M 48 0 L 48 32" stroke="rgb(170,143,254)" stroke-opacity="0.5" stroke-width="4" transform="rotate(-30 48 16)"/>
<path d="M 80 0 L 80 32" stroke="rgb(143,136,232)" stroke-opacity="0.34117648" stroke-width="4" transform="rotate(-68.117645 80 16)"/>
<path d="M 112 0 L 112 32" stroke="rgb(254,232,145)" stroke-opacity="0.9941176" stroke-width="4" transform="rotate(88.58824 112 16)"/>
<path d="M 144 0 L 144 32" stroke="rgb(136,208,156)" stroke-opacity="0.3" stroke-width="4" transform="rotate(-78 144 16)"/>
<path d="M 176 0 L 176 32" stroke="rgb(206,252,128)" stroke-opacity="0.70882356" stroke-width="4" transform="rotate(20.117653 176 16)"/>
<path d="M 208 0 L 208 32" stroke="rgb(232,156,169)" stroke-opacity="0.86470586" stroke-width="4" transform="rotate(57.52942 208 16)"/>
<path d="M 240 0 L 240 32" stroke="rgb(231,247,170)" stroke-opacity="0.85588235" stroke-width="4" transform="rotate(55.411774 240 16)"/>
<path d="M 272 0 L 272 32" stroke="rgb(208,167,136)" stroke-opacity="0.7205882" stroke-width="4" transform="rotate(22.941177 272 16)"/>
<path d="M 304 0 L 304 32" stroke="rgb(145,169,231)" stroke-opacity="0.3529412" stroke-width="4" transform="rotate(-65.29411 304 16)"/>
<path d="M 336 0 L 336 32" stroke="rgb(252,168,252)" stroke-opacity="0.9823529" stroke-width="4" transform="rotate(85.76471 336 16)"/>
<path d="M 368 0 L 368 32" stroke="rgb(208,143,200)" stroke-opacity="0.7235294" stroke-width="4" transform="rotate(23.647064 368 16)"/>
<path d="M 16 32 L 16 64" stroke="rgb(156,136,167)" stroke-opacity="0.41470587" stroke-width="4" transform="rotate(-50.47059 16 48)"/>
<path d="M 48 32 L 48 64" stroke="rgb(200,232,219)" stroke-opacity="0.6735294" stroke-width="4" transform="rotate(11.647064 48 48)"/>
<path d="M 80 32 L 80 64" stroke="rgb(247,208,143)" stroke-opacity="0.95" stroke-width="4" transform="rotate(78 80 48)"/>
<path d="M 112 32 L 112 64" stroke="rgb(128,252,206)" stroke-opacity="0.2529412" stroke-width="4" transform="rotate(-89.29412 112 48)"/>
<path d="M 144 32 L 144 64" stroke="rgb(167,156,208)" stroke-opacity="0.48235294" stroke-width="4" transform="rotate(-34.23529 144 48)"/>
<path d="M 176 32 L 176 64" stroke="rgb(198,247,208)" stroke-opacity="0.6647059" stroke-width="4" transform="rotate(9.529419 176 48)"/>
<path d="M 208 32 L 208 64" stroke="rgb(169,167,247)" stroke-opacity="0.49411765" stroke-width="4" transform="rotate(-31.411762 208 48)"/>
<path d="M 240 32 L 240 64" stroke="rgb(219,169,198)" stroke-opacity="0.7882353" stroke-width="4" transform="rotate(39.176468 240 48)"/>
<path d="M 272 32 L 272 64" stroke="rgb(168,168,168)" stroke-opacity="0.4882353" stroke-width="4" transform="rotate(-32.82353 272 48)"/>
<path d="M 304 32 L 304 64" stroke="rgb(170,143,254)" stroke-opacity="0.5" stroke-width="4" transform="rotate(-30 304 48)"/>
<path d="M 336 32 L 336 64" stroke="rgb(143,136,232)" stroke-opacity="0.34117648" stroke-width="4" transform="rotate(-68.117645 336 48)"/>
<path d="M 368 32 L 368 64" stroke="rgb(254,232,145)" stroke-opacity="0.9941176" stroke-width="4" transform="rotate(88.58824 368 48)"/>
<path d="M 16 64 L 16 96" stroke="rgb(136,208,156)" stroke-opacity="0.3" stroke-width="4" transform="rotate(-78 16 80)"/>
<path d="M 48 64 L 48 96" stroke="rgb(206,252,128)" stroke-opacity="0.70882356" stroke-width="4" transform="rotate(20.117653 48 80)"/>
<path d="M 80 64 L 80 96" stroke="rgb(232,156,169)" stroke-opacity="0.86470586" stroke-width="4" transform="rotate(57.52942 80 80)"/>
<path d="M 112 64 L 112 96" stroke="rgb(231,247,170)" stroke-opacity="0.85588235" stroke-width="4" transform="rotate(55.411774 112 80)"/>
<path d="M 144 64 L 144 96" stroke="rgb(208,167,136)" stroke-opacity="0.7205882" stroke-width="4" transform="rotate(22.941177 144 80)"/>
<path d="M 176 64 L 176 96" stroke="rgb(145,169,231)" stroke-opacity="0.3529412" stroke-width="4" transform="rotate(-65.29411 176 80)"/>
<path d="M 208 64 L 208 96" stroke="rgb(252,168,252)" stroke-opacity="0.9823529" stroke-width="4" transform="rotate(85.76471 208 80)"/>
<path d="M 240 64 L 240 96" stroke="rgb(208,143,200)" stroke-opacity="0.7235294" stroke-width="4" transform="rotate(23.647064 240 80)"/>
<path d="M 272 64 L 272 96" stroke="rgb(156,136,167)" stroke-opacity="0.41470587" stroke-width="4" transform="rotate(-50.47059 272 80)"/>
<path d="M 304 64 L 304 96" stroke="rgb(200,232,219)" stroke-opacity="0.6735294" stroke-width="4" transform="rotate(11.647064 304 80)"/>
<path d="M 336 64 L 336 96" stroke="rgb(247,208,143)" stroke-opacity="0.95" stroke-width="4" transform="rotate(78 336 80)"/>
<path d="M 368 64 L 368 96" stroke="rgb(128,252,206)" stroke-opacity="0.2529412" stroke-width="4" transform="rotate(-89.29412 368 80)"/>
<path d="M 16 96 L 16 128" stroke="rgb(167,156,208)" stroke-opacity="0.48235294" stroke-width="4" transform="rotate(-34.23529 16 112)"/>
<path d="M 48 96 L 48 128" stroke="rgb(198,247,208)" stroke-opacity="0.6647059" stroke-width="4" transform="rotate(9.529419 48 112)"/>
<path d="M 80 96 L 80 128" stroke="rgb(169,167,247)" stroke-opacity="0.49411765" stroke-width="4" transform="rotate(-31.411762 80 112)"/>
<path d="M 112 96 L 112 128" stroke="rgb(219,169,198)" stroke-opacity="0.7882353" stroke-width="4" transform="rotate(39.176468 112 112)"/>
<path d="M 144 96 L 144 128" stroke="rgb(168,168,168)" stroke-opacity="0.4882353" stroke-width="4" transform="rotate(-32.82353 144 112)"/>
<path d="M 176 96 L 176 128" stroke="rgb(170,143,254)" stroke-opacity="0.5" stroke-width="4" transform="rotate(-30 176 112)"/>
<path d="M 208 96 L 208 128" stroke="rgb(143,136,232)" stroke-opacity="0.34117648" stroke-width="4" transform="rotate(-68.117645 208 112)"/>
<path d="M 240 96 L 240 128" stroke="rgb(254,232,145)" stroke-opacity="0.9941176" stroke-width="4" transform="rotate(88.58824 240 112)"/>
<path d="M 272 96 L 272 128" stroke="rgb(136,208,156)" stroke-opacity="0.3" stroke-width="4" transform="rotate(-78 272 112)"/>
<path d="M 304 96 L 304 128" stroke="rgb(206,252,128)" stroke-opacity="0.70882356" stroke-width="4" transform="rotate(20.117653 304 112)"/>
<path d="M 336 96 L 336 128" stroke="rgb(232,156,169)" stroke-opacity="0.86470586" stroke-width="4" transform="rotate(57.52942 336 112)"/>
<path d="M 368 96 L 368 128" stroke="rgb(231,247,170)" stroke-opacity="0.85588235" stroke-width="4" transform="rotate(55.411774 368 112)"/>
<path d="M 6.4 128 L 6.4 160 M 25.6 128 L 25.6 160" stroke="rgb(208,167,136)" stroke-opacity="0.7205882" stroke-width="4" transform="rotate(22.941177 16 144)"/>
<path d="M 38.4 128 L 38.4 160 M 57.6 128 L 57.6 160" stroke="rgb(145,169,231)" stroke-opacity="0.3529412" stroke-width="4" transform="rotate(-65.29411 48 144)"/>
<path d="M 70.4 128 L 70.4 160 M 89.6 128 L 89.6 160" stroke="rgb(252,168,252)" stroke-opacity="0.9823529" stroke-width="4" transform="rotate(85.76471 80 144)"/>
<path d="M 102.4 128 L 102.4 160 M 121.6 128 L 121.6 160" stroke="rgb(208,143,200)" stroke-opacity="0.7235294" stroke-width="4" transform="rotate(23.647064 112 144)"/>
<path d="M 134.4 128 L 134.4 160 M 153.6 128 L 153.6 160" stroke="rgb(156,136,167)" stroke-opacity="0.41470587" stroke-width="4" transform="rotate(-50.47059 144 144)"/>
<path d="M 166.4 128 L 166.4 160 M 185.6 128 L 185.6 160" stroke="rgb(200,232,219)" stroke-opacity="0.6735294" stroke-width="4" transform="rotate(11.647064 176 144)"/>
<path d="M 198.4 128 L 198.4 160 M 217.6 128 L 217.6 160" stroke="rgb(247,208,143)" stroke-opacity="0.95" stroke-width="4" transform="rotate(78 208 144)"/>
<path d="M 230.4 128 L 230.4 160 M 249.6 128 L 249.6 160" stroke="rgb(128,252,206)" stroke-opacity="0.2529412" stroke-width="4" transform="rotate(-89.29412 240 144)"/>
<path d="M 262.4 128 L 262.4 160 M 281.6 128 L 281.6 160" stroke="rgb(167,156,208)" stroke-opacity="0.48235294" stroke-width="4" transform="rotate(-34.23529 272 144)"/>
<path d="M 294.4 128 L 294.4 160 M 313.6 128 L 313.6 160" stroke="rgb(198,247,208)" stroke-opacity="0.6647059" stroke-width="4" transform="rotate(9.529419 304 144)"/>
<path d="M 326.4 128 L 326.4 160 M 345.6 128 L 345.6 160" stroke="rgb(169,167,247)" stroke-opacity="0.49411765" stroke-width="4" transform="rotate(-31.411762 336 144)"/>
<path d="M 358.4 128 L 358.4 160 M 377.6 128 L 377.6 160" stroke="rgb(219,169,198)" stroke-opacity="0.7882353" stroke-width="4" transform="rotate(39.176468 368 144)"/>
<path d="M 6.4 160 L 6.4 192 M 25.6 160 L 25.6 192" stroke="rgb(168,168,168)" stroke-opacity="0.4882353" stroke-width="4" transform="rotate(-32.82353 16 176)"/>
<path d="M 38.4 160 L 38.4 192 M 57.6 160 L 57.6 192" stroke="rgb(170,143,254)" stroke-opacity="0.5" stroke-width="4" transform="rotate(-30 48 176)"/>
<path d="M 70.4 160 L 70.4 192 M 89.6 160 L 89.6 192" stroke="rgb(143,136,232)" stroke-opacity="0.34117648" stroke-width="4" transform="rotate(-68.117645 80 176)"/>
<path d="M 102.4 160 L 102.4 192 M 121.6 160 L 121.6 192" stroke="rgb(254,232,145)" stroke-opacity="0.9941176" stroke-width="4" transform="rotate(88.58824 112 176)"/>
<path d="M 134.4 160 L 134.4 192 M 153.6 160 L 153.6 192" stroke="rgb(136,208,156)" stroke-opacity="0.3" stroke-width="4" transform="rotate(-78 144 176)"/>
<path d="M 166.4 160 L 166.4 192 M 185.6 160 L 185.6 192" stroke="rgb(206,252,128)" stroke-opacity="0.70882356" stroke-width="4" transform="rotate(20.117653 176 176)"/>
<path d="M 198.4 160 L 198.4 192 M 217.6 160 L 217.6 192" stroke="rgb(232,156,169)" stroke-opacity="0.86470586" stroke-width="4" transform="rotate(57.52942 208 176)"/>
<path d="M 230.4 160 L 230.4 192 M 249.6 160 L 249.6 192" stroke="rgb(231,247,170)" stroke-opacity="0.85588235" stroke-width="4" transform="rotate(55.411774 240 176)"/>
<path d="M 262.4 160 L 262.4 192 M 281.6 160 L 281.6 192" stroke="rgb(208,167,136)" stroke-opacity="0.7205882" stroke-width="4" transform="rotate(22.941177 272 176)"/>
<path d="M 294.4 160 L 294.4 192 M 313.6 160 L 313.6 192" stroke="rgb(145,169,231)" stroke-opacity="0.3529412" stroke-width="4" transform="rotate(-65.29411 304 176)"/>
<path d="M 326.4 160 L 326.4 192 M 345.6 160 L 345.6 192" stroke="rgb(252,168,252)" stroke-opacity="0.9823529" stroke-width="4" transform="rotate(85.76471 336 176)"/>
<path d="M 358.4 160 L 358.4 192 M 377.6 160 L 377.6 192" stroke="rgb(208,143,200)" stroke-opacity="0.7235294" stroke-width="4" transform="rotate(23.647064 368 176)"/>
<path d="M 6.4 192 L 6.4 224 M 25.6 192 L 25.6 224" stroke="rgb(156,136,167)" stroke-opacity="0.41470587" stroke-width="4" transform="rotate(-50.47059 16 208)"/>
<path d="M 38.4 192 L 38.4 224 M 57.6 192 L 57.6 224" stroke="rgb(200,232,219)" stroke-opacity="0.6735294" stroke-width="4" transform="rotate(11.647064 48 208)"/>
<path d="M 70.4 192 L 70.4 224 M 89.6 192 L 89.6 224" stroke="rgb(247,208,143)" stroke-opacity="0.95" stroke-width="4" transform="rotate(78 80 208)"/>
<path d="M 102.4 192 L 102.4 224 M 121.6 192 L 121.6 224" stroke="rgb(128,252,206)" stroke-opacity="0.2529412" stroke-width="4" transform="rotate(-89.29412 112 208)"/>
<path d="M 134.4 192 L 134.4 224 M 153.6 192 L 153.6 224" stroke="rgb(167,156,208)" stroke-opacity="0.48235294" stroke-width="4" transform="rotate(-34.23529 144 208)"/>
<path d="M 166.4 192 L 166.4 224 M 185.6 192 L 185.6 224" stroke="rgb(198,247,208)" stroke-opacity="0.6647059" stroke-width="4" transform="rotate(9.529419 176 208)"/>
<path d="M 198.4 192 L 198.4 224 M 217.6 192 L 217.6 224" stroke="rgb(169,167,247)" stroke-opacity="0.49411765" stroke-width="4" transform="rotate(-31.411762 208 208)"/>
<path d="M 230.4 192 L 230.4 224 M 249.6 192 L 249.6 224" stroke="rgb(219,169,198)" stroke-opacity="0.7882353" stroke-width="4" transform="rotate(39.176468 240 208)"/>
<path d="M 262.4 192 L 262.4 224 M 281.6 192 L 281.6 224" stroke="rgb(168,168,168)" stroke-opacity="0.4882353" stroke-width="4" transform="rotate(-32.82353 272 208)"/>
<path d="M 294.4 192 L 294.4 224 M 313.6 192 L 313.6 224" stroke="rgb(170,143,254)" stroke-opacity="0.5" stroke-width="4" transform="rotate(-30 304 208)"/>
<path d="M 326.4 192 L 326.4 224 M 345.6 192 L 345.6 224" stroke="rgb(143,136,232)" stroke-opacity="0.34117648" stroke-width="4" transform="rotate(-68.117645 336 208)"/>
<path d="M 358.4 192 L 358.4 224 M 377.6 192 L 377.6 224" stroke="rgb(254,232,145)" stroke-opacity="0.9941176" stroke-width="4" transform="rotate(88.58824 368 208)"/>
<path d="M 6.4 224 L 6.4 256 M 25.6 224 L 25.6 256" stroke="rgb(136,208,156)" stroke-opacity="0.3" stroke-width="4" transform="rotate(-78 16 240)"/>
<path d="M 38.4 224 L 38.4 256 M 57.6 224 L 57.6 256" stroke="rgb(206,252,128)" stroke-opacity="0.70882356" stroke-width="4" transform="rotate(20.117653 48 240)"/>
<path d="M 70.4 224 L 70.4 256 M 89.6 224 L 89.6 256" stroke="rgb(232,156,169)" stroke-opacity="0.86470586" stroke-width="4" transform="rotate(57.52942 80 240)"/>
<path d="M 102.4 224 L 102.4 256 M 121.6 224 L 121.6 256" stroke="rgb(231,247,170)" stroke-opacity="0.85588235" stroke-width="4" transform="rotate(55.411774 112 240)"/>
<path d="M 134.4 224 L 134.4 256 M 153.6 224 L 153.6 256" stroke="rgb(208,167,136)" stroke-opacity="0.7205882" stroke-width="4" transform="rotate(22.941177 144 240)"/>
<path d="M 166.4 224 L 166.4 256 M 185.6 224 L 185.6 256" stroke="rgb(145,169,231)" stroke-opacity="0.3529412" stroke-width="4" transform="rotate(-65.29411 176 240)"/>
<path d="M 198.4 224 L 198.4 256 M 217.6 224 L 217.6 256" stroke="rgb(252,168,252)" stroke-opacity="0.9823529" stroke-width="4" transform="rotate(85.76471 208 240)"/>
<path d="M 230.4 224 L 230.4 256 M 249.6 224 L 249.6 256" stroke="rgb(208,143,200)" stroke-opacity="0.7235294" stroke-width="4" transform="rotate(23.647064 240 240)"/>
<path d="M 262.4 224 L 262.4 256 M 281.6 224 L 281.6 256" stroke="rgb(156,136,167)" stroke-opacity="0.41470587" stroke-width="4" transform="rotate(-50.47059 272 240)"/>
<path d="M 294.4 224 L 294.4 256 M 313.6 224 L 313.6 256" stroke="rgb(200,232,219)" stroke-opacity="0.6735294" stroke-width="4" transform="rotate(11.647064 304 240)"/>
<path d="M 326.4 224 L 326.4 256 M 345.6 224 L 345.6 256" stroke="rgb(247,208,143)" stroke-opacity="0.95" stroke-width="4" transform="rotate(78 336 240)"/>
<path d="M 358.4 224 L 358.4 256 M 377.6 224 L 377.6 256" stroke="rgb(128,252,206)" stroke-opacity="0.2529412" stroke-width="4" transform="rotate(-89.29412 368 240)"/>
<path d="M 3.2 256 L 3.2 288 M 16 256 L 16 288 M 28.8 256 L 28.8 288" stroke="rgb(167,156,208)" stroke-opacity="0.48235294" stroke-width="4" transform="rotate(-34.23529 16 272)"/>
<path d="M 35.2 256 L 35.2 288 M 48 256 L 48 288 M 60.8 256 L 60.8 288" stroke="rgb(198,247,208)" stroke-opacity="0.6647059" stroke-width="4" transform="rotate(9.529419 48 272)"/>
<path d="M 67.2 256 L 67.2 288 M 80 256 L 80 288 M 92.8 256 L 92.8 288" stroke="rgb(169,167,247)" stroke-opacity="0.49411765" stroke-width="4" transform="rotate(-31.411762 80 272)"/>
<path d="M 99.2 256 L 99.2 288 M 112 256 L 112 288 M 124.8 256 L 124.8 288" stroke="rgb(219,169,198)" stroke-opacity="0.7882353" stroke-width="4" transform="rotate(39.176468 112 272)"/>
<path d="M 131.2 256 L 131.2 288 M 144 256 L 144 288 M 156.8 256 L 156.8 288" stroke="rgb(168,168,168)" stroke-opacity="0.4882353" stroke-width="4" transform="rotate(-32.82353 144 272)"/>
<path d="M 163.2 256 L 163.2 288 M 176 256 L 176 288 M 188.8 256 L 188.8 288" stroke="rgb(170,143,254)" stroke-opacity="0.5" stroke-width="4" transform="rotate(-30 176 272)"/>
<path d="M 195.2 256 L 195.2 288 M 208 256 L 208 288 M 220.8 256 L 220.8 288" stroke="rgb(143,136,232)" stroke-opacity="0.34117648" stroke-width="4" transform="rotate(-68.117645 208 272)"/>
<path d="M 227.2 256 L 227.2 288 M 240 256 L 240 288 M 252.8 256 L 252.8 288" stroke="rgb(254,232,145)" stroke-opacity="0.9941176" stroke-width="4" transform="rotate(88.58824 240 272)"/>
<path d="M 259.2 256 L 259.2 288 M 272 256 L 272 288 M 284.8 256 L 284.8 288" stroke="rgb(136,208,156)" stroke-opacity="0.3" stroke-width="4" transform="rotate(-78 272 272)"/>
<path d="M 291.2 256 L 291.2 288 M 304 256 L 304 288 M 316.8 256 L 316.8 288" stroke="rgb(206,252,128)" stroke-opacity="0.70882356" stroke-width="4" transform="rotate(20.117653 304 272)"/>
<path d="M 323.2 256 L 323.2 288 M 336 256 L 336 288 M 348.8 256 L 348.8 288" stroke="rgb(232,156,169)" stroke-opacity="0.86470586" stroke-width="4" transform="rotate(57.52942 336 272)"/>
<path d="M 355.2 256 L 355.2 288 M 368 256 L 368 288 M 380.8 256 L 380.8 288" stroke="rgb(231,247,170)" stroke-opacity="0.85588235" stroke-width="4" transform="rotate(55.411774 368 272)"/>
<path d="M 3.2 288 L 3.2 320 M 16 288 L 16 320 M 28.8 288 L 28.8 320" stroke="rgb(208,167,136)" stroke-opacity="0.7205882" stroke-width="4" transform="rotate(22.941177 16 304)"/>
<path d="M 35.2 288 L 35.2 320 M 48 288 L 48 320 M 60.8 288 L 60.8 320" stroke="rgb(145,169,231)" stroke-opacity="0.3529412" stroke-width="4" transform="rotate(-65.29411 48 304)"/>
<path d="M 67.2 288 L 67.2 320 M 80 288 L 80 320 M 92.8 288 L 92.8 320" stroke="rgb(252,168,252)" stroke-opacity="0.9823529" stroke-width="4" transform="rotate(85.76471 80 304)"/>
<path d="M 99.2 288 L 99.2 320 M 112 288 L 112 320 M 124.8 288 L 124.8 320" stroke="rgb(208,143,200)" stroke-opacity="0.7235294" stroke-width="4" transform="rotate(23.647064 112 304)"/>
<path d="M 131.2 288 L 131.2 320 M 144 288 L 144 320 M 156.8 288 L 156.8 320" stroke="rgb(156,136,167)" stroke-opacity="0.41470587" stroke-width="4" transform="rotate(-50.47059 144 304)"/>
<path d="M 163.2 288 L 163.2 320 M 176 288 L 176 320 M 188.8 288 L 188.8 320" stroke="rgb(200,232,219)" stroke-opacity="0.6735294" stroke-width="4" transform="rotate(11.647064 176 304)"/>
<path d="M 195.2 288 L 195.2 320 M 208 288 L 208 320 M 220.8 288 L 220.8 320" stroke="rgb(247,208,143)" stroke-opacity="0.95" stroke-width="4" transform="rotate(78 208 304)"/>
<path d="M 227.2 288 L 227.2 320 M 240 288 L 240 320 M 252.8 288 L 252.8 320" stroke="rgb(128,252,206)" stroke-opacity="0.2529412" stroke-width="4" transform="rotate(-89.29412 240 304)"/>
<path d="M 259.2 288 L 259.2 320 M 272 288 L 272 320 M 284.8 288 L 284.8 320" stroke="rgb(167,156,208)" stroke-opacity="0.48235294" stroke-width="4" transform="rotate(-34.23529 272 304)"/>
<path d="M 291.2 288 L 291.2 320 M 304 288 L 304 320 M 316.8 288 L 316.8 320" stroke="rgb(198,247,208)" stroke-opacity="0.6647059" stroke-width="4" transform="rotate(9.529419 304 304)"/>
<path d="M 323.2 288 L 323.2 320 M 336 288 L 336 320 M 348.8 288 L 348.8 320" stroke="rgb(169,167,247)" stroke-opacity="0.49411765" stroke-width="4" transform="rotate(-31.411762 336 304)"/>
<path d="M 355.2 288 L 355.2 320 M 368 288 L 368 320 M 380.8 288 L 380.8 320" stroke="rgb(219,169,198)" stroke-opacity="0.7882353" stroke-width="4" transform="rotate(39.176468 368 304)"/>
<path d="M 3.2 320 L 3.2 352 M 16 320 L 16 352 M 28.8 320 L 28.8 352" stroke="rgb(168,168,168)" stroke-opacity="0.4882353" stroke-width="4" transform="rotate(-32.82353 16 336)"/>
<path d="M 35.2 320 L 35.2 352 M 48 320 L 48 352 M 60.8 320 L 60.8 352" stroke="rgb(170,143,254)" stroke-opacity="0.5" stroke-width="4" transform="rotate(-30 48 336)"/>
<path d="M 67.2 320 L 67.2 352 M 80 320 L 80 352 M 92.8 320 L 92.8 352" stroke="rgb(143,136,232)" stroke-opacity="0.34117648" stroke-width="4" transform="rotate(-68.117645 80 336)"/>
<path d="M 99.2 320 L 99.2 352 M 112 320 L 112 352 M 124.8 320 L 124.8 352" stroke="rgb(254,232,145)" stroke-opacity="0.9941176" stroke-width="4" transform="rotate(88.58824 112 336)"/>
<path d="M 131.2 320 L 131.2 352 M 144 320 L 144 352 M 156.8 320 L 156.8 352" stroke="rgb(136,208,156)" stroke-opacity="0.3" stroke-width="4" transform="rotate(-78 144 336)"/>
<path d="M 163.2 320 L 163.2 352 M 176 320 L 176 352 M 188.8 320 L 188.8 352" stroke="rgb(206,252,128)" stroke-opacity="0.70882356" stroke-width="4" transform="rotate(20.117653 176 336)"/>
<path d="M 195.2 320 L 195.2 352 M 208 320 L 208 352 M 220.8 320 L 220.8 352" stroke="rgb(232,156,169)" stroke-opacity="0.86470586" stroke-width="4" transform="rotate(57.52942 208 336)"/>
<path d="M 227.2 320 L 227.2 352 M 240 320 L 240 352 M 252.8 320 L 252.8 352" stroke="rgb(231,247,170)" stroke-opacity="0.85588235" stroke-width="4" transform="rotate(55.411774 240 336)"/>
<path d="M 259.2 320 L 259.2 352 M 272 320 L 272 352 M 284.8 320 L 284.8 352" stroke="rgb(208,167,136)" stroke-opacity="0.7205882" stroke-width="4" transform="rotate(22.941177 272 336)"/>
<path d="M 291.2 320 L 291.2 352 M 304 320 L 304 352 M 316.8 320 L 316.8 352" stroke="rgb(145,169,231)" stroke-opacity="0.3529412" stroke-width="4" transform="rotate(-65.29411 304 336)"/>
<path d="M 323.2 320 L 323.2 352 M 336 320 L 336 352 M 348.8 320 L 348.8 352" stroke="rgb(252,168,252)" stroke-opacity="0.9823529" stroke-width="4" transform="rotate(85.76471 336 336)"/>
<path d="M 355.2 320 L 355.2 352 M 368 320 L 368 352 M 380.8 320 L 380.8 352" stroke="rgb(208,143,200)" stroke-opacity="0.7235294" stroke-width="4" transform="rotate(23.647064 368 336)"/>
<path d="M 3.2 352 L 3.2 384 M 16 352 L 16 384 M 28.8 352 L 28.8 384" stroke="rgb(156,136,167)" stroke-opacity="0.41470587" stroke-width="4" transform="rotate(-50.47059 16 368)"/>
<path d="M 35.2 352 L 35.2 384 M 48 352 L 48 384 M 60.8 352 L 60.8 384" stroke="rgb(200,232,219)" stroke-opacity="0.6735294" stroke-width="4" transform="rotate(11.647064 48 368)"/>
<path d="M 67.2 352 L 67.2 384 M 80 352 L 80 384 M 92.8 352 L 92.8 384" stroke="rgb(247,208,143)" stroke-opacity="0.95" stroke-width="4" transform="rotate(78 80 368)"/>
<path d="M 99.2 352 L 99.2 384 M 112 352 L 112 384 M 124.8 352 L 124.8 384" stroke="rgb(128,252,206)" stroke-opacity="0.2529412" stroke-width="4" transform="rotate(-89.29412 112 368)"/>
<path d="M 131.2 352 L 131.2 384 M 144 352 L 144 384 M 156.8 352 L 156.8 384" stroke="rgb(167,156,208)" stroke-opacity="0.48235294" stroke-width="4" transform="rotate(-34.23529 144 368)"/>
<path d="M 163.2 352 L 163.2 384 M 176 352 L 176 384 M 188.8 352 L 188.8 384" stroke="rgb(198,247,208)" stroke-opacity="0.6647059" stroke-width="4" transform="rotate(9.529419 176 368)"/>
<path d="M 195.2 352 L 195.2 384 M 208 352 L 208 384 M 220.8 352 L 220.8 384" stroke="rgb(169,167,247)" stroke-opacity="0.49411765" stroke-width="4" transform="rotate(-31.411762 208 368)"/>
<path d="M 227.2 352 L 227.2 384 M 240 352 L 240 384 M 252.8 352 L 252.8 384" stroke="rgb(219,169,198)" stroke-opacity="0.7882353" stroke-width="4" transform="rotate(39.176468 240 368)"/>
<path d="M 259.2 352 L 259.2 384 M 272 352 L 272 384 M 284.8 352 L 284.8 384" stroke="rgb(168,168,168)" stroke-opacity="0.4882353" stroke-width="4" transform="rotate(-32.82353 272 368)"/>
<path d="M 291.2 352 L 291.2 384 M 304 352 L 304 384 M 316.8 352 L 316.8 384" stroke="rgb(170,143,254)" stroke-opacity="0.5" stroke-width="4" transform="rotate(-30 304 368)"/>
<path d="M 323.2 352 L 323.2 384 M 336 352 L 336 384 M 348.8 352 L 348.8 384" stroke="rgb(143,136,232)" stroke-opacity="0.34117648" stroke-width="4" transform="rotate(-68.117645 336 368)"/>
<path d="M 355.2 352 L 355.2 384 M 368 352 L 368 384 M 380.8 352 L 380.8 384" stroke="rgb(254,232,145)" stroke-opacity="0.9941176" stroke-width="4" transform="rotate(88.58824 368 368)"/>
</svg>