<svg height="271.584" width="271.584" xmlns="http://www.w3.org/2000/svg">
<rect fill="rgb(160,56,79)" height="100%" width="100%" x="0" y="0"/>
<g fill="#222" style="opacity:0.12431373;" transform="translate(-67.896, -67.896) rotate(45, 67.896, 67.896)">
<rect height="144" width="48" x="48" y="0"/>
<rect height="48" width="144" x="0" y="48"/>
</g>
<g fill="#222" style="opacity:0.12431373;" transform="translate(203.68802, -67.896) rotate(45, 67.896, 67.896)">
<rect height="144" width="48" x="48" y="0"/>
<rect height="48" width="144" x="0" y="48"/>
</g>
<g fill="#222" style="opacity:0.12431373;" transform="translate(-67.896, 509.22003) rotate(45, 67.896, 67.896)">
<rect height="144" width="48" x="48" y="0"/>
<rect height="48" width="144" x="0" y="48"/>
</g>
<g fill="#222" style="opacity:0.12431373;" transform="translate(203.68802, -339.48) rotate(45, 67.896, 67.896)">
<rect height="144" width="48" x="48" y="0"/>
<rect height="48" width="144" x="0" y="48"/>
</g>
<g fill="#222" style="opacity:0.2984314;" transform="translate(0, -33.948) rotate(45, 67.896, 67.896)">
<rect height="144" width="48" x="48" y="0"/>
<rect height="48" width="144" x="0" y="48"/>
</g>
<g fill="#222" style="opacity:0.2984314;" transform="translate(0, 475.27203) rotate(45, 67.896, 67.896)">
<rect height="144" width="48" x="48" y="0"/>
<rect height="48" width="144" x="0" y="48"/>
</g>
<g fill="#222" style="opacity:0.11333334;" transform="translate(67.896, -67.896) rotate(45, 67.896, 67.896)">
<rect height="144" width="48" x="48" y="0"/>
<rect height="48" width="144" x="0" y="48"/>
</g>
<g fill="#222" style="opacity:0.11333334;" transform="translate(67.896, 509.22003) rotate(45, 67.896, 67.896)">
<rect height="144" width="48" x="48" y="0"/>
<rect height="48" width="144" x="0" y="48"/>
</g>
<g fill="#ddd" style="opacity:0.22235295;" transform="translate(135.79202, -33.948) rotate(45, 67.896, 67.896)">
<rect height="144" width="48" x="48" y="0"/>
<rect height="48" width="144" x="0" y="48"/>
</g>
<g fill="#ddd" style="opacity:0.22235295;" transform="translate(135.79202, 475.27203) rotate(45, 67.896, 67.896)">
<rect height="144" width="48" x="48" y="0"/>
<rect height="48" width="144" x="0" y="48"/>
</g>
<g fill="#222" style="opacity:0.26392156;" transform="translate(-67.896, 0) rotate(45, 67.896, 67.896)">
<rect height="144" width="48" x="48" y="0"/>
<rect height="48" width="144" x="0" y="48"/>
</g>
<g fill="#222" style="opacity:0.26392156;" transform="translate(203.68802, 0) rotate(45, 67.896, 67.896)">
<rect height="144" width="48" x="48" y="0"/>
<rect height="48" width="144" x="0" y="48"/>
</g>
<g fill="#ddd" style="opacity:0.26156864;" transform="translate(0, 33.948006) rotate(45, 67.896, 67.896)">
<rect height="144" width="48" x="48" y="0"/>
<rect height="48" width="144" x="0" y="48"/>
</g>
<g fill="#ddd" style="opacity:0.22549021;" transform="translate(67.896, 0) rotate(45, 67.896, 67.896)">
<rect height="144" width="48" x="48" y="0"/>
<rect height="48" width="144" x="0" y="48"/>
</g>
<g fill="#222" style="opacity:0.12745099;" transform="translate(135.79202, 33.948006) rotate(45, 67.896, 67.896)">
<rect height="144" width="48" x="48" y="0"/>
<rect height="48" width="144" x="0" y="48"/>
</g>
<g fill="#222" style="opacity:0.2952941;" transform="translate(-67.896, 67.89601) rotate(45, 67.896, 67.896)">
<rect height="144" width="48" x="48" y="0"/>
<rect height="48" width="144" x="0" y="48"/>
</g>
<g fill="#222" style="opacity:0.2952941;" transform="translate(203.68802, 67.89601) rotate(45, 67.896, 67.896)">
<rect height="144" width="48" x="48" y="0"/>
<rect height="48" width="144" x="0" y="48"/>
</g>
<g fill="#222" style="opacity:0.22627452;" transform="translate(0, 101.84401) rotate(45, 67.896, 67.896)">
<rect height="144" width="48" x="48" y="0"/>
<rect height="48" width="144" x="0" y="48"/>
</g>
<g fill="#ddd" style="opacity:0.14392157;" transform="translate(67.896, 67.89601) rotate(45, 67.896, 67.896)">
<rect height="144" width="48" x="48" y="0"/>
<rect height="48" width="144" x="0" y="48"/>
</g>
<g fill="#ddd" style="opacity:0.21294118;" transform="translate(135.79202, 101.84401) rotate(45, 67.896, 67.896)">
<rect height="144" width="48" x="48" y="0"/>
<rect height="48" width="144" x="0" y="48"/>
</g>
<g fill="#ddd" style="opacity:0.2866667;" transform="translate(-67.896, 135.79202) rotate(45, 67.896, 67.896)">
<rect height="144" width="48" x="48" y="0"/>
<rect height="48" width="144" x="0" y="48"/>
</g>
<g fill="#ddd" style="opacity:0.2866667;" transform="translate(203.68802, 135.79202) rotate(45, 67.896, 67.896)">
<rect height="144" width="48" x="48" y="0"/>
<rect height="48" width="144" x="0" y="48"/>
</g>
<g fill="#ddd" style="opacity:0.2866667;" transform="translate(-67.896, -135.79199) rotate(45, 67.896, 67.896)">
<rect height="144" width="48" x="48" y="0"/>
<rect height="48" width="144" x="0" y="48"/>
</g>
<g fill="#222" style="opacity:0.10078432;" transform="translate(0, 169.74002) rotate(45, 67.896, 67.896)">
<rect height="144" width="48" x="48" y="0"/>
<rect height="48" width="144" x="0" y="48"/>
</g>
<g fill="#222" style="opacity:0.10078432;" transform="translate(0, -101.843994) rotate(45, 67.896, 67.896)">
<rect height="144" width="48" x="48" y="0"/>
<rect height="48" width="144" x="0" y="48"/>
</g>
<g fill="#222" style="opacity:0.16196078;" transform="translate(67.896, 135.79202) rotate(45, 67.896, 67.896)">
<rect height="144" width="48" x="48" y="0"/>
<rect height="48" width="144" x="0" y="48"/>
</g>
<g fill="#222" style="opacity:0.16196078;" transform="translate(67.896, -135.79199) rotate(45, 67.896, 67.896)">
<rect height="144" width="48" x="48" y="0"/>
<rect height="48" width="144" x="0" y="48"/>
</g>
<g fill="#222" style="opacity:0.21058825;" transform="translate(135.79202, 169.74002) rotate(45, 67.896, 67.896)">
<rect height="144" width="48" x="48" y="0"/>
<rect height="48" width="144" x="0" y="48"/>
</g>
<g fill="#222" style="opacity:0.21058825;" transform="translate(135.79202, -101.843994) rotate(45, 67.896, 67.896)">
<rect height="144" width="48" x="48" y="0"/>
<rect height="48" width="144" x="0" y="48"/>
</g>
</svg>